Topmarks-Bold.ufo
<glyph name="exclam" format="1">
  <advance width="525"/>
  <unicode hex="0021"/>
  <outline>
    <contour>
      <point x="264" y="0" type="curve" smooth="yes"/>
      <point x="368" y="0"/>
      <point x="445" y="74"/>
      <point x="445" y="175" type="curve" smooth="yes"/>
      <point x="445" y="277"/>
      <point x="369" y="351"/>
      <point x="265" y="351" type="curve" smooth="yes"/>
      <point x="161" y="351"/>
      <point x="84" y="278"/>
      <point x="84" y="178" type="curve" smooth="yes"/>
      <point x="84" y="75"/>
      <point x="159" y="0"/>
    </contour>
    <contour>
      <point x="193" y="518" type="line"/>
      <point x="322" y="518" type="line"/>
      <point x="416" y="1704" type="line"/>
      <point x="102" y="1704" type="line"/>
    </contour>
  </outline>
</glyph>
<glyph name="quotedbl" format="1">
  <advance width="1268"/>
  <unicode hex="0022"/>
  <outline>
    <contour>
      <point x="377" y="928" type="line"/>
      <point x="351" y="1470" type="line"/>
      <point x="547" y="1470" type="line"/>
      <point x="530" y="928" type="line"/>
    </contour>
    <contour>
      <point x="716" y="928" type="line"/>
      <point x="691" y="1470" type="line"/>
      <point x="885" y="1470" type="line"/>
      <point x="868" y="928" type="line"/>
    </contour>
  </outline>
</glyph>
<glyph name="numbersign" format="1">
  <advance width="2544"/>
  <unicode hex="0023"/>
  <outline>
    <contour>
      <point x="1223" y="1980" type="line"/>
      <point x="1119" y="1420" type="line"/>
      <point x="763" y="1420" type="line"/>
      <point x="869" y="1980" type="line"/>
      <point x="669" y="1980" type="line"/>
      <point x="561" y="1420" type="line"/>
      <point x="193" y="1420" type="line"/>
      <point x="175" y="1251" type="line"/>
      <point x="531" y="1251" type="line"/>
      <point x="508" y="1124"/>
      <point x="485" y="1004"/>
      <point x="463" y="875" type="curve"/>
      <point x="101" y="875" type="line"/>
      <point x="86" y="703" type="line"/>
      <point x="430" y="703" type="line"/>
      <point x="315" y="123" type="line"/>
      <point x="515" y="123" type="line"/>
      <point x="627" y="703" type="line"/>
      <point x="983" y="703" type="line"/>
      <point x="874" y="123" type="line"/>
      <point x="1072" y="123" type="line"/>
      <point x="1185" y="703" type="line"/>
      <point x="1540" y="703" type="line"/>
      <point x="1559" y="875" type="line"/>
      <point x="1215" y="875" type="line"/>
      <point x="1285" y="1251" type="line"/>
      <point x="1626" y="1251" type="line"/>
      <point x="1645" y="1420" type="line"/>
      <point x="1316" y="1420" type="line"/>
      <point x="1423" y="1980" type="line"/>
    </contour>
    <contour>
      <point x="1017" y="875" type="line"/>
      <point x="657" y="875" type="line"/>
      <point x="731" y="1251" type="line"/>
      <point x="1087" y="1251" type="line"/>
    </contour>
  </outline>
</glyph>
<glyph name="dollar" format="1">
  <advance width="1245"/>
  <unicode hex="0024"/>
  <outline>
    <contour>
      <point x="598" y="-213" type="line"/>
      <point x="600" y="1628" type="line"/>
      <point x="729" y="1628" type="line"/>
      <point x="729" y="-213" type="line"/>
    </contour>
    <component base="S"/>
  </outline>
</glyph>
<glyph name="percent" format="1">
  <advance width="4065"/>
  <unicode hex="0025"/>
  <outline>
    <contour>
      <point x="1950" y="1942" type="line"/>
      <point x="715" y="-25" type="line"/>
      <point x="926" y="-25" type="line"/>
      <point x="2161" y="1942" type="line"/>
    </contour>
    <contour>
      <point x="758" y="1957"/>
      <point x="689" y="1945"/>
      <point x="629" y="1918" type="curve" smooth="yes"/>
      <point x="460" y="1842"/>
      <point x="344" y="1675"/>
      <point x="344" y="1434" type="curve" smooth="yes"/>
      <point x="344" y="1362"/>
      <point x="355" y="1294"/>
      <point x="377" y="1231" type="curve" smooth="yes"/>
      <point x="438" y="1051"/>
      <point x="585" y="918"/>
      <point x="825" y="918" type="curve" smooth="yes"/>
      <point x="900" y="918"/>
      <point x="967" y="932"/>
      <point x="1027" y="959" type="curve" smooth="yes"/>
      <point x="1195" y="1036"/>
      <point x="1312" y="1200"/>
      <point x="1312" y="1440" type="curve" smooth="yes"/>
      <point x="1312" y="1748"/>
      <point x="1143" y="1957"/>
      <point x="833" y="1957" type="curve" smooth="yes"/>
    </contour>
    <contour>
      <point x="879" y="1804"/>
      <point x="923" y="1795"/>
      <point x="959" y="1776" type="curve" smooth="yes"/>
      <point x="1063" y="1720"/>
      <point x="1117" y="1601"/>
      <point x="1117" y="1441" type="curve" smooth="yes"/>
      <point x="1117" y="1242"/>
      <point x="1029" y="1072"/>
      <point x="830" y="1072" type="curve" smooth="yes"/>
      <point x="628" y="1072"/>
      <point x="541" y="1234"/>
      <point x="541" y="1436" type="curve" smooth="yes"/>
      <point x="541" y="1636"/>
      <point x="629" y="1804"/>
      <point x="831" y="1804" type="curve" smooth="yes"/>
    </contour>
    <contour>
      <point x="2026" y="985"/>
      <point x="1958" y="972"/>
      <point x="1898" y="944" type="curve" smooth="yes"/>
      <point x="1729" y="868"/>
      <point x="1613" y="702"/>
      <point x="1613" y="461" type="curve" smooth="yes"/>
      <point x="1613" y="388"/>
      <point x="1623" y="320"/>
      <point x="1645" y="258" type="curve" smooth="yes"/>
      <point x="1708" y="77"/>
      <point x="1853" y="-55"/>
      <point x="2093" y="-55" type="curve" smooth="yes"/>
      <point x="2168" y="-55"/>
      <point x="2235" y="-42"/>
      <point x="2295" y="-14" type="curve" smooth="yes"/>
      <point x="2463" y="62"/>
      <point x="2581" y="228"/>
      <point x="2581" y="468" type="curve" smooth="yes"/>
      <point x="2581" y="776"/>
      <point x="2411" y="985"/>
      <point x="2101" y="985" type="curve" smooth="yes"/>
    </contour>
    <contour>
      <point x="2299" y="831"/>
      <point x="2384" y="670"/>
      <point x="2384" y="469" type="curve" smooth="yes"/>
      <point x="2384" y="270"/>
      <point x="2298" y="99"/>
      <point x="2097" y="99" type="curve" smooth="yes"/>
      <point x="2048" y="99"/>
      <point x="2004" y="108"/>
      <point x="1969" y="128" type="curve" smooth="yes"/>
      <point x="1863" y="184"/>
      <point x="1809" y="301"/>
      <point x="1809" y="460" type="curve" smooth="yes"/>
      <point x="1809" y="660"/>
      <point x="1898" y="831"/>
      <point x="2100" y="831" type="curve" smooth="yes"/>
    </contour>
  </outline>
</glyph>
<glyph name="ampersand" format="1">
  <advance width="3373"/>
  <unicode hex="0026"/>
  <outline>
    <contour>
      <point x="709" y="1993"/>
      <point x="487" y="1867"/>
      <point x="487" y="1596" type="curve" smooth="yes"/>
      <point x="487" y="1548"/>
      <point x="494" y="1504"/>
      <point x="509" y="1464" type="curve" smooth="yes"/>
      <point x="558" y="1330"/>
      <point x="659" y="1239"/>
      <point x="753" y="1145" type="curve"/>
      <point x="625" y="1076"/>
      <point x="494" y="998"/>
      <point x="397" y="899" type="curve" smooth="yes"/>
      <point x="309" y="810"/>
      <point x="236" y="696"/>
      <point x="236" y="530" type="curve" smooth="yes"/>
      <point x="236" y="438"/>
      <point x="253" y="354"/>
      <point x="291" y="282" type="curve" smooth="yes"/>
      <point x="405" y="66"/>
      <point x="653" y="-55"/>
      <point x="981" y="-55" type="curve" smooth="yes"/>
      <point x="1299" y="-55"/>
      <point x="1508" y="77"/>
      <point x="1671" y="236" type="curve"/>
      <point x="1793" y="118"/>
      <point x="1905" y="-5"/>
      <point x="2107" y="-35" type="curve"/>
      <point x="2288" y="99" type="line"/>
      <point x="2231" y="112"/>
      <point x="2180" y="124"/>
      <point x="2137" y="137" type="curve" smooth="yes"/>
      <point x="1989" y="186"/>
      <point x="1900" y="266"/>
      <point x="1799" y="370" type="curve"/>
      <point x="1951" y="564"/>
      <point x="2064" y="835"/>
      <point x="2076" y="1160" type="curve"/>
      <point x="1848" y="1188" type="line"/>
      <point x="1848" y="1131"/>
      <point x="1843" y="1074"/>
      <point x="1833" y="1014" type="curve" smooth="yes"/>
      <point x="1802" y="826"/>
      <point x="1732" y="655"/>
      <point x="1641" y="525" type="curve"/>
      <point x="1074" y="1104" type="line"/>
      <point x="1181" y="1161"/>
      <point x="1287" y="1231"/>
      <point x="1365" y="1316" type="curve" smooth="yes"/>
      <point x="1431" y="1386"/>
      <point x="1493" y="1478"/>
      <point x="1493" y="1604" type="curve" smooth="yes"/>
      <point x="1493" y="1670"/>
      <point x="1479" y="1726"/>
      <point x="1449" y="1776" type="curve" smooth="yes"/>
      <point x="1366" y="1912"/>
      <point x="1198" y="1993"/>
      <point x="981" y="1993" type="curve" smooth="yes"/>
    </contour>
    <contour>
      <point x="1203" y="696" type="line" smooth="yes"/>
      <point x="1297" y="602"/>
      <point x="1399" y="494"/>
      <point x="1491" y="406" type="curve" smooth="yes"/>
      <point x="1509" y="388"/>
      <point x="1521" y="379"/>
      <point x="1523" y="379" type="curve"/>
      <point x="1391" y="250"/>
      <point x="1237" y="140"/>
      <point x="977" y="140" type="curve" smooth="yes"/>
      <point x="905" y="140"/>
      <point x="838" y="150"/>
      <point x="778" y="170" type="curve" smooth="yes"/>
      <point x="622" y="222"/>
      <point x="481" y="335"/>
      <point x="481" y="536" type="curve" smooth="yes"/>
      <point x="481" y="595"/>
      <point x="493" y="648"/>
      <point x="515" y="694" type="curve" smooth="yes"/>
      <point x="589" y="844"/>
      <point x="741" y="929"/>
      <point x="890" y="1006" type="curve"/>
    </contour>
    <contour>
      <point x="1139" y="1811"/>
      <point x="1260" y="1739"/>
      <point x="1260" y="1590" type="curve" smooth="yes"/>
      <point x="1260" y="1552"/>
      <point x="1250" y="1516"/>
      <point x="1231" y="1482" type="curve" smooth="yes"/>
      <point x="1169" y="1370"/>
      <point x="1048" y="1296"/>
      <point x="932" y="1235" type="curve"/>
      <point x="901" y="1264"/>
      <point x="873" y="1291"/>
      <point x="847" y="1318" type="curve" smooth="yes"/>
      <point x="785" y="1385"/>
      <point x="723" y="1466"/>
      <point x="723" y="1590" type="curve" smooth="yes"/>
      <point x="723" y="1740"/>
      <point x="842" y="1811"/>
      <point x="992" y="1811" type="curve" smooth="yes"/>
    </contour>
  </outline>
</glyph>
<glyph name="quotesingle" format="1">
  <advance width="392"/>
  <unicode hex="0027"/>
  <outline>
    <contour>
      <point x="137" y="1742" type="line"/>
      <point x="290" y="1742" type="line"/>
      <point x="290" y="2284" type="line"/>
      <point x="95" y="2284" type="line"/>
    </contour>
  </outline>
</glyph>
<glyph name="parenleft" format="1">
  <advance width="669"/>
  <unicode hex="0028"/>
  <outline>
    <contour>
      <point x="356" y="-316" type="curve"/>
      <point x="619" y="-316" type="line"/>
      <point x="446" y="56"/>
      <point x="362" y="363"/>
      <point x="362" y="670" type="curve" smooth="yes"/>
      <point x="362" y="987"/>
      <point x="453" y="1303"/>
      <point x="631" y="1692" type="curve"/>
      <point x="368" y="1692" type="line"/>
      <point x="160" y="1305"/>
      <point x="54" y="989"/>
      <point x="54" y="673" type="curve" smooth="yes"/>
      <point x="54" y="365"/>
      <point x="154" y="56"/>
    </contour>
  </outline>
</glyph>
<glyph name="parenright" format="1">
  <advance width="1286"/>
  <unicode hex="0029"/>
  <outline>
    <contour>
      <point x="86" y="1968" type="line"/>
      <point x="292" y="1516"/>
      <point x="399" y="1148"/>
      <point x="399" y="779" type="curve" smooth="yes"/>
      <point x="399" y="422"/>
      <point x="301" y="66"/>
      <point x="99" y="-367" type="curve"/>
      <point x="405" y="-367" type="line"/>
      <point x="641" y="66"/>
      <point x="757" y="424"/>
      <point x="757" y="782" type="curve" smooth="yes"/>
      <point x="757" y="1149"/>
      <point x="633" y="1518"/>
      <point x="392" y="1968" type="curve"/>
    </contour>
  </outline>
</glyph>
<glyph name="asterisk" format="1">
  <advance width="2181"/>
  <unicode hex="002A"/>
  <outline>
    <contour>
      <point x="719" y="2484" type="line"/>
      <point x="737" y="2348"/>
      <point x="757" y="2207"/>
      <point x="775" y="2070" type="curve"/>
      <point x="387" y="2238" type="line"/>
      <point x="358" y="2054" type="line"/>
      <point x="731" y="1948" type="line"/>
      <point x="470" y="1622" type="line"/>
      <point x="639" y="1520" type="line"/>
      <point x="849" y="1872" type="line"/>
      <point x="1064" y="1509" type="line"/>
      <point x="1236" y="1609" type="line"/>
      <point x="962" y="1952" type="line"/>
      <point x="1321" y="2072" type="line"/>
      <point x="1233" y="2242" type="line"/>
      <point x="913" y="2077" type="line"/>
      <point x="913" y="2484" type="line"/>
    </contour>
  </outline>
</glyph>
<glyph name="plus" format="1">
  <advance width="1723"/>
  <unicode hex="002B"/>
  <outline>
    <contour>
      <point x="772" y="109" type="line"/>
      <point x="947" y="109" type="line"/>
      <point x="947" y="605" type="line"/>
      <point x="1437" y="605" type="line"/>
      <point x="1437" y="769" type="line"/>
      <point x="949" y="769" type="line"/>
      <point x="949" y="1266" type="line"/>
      <point x="775" y="1266" type="line"/>
      <point x="775" y="769" type="line"/>
      <point x="286" y="769" type="line"/>
      <point x="286" y="605" type="line"/>
      <point x="772" y="605" type="line"/>
    </contour>
  </outline>
</glyph>
<glyph name="comma" format="1">
  <advance width="522"/>
  <unicode hex="002C"/>
  <outline>
    <contour>
      <point x="58" y="-331" type="line"/>
      <point x="242" y="-331" type="line"/>
      <point x="432" y="213" type="line"/>
      <point x="183" y="213" type="line"/>
    </contour>
  </outline>
</glyph>
<glyph name="hyphen" format="1">
  <advance width="858"/>
  <unicode hex="002D"/>
  <outline>
    <contour>
      <point x="144" y="545" type="line"/>
      <point x="714" y="545" type="line"/>
      <point x="714" y="715" type="line"/>
      <point x="144" y="715" type="line"/>
    </contour>
  </outline>
</glyph>
<glyph name="period" format="1">
  <advance width="648"/>
  <unicode hex="002E"/>
  <outline>
    <contour>
      <point x="319" y="0" type="curve" smooth="yes"/>
      <point x="223" y="0"/>
      <point x="154" y="68"/>
      <point x="154" y="163" type="curve" smooth="yes"/>
      <point x="154" y="255"/>
      <point x="223" y="322"/>
      <point x="319" y="322" type="curve" smooth="yes"/>
      <point x="415" y="322"/>
      <point x="484" y="255"/>
      <point x="484" y="160" type="curve" smooth="yes"/>
      <point x="484" y="66"/>
      <point x="415" y="0"/>
    </contour>
  </outline>
</glyph>
<glyph name="slash" format="1">
  <advance width="1468"/>
  <unicode hex="002F"/>
  <outline>
    <contour>
      <point x="640" y="1488" type="line"/>
      <point x="-96" y="-440" type="line"/>
      <point x="93" y="-440" type="line"/>
      <point x="834" y="1488" type="line"/>
    </contour>
  </outline>
</glyph>
<glyph name="zero" format="1">
  <advance width="2497"/>
  <unicode hex="0030"/>
  <outline>
    <contour>
      <point x="334" y="1661"/>
      <point x="68" y="1317"/>
      <point x="68" y="801" type="curve" smooth="yes"/>
      <point x="68" y="292"/>
      <point x="334" y="-47"/>
      <point x="732" y="-47" type="curve" smooth="yes"/>
      <point x="1133" y="-47"/>
      <point x="1402" y="292"/>
      <point x="1402" y="801" type="curve" smooth="yes"/>
      <point x="1402" y="1317"/>
      <point x="1133" y="1661"/>
      <point x="732" y="1661" type="curve" smooth="yes"/>
    </contour>
    <contour>
      <point x="939" y="1406"/>
      <point x="1076" y="1164"/>
      <point x="1076" y="801" type="curve" smooth="yes"/>
      <point x="1076" y="445"/>
      <point x="939" y="207"/>
      <point x="732" y="207" type="curve" smooth="yes"/>
      <point x="523" y="207"/>
      <point x="385" y="445"/>
      <point x="385" y="801" type="curve" smooth="yes"/>
      <point x="385" y="1164"/>
      <point x="523" y="1406"/>
      <point x="732" y="1406" type="curve" smooth="yes"/>
    </contour>
  </outline>
</glyph>
<glyph name="one" format="1">
  <advance width="1254"/>
  <unicode hex="0031"/>
  <outline>
    <contour>
      <point x="577" y="0" type="line"/>
      <point x="845" y="0" type="line"/>
      <point x="845" y="1448" type="line"/>
      <point x="583" y="1448" type="line"/>
      <point x="516" y="1397"/>
      <point x="375" y="1314"/>
      <point x="259" y="1262" type="curve"/>
      <point x="319" y="1091" type="line"/>
      <point x="425" y="1135"/>
      <point x="511" y="1182"/>
      <point x="577" y="1233" type="curve"/>
    </contour>
  </outline>
</glyph>
<glyph name="two" format="1">
  <advance width="2556"/>
  <unicode hex="0032"/>
  <outline>
    <contour>
      <point x="1020" y="1721"/>
      <point x="725" y="1721" type="curve" smooth="yes"/>
      <point x="474" y="1721"/>
      <point x="220" y="1613"/>
      <point x="129" y="1406" type="curve"/>
      <point x="322" y="1247" type="line"/>
      <point x="408" y="1394"/>
      <point x="567" y="1465"/>
      <point x="708" y="1465" type="curve" smooth="yes"/>
      <point x="854" y="1465"/>
      <point x="979" y="1389"/>
      <point x="979" y="1219" type="curve" smooth="yes"/>
      <point x="979" y="867"/>
      <point x="423" y="459"/>
      <point x="170" y="230" type="curve"/>
      <point x="171" y="0" type="line"/>
      <point x="1254" y="0" type="line"/>
      <point x="1254" y="250" type="line"/>
      <point x="582" y="250" type="line"/>
      <point x="735" y="391"/>
      <point x="1308" y="794"/>
      <point x="1308" y="1222" type="curve" smooth="yes"/>
      <point x="1308" y="1569"/>
    </contour>
  </outline>
</glyph>
<glyph name="three" format="1">
  <advance width="2437"/>
  <unicode hex="0033"/>
  <outline>
    <contour>
      <point x="989" y="1700"/>
      <point x="713" y="1700" type="curve" smooth="yes"/>
      <point x="513" y="1700"/>
      <point x="300" y="1621"/>
      <point x="166" y="1465" type="curve"/>
      <point x="326" y="1287" type="line"/>
      <point x="413" y="1393"/>
      <point x="552" y="1446"/>
      <point x="680" y="1446" type="curve" smooth="yes"/>
      <point x="829" y="1446"/>
      <point x="971" y="1375"/>
      <point x="971" y="1204" type="curve"/>
      <point x="971" y="985"/>
      <point x="741" y="966"/>
      <point x="588" y="966" type="curve" smooth="yes"/>
      <point x="515" y="966" type="line"/>
      <point x="518" y="724" type="line"/>
      <point x="607" y="726" type="line"/>
      <point x="607" y="727" type="line"/>
      <point x="621" y="727"/>
      <point x="635" y="729"/>
      <point x="648" y="729" type="curve" smooth="yes"/>
      <point x="845" y="729"/>
      <point x="1022" y="678"/>
      <point x="1022" y="438" type="curve" smooth="yes"/>
      <point x="1022" y="311"/>
      <point x="899" y="208"/>
      <point x="727" y="208" type="curve" smooth="yes"/>
      <point x="600" y="208"/>
      <point x="447" y="264"/>
      <point x="293" y="404" type="curve"/>
      <point x="185" y="194" type="line"/>
      <point x="300" y="37"/>
      <point x="509" y="-43"/>
      <point x="716" y="-43" type="curve" smooth="yes"/>
      <point x="1005" y="-43"/>
      <point x="1285" y="115"/>
      <point x="1285" y="435" type="curve" smooth="yes"/>
      <point x="1285" y="727"/>
      <point x="1091" y="838"/>
      <point x="999" y="868" type="curve"/>
      <point x="1085" y="910"/>
      <point x="1241" y="1010"/>
      <point x="1241" y="1238" type="curve" smooth="yes"/>
      <point x="1241" y="1550"/>
    </contour>
  </outline>
</glyph>
<glyph name="four" format="1">
  <advance width="1296"/>
  <unicode hex="0034"/>
  <outline>
    <contour>
      <point x="708" y="0" type="line"/>
      <point x="959" y="0" type="line"/>
      <point x="959" y="322" type="line"/>
      <point x="1144" y="322" type="line"/>
      <point x="1144" y="520" type="line"/>
      <point x="959" y="520" type="line"/>
      <point x="959" y="1448" type="line"/>
      <point x="683" y="1448" type="line"/>
      <point x="149" y="513" type="line"/>
      <point x="149" y="322" type="line"/>
      <point x="708" y="322" type="line"/>
    </contour>
    <contour>
      <point x="379" y="520" type="line"/>
      <point x="582" y="874" type="line"/>
      <point x="708" y="1111" type="line"/>
      <point x="708" y="520" type="line"/>
    </contour>
  </outline>
</glyph>
<glyph name="five" format="1">
  <advance width="1254"/>
  <unicode hex="0035"/>
  <outline>
    <contour>
      <point x="194" y="158" type="line"/>
      <point x="307" y="26"/>
      <point x="469" y="-33"/>
      <point x="627" y="-32" type="curve" smooth="yes"/>
      <point x="892" y="-29"/>
      <point x="1147" y="144"/>
      <point x="1147" y="433" type="curve" smooth="yes"/>
      <point x="1147" y="773"/>
      <point x="930" y="928"/>
      <point x="726" y="929" type="curve" smooth="yes"/>
      <point x="629" y="930"/>
      <point x="534" y="896"/>
      <point x="467" y="831" type="curve"/>
      <point x="482" y="1205" type="line"/>
      <point x="1038" y="1205" type="line"/>
      <point x="1038" y="1404" type="line"/>
      <point x="250" y="1404" type="line"/>
      <point x="250" y="624" type="line"/>
      <point x="425" y="624" type="line"/>
      <point x="499" y="698"/>
      <point x="586" y="734"/>
      <point x="665" y="733" type="curve" smooth="yes"/>
      <point x="795" y="731"/>
      <point x="904" y="631"/>
      <point x="904" y="436" type="curve" smooth="yes"/>
      <point x="904" y="305"/>
      <point x="785" y="186"/>
      <point x="621" y="187" type="curve" smooth="yes"/>
      <point x="520" y="188"/>
      <point x="401" y="235"/>
      <point x="284" y="353" type="curve"/>
    </contour>
  </outline>
</glyph>
<glyph name="six" format="1">
  <advance width="1206"/>
  <unicode hex="0036"/>
  <outline>
    <contour>
      <point x="607.0" y="-35.0" type="curve" smooth="yes"/>
      <point x="862.0" y="-35.0"/>
      <point x="1114.0" y="127.0"/>
      <point x="1114.0" y="455.0" type="curve" smooth="yes"/>
      <point x="1114.0" y="722.0"/>
      <point x="908.0" y="933.0"/>
      <point x="629.0" y="933.0" type="curve" smooth="yes"/>
      <point x="572.0" y="933.0"/>
      <point x="467" y="909"/>
      <point x="424" y="864" type="curve"/>
      <point x="459" y="966"/>
      <point x="631" y="1232"/>
      <point x="854" y="1458" type="curve"/>
      <point x="647.0" y="1571.0" type="line"/>
      <point x="167" y="1087"/>
      <point x="92" y="778"/>
      <point x="92.0" y="459.0" type="curve" smooth="yes"/>
      <point x="92" y="130"/>
      <point x="351.0" y="-35.0"/>
    </contour>
    <contour>
      <point x="596.0" y="168.0" type="curve" smooth="yes"/>
      <point x="454.0" y="168.0"/>
      <point x="312.0" y="260.0"/>
      <point x="312.0" y="442.0" type="curve" smooth="yes"/>
      <point x="312.0" y="640.0"/>
      <point x="452.0" y="736.0"/>
      <point x="592.0" y="736.0" type="curve" smooth="yes"/>
      <point x="735.0" y="736.0"/>
      <point x="878.0" y="636.0"/>
      <point x="878.0" y="440.0" type="curve" smooth="yes"/>
      <point x="878.0" y="259.0"/>
      <point x="737.0" y="168.0"/>
    </contour>
  </outline>
</glyph>
<glyph name="seven" format="1">
  <advance width="1296"/>
  <unicode hex="0037"/>
  <outline>
    <contour>
      <point x="330" y="0" type="line"/>
      <point x="609" y="0" type="line"/>
      <point x="1068" y="1232" type="line"/>
      <point x="1068" y="1413" type="line"/>
      <point x="163" y="1413" type="line"/>
      <point x="163" y="1214" type="line"/>
      <point x="775" y="1214" type="line"/>
    </contour>
  </outline>
</glyph>
<glyph name="eight" format="1">
  <advance width="2449"/>
  <unicode hex="0038"/>
  <outline>
    <contour>
      <point x="710" y="1661"/>
      <point x="643" y="1650"/>
      <point x="577" y="1632" type="curve" smooth="yes"/>
      <point x="405" y="1581"/>
      <point x="254" y="1461"/>
      <point x="254" y="1242" type="curve" smooth="yes"/>
      <point x="254" y="1018"/>
      <point x="396" y="900"/>
      <point x="578" y="844" type="curve"/>
      <point x="371" y="783"/>
      <point x="213" y="650"/>
      <point x="213" y="405" type="curve" smooth="yes"/>
      <point x="213" y="332"/>
      <point x="229" y="267"/>
      <point x="260" y="211" type="curve" smooth="yes"/>
      <point x="349" y="51"/>
      <point x="538" y="-47"/>
      <point x="785" y="-47" type="curve" smooth="yes"/>
      <point x="945" y="-47"/>
      <point x="1087" y="-0"/>
      <point x="1183" y="70" type="curve" smooth="yes"/>
      <point x="1280" y="139"/>
      <point x="1356" y="245"/>
      <point x="1356" y="405" type="curve" smooth="yes"/>
      <point x="1356" y="650"/>
      <point x="1198" y="783"/>
      <point x="990" y="844" type="curve"/>
      <point x="1173" y="900"/>
      <point x="1316" y="1018"/>
      <point x="1316" y="1242" type="curve" smooth="yes"/>
      <point x="1316" y="1308"/>
      <point x="1302" y="1367"/>
      <point x="1274" y="1419" type="curve" smooth="yes"/>
      <point x="1194" y="1572"/>
      <point x="1017" y="1661"/>
      <point x="785" y="1661" type="curve" smooth="yes"/>
    </contour>
    <contour>
      <point x="966" y="722"/>
      <point x="1151" y="635"/>
      <point x="1151" y="419" type="curve" smooth="yes"/>
      <point x="1151" y="369"/>
      <point x="1143" y="327"/>
      <point x="1124" y="289" type="curve" smooth="yes"/>
      <point x="1070" y="178"/>
      <point x="949" y="117"/>
      <point x="785" y="117" type="curve" smooth="yes"/>
      <point x="577" y="117"/>
      <point x="417" y="212"/>
      <point x="417" y="419" type="curve" smooth="yes"/>
      <point x="417" y="467"/>
      <point x="427" y="508"/>
      <point x="446" y="545" type="curve" smooth="yes"/>
      <point x="505" y="664"/>
      <point x="634" y="728"/>
      <point x="785" y="758" type="curve"/>
    </contour>
    <contour>
      <point x="965" y="1503"/>
      <point x="1116" y="1417"/>
      <point x="1116" y="1236" type="curve" smooth="yes"/>
      <point x="1116" y="1040"/>
      <point x="966" y="962"/>
      <point x="785" y="928" type="curve"/>
      <point x="603" y="962"/>
      <point x="453" y="1040"/>
      <point x="453" y="1236" type="curve" smooth="yes"/>
      <point x="453" y="1279"/>
      <point x="461" y="1317"/>
      <point x="479" y="1350" type="curve" smooth="yes"/>
      <point x="530" y="1447"/>
      <point x="640" y="1503"/>
      <point x="785" y="1503" type="curve" smooth="yes"/>
    </contour>
  </outline>
</glyph>
<glyph name="nine" format="1">
  <advance width="1206"/>
  <unicode hex="0039"/>
  <outline>
    <contour>
      <point x="615" y="701" type="curve" smooth="yes"/>
      <point x="472" y="701"/>
      <point x="329" y="802"/>
      <point x="329" y="998" type="curve" smooth="yes"/>
      <point x="329" y="1180"/>
      <point x="469" y="1271"/>
      <point x="610" y="1271" type="curve" smooth="yes"/>
      <point x="752" y="1271"/>
      <point x="895" y="1178"/>
      <point x="895" y="996" type="curve" smooth="yes"/>
      <point x="895" y="799"/>
      <point x="754" y="701"/>
    </contour>
    <contour>
      <point x="560" y="-132" type="line"/>
      <point x="936" y="498" type="line" smooth="yes"/>
      <point x="1019" y="636"/>
      <point x="1114" y="854"/>
      <point x="1114" y="979" type="curve" smooth="yes"/>
      <point x="1114" y="1308"/>
      <point x="857" y="1474"/>
      <point x="601" y="1474" type="curve" smooth="yes"/>
      <point x="346" y="1474"/>
      <point x="92" y="1313"/>
      <point x="92" y="984" type="curve" smooth="yes"/>
      <point x="92" y="718"/>
      <point x="298" y="506"/>
      <point x="578" y="506" type="curve" smooth="yes"/>
      <point x="636" y="506"/>
      <point x="662" y="510"/>
      <point x="674" y="516" type="curve"/>
      <point x="353" y="-19" type="line"/>
    </contour>
  </outline>
</glyph>
<glyph name="colon" format="1">
  <advance width="1106"/>
  <unicode hex="003A"/>
  <outline>
    <contour>
      <point x="326" y="1427" type="line"/>
      <point x="326" y="1140" type="line"/>
      <point x="622" y="1140" type="line"/>
      <point x="622" y="1427" type="line"/>
    </contour>
    <contour>
      <point x="326" y="264" type="line"/>
      <point x="326" y="-23" type="line"/>
      <point x="622" y="-23" type="line"/>
      <point x="622" y="264" type="line"/>
    </contour>
  </outline>
</glyph>
<glyph name="semicolon" format="1">
  <advance width="441"/>
  <unicode hex="003B"/>
  <outline>
    <contour>
      <point x="46" y="-451" type="line"/>
      <point x="200" y="-451" type="line"/>
      <point x="391" y="93" type="line"/>
      <point x="171" y="93" type="line"/>
    </contour>
    <contour>
      <point x="116" y="837" type="line"/>
      <point x="371" y="837" type="line"/>
      <point x="371" y="1084" type="line"/>
      <point x="171" y="1084" type="line"/>
    </contour>
  </outline>
</glyph>
<glyph name="less" format="1">
  <advance width="1105"/>
  <unicode hex="003C"/>
  <outline>
    <contour>
      <point x="1048" y="84" type="line"/>
      <point x="1048" y="236" type="line"/>
      <point x="267" y="586" type="line"/>
      <point x="1052" y="947" type="line"/>
      <point x="1052" y="1098" type="line"/>
      <point x="49" y="629" type="line"/>
      <point x="49" y="542" type="line"/>
    </contour>
  </outline>
</glyph>
<glyph name="equal" format="1">
  <advance width="1296"/>
  <unicode hex="003D"/>
  <outline>
    <contour>
      <point x="218" y="450" type="line"/>
      <point x="1079" y="450" type="line"/>
      <point x="1079" y="590" type="line"/>
      <point x="218" y="590" type="line"/>
    </contour>
    <contour>
      <point x="217" y="853" type="line"/>
      <point x="1079" y="853" type="line"/>
      <point x="1079" y="996" type="line"/>
      <point x="217" y="996" type="line"/>
    </contour>
  </outline>
</glyph>
<glyph name="greater" format="1">
  <advance width="2986"/>
  <unicode hex="003E"/>
  <outline>
    <contour>
      <point x="446" y="1123" type="line"/>
      <point x="1353" y="694" type="line"/>
      <point x="440" y="297" type="line"/>
      <point x="440" y="119" type="line"/>
      <point x="1609" y="636" type="line"/>
      <point x="1609" y="739" type="line"/>
      <point x="446" y="1300" type="line"/>
    </contour>
  </outline>
</glyph>
<glyph name="question" format="1">
  <advance width="1200"/>
  <unicode hex="003F"/>
  <outline>
    <contour>
      <point x="458" y="366" type="curve"/>
      <point x="572" y="366" type="line"/>
      <point x="572" y="738"/>
      <point x="1009" y="771"/>
      <point x="1009" y="1127" type="curve" smooth="yes"/>
      <point x="1009" y="1367"/>
      <point x="825" y="1470"/>
      <point x="605" y="1470" type="curve" smooth="yes"/>
      <point x="502" y="1470"/>
      <point x="389" y="1449"/>
      <point x="286" y="1406" type="curve"/>
      <point x="317" y="1241" type="line"/>
      <point x="391" y="1283"/>
      <point x="482" y="1310"/>
      <point x="565" y="1310" type="curve" smooth="yes"/>
      <point x="687" y="1310"/>
      <point x="790" y="1251"/>
      <point x="790" y="1100" type="curve" smooth="yes"/>
      <point x="790" y="891"/>
      <point x="458" y="846"/>
      <point x="458" y="408" type="curve" smooth="yes"/>
      <point x="458" y="393"/>
      <point x="457" y="380"/>
    </contour>
    <contour>
      <point x="510" y="0" type="curve" smooth="yes"/>
      <point x="599" y="0"/>
      <point x="663" y="63"/>
      <point x="663" y="148" type="curve" smooth="yes"/>
      <point x="663" y="235"/>
      <point x="600" y="298"/>
      <point x="512" y="298" type="curve" smooth="yes"/>
      <point x="423" y="298"/>
      <point x="358" y="235"/>
      <point x="358" y="150" type="curve" smooth="yes"/>
      <point x="358" y="63"/>
      <point x="421" y="0"/>
    </contour>
  </outline>
</glyph>
<glyph name="at" format="1">
  <advance width="1959"/>
  <unicode hex="0040"/>
  <outline>
    <contour>
      <point x="1026" y="-192" type="curve" smooth="yes"/>
      <point x="1213" y="-192"/>
      <point x="1408" y="-146"/>
      <point x="1583" y="-51" type="curve"/>
      <point x="1493" y="88" type="line"/>
      <point x="1357" y="17"/>
      <point x="1205" y="-19"/>
      <point x="1057" y="-19" type="curve" smooth="yes"/>
      <point x="706" y="-19"/>
      <point x="380" y="183"/>
      <point x="380" y="598" type="curve" smooth="yes"/>
      <point x="380" y="1012"/>
      <point x="716" y="1214"/>
      <point x="1038" y="1214" type="curve" smooth="yes"/>
      <point x="1332" y="1214"/>
      <point x="1614" y="1044"/>
      <point x="1614" y="709" type="curve" smooth="yes"/>
      <point x="1614" y="416"/>
      <point x="1494" y="303"/>
      <point x="1405" y="303" type="curve" smooth="yes"/>
      <point x="1354" y="303"/>
      <point x="1314" y="340"/>
      <point x="1314" y="400" type="curve" smooth="yes"/>
      <point x="1314" y="417"/>
      <point x="1368" y="664"/>
      <point x="1449" y="1018" type="curve"/>
      <point x="1265" y="1018" type="line"/>
      <point x="1226" y="933" type="line"/>
      <point x="1158" y="1015"/>
      <point x="1075" y="1049"/>
      <point x="988" y="1049" type="curve" smooth="yes"/>
      <point x="768" y="1049"/>
      <point x="533" y="822"/>
      <point x="533" y="544" type="curve" smooth="yes"/>
      <point x="533" y="308"/>
      <point x="684" y="171"/>
      <point x="848" y="171" type="curve" smooth="yes"/>
      <point x="953" y="171"/>
      <point x="1062" y="227"/>
      <point x="1140" y="348" type="curve"/>
      <point x="1141" y="224"/>
      <point x="1253" y="170"/>
      <point x="1366" y="170" type="curve" smooth="yes"/>
      <point x="1636" y="170"/>
      <point x="1815" y="383"/>
      <point x="1815" y="704" type="curve" smooth="yes"/>
      <point x="1815" y="1162"/>
      <point x="1436" y="1386"/>
      <point x="1040" y="1386" type="curve" smooth="yes"/>
      <point x="602" y="1386"/>
      <point x="144" y="1156"/>
      <point x="144" y="593" type="curve" smooth="yes"/>
      <point x="144" y="86"/>
      <point x="564" y="-192"/>
    </contour>
    <contour>
      <point x="909" y="337" type="curve" smooth="yes"/>
      <point x="834" y="337"/>
      <point x="771" y="398"/>
      <point x="771" y="523" type="curve" smooth="yes"/>
      <point x="771" y="755"/>
      <point x="925" y="895"/>
      <point x="1040" y="895" type="curve" smooth="yes"/>
      <point x="1106" y="895"/>
      <point x="1160" y="847"/>
      <point x="1160" y="740" type="curve" smooth="yes"/>
      <point x="1160" y="473"/>
      <point x="1020" y="337"/>
    </contour>
  </outline>
</glyph>
<glyph name="A" format="1">
  <advance width="1517"/>
  <unicode hex="0041"/>
  <outline>
    <contour>
      <point x="72" y="0" type="line"/>
      <point x="346" y="0" type="line"/>
      <point x="471" y="335" type="line"/>
      <point x="1039" y="335" type="line"/>
      <point x="1160" y="0" type="line"/>
      <point x="1445" y="0" type="line"/>
      <point x="883" y="1448" type="line"/>
      <point x="640" y="1448" type="line"/>
    </contour>
    <contour>
      <point x="545" y="533" type="line"/>
      <point x="626" y="750" type="line"/>
      <point x="755" y="1121" type="line"/>
      <point x="889" y="750" type="line"/>
      <point x="967" y="533" type="line"/>
    </contour>
  </outline>
</glyph>
<glyph name="B" format="1">
  <advance width="1331"/>
  <unicode hex="0042"/>
  <outline>
    <contour>
      <point x="99" y="0" type="line"/>
      <point x="655" y="0" type="line" smooth="yes"/>
      <point x="1069" y="0"/>
      <point x="1246" y="127"/>
      <point x="1246" y="420" type="curve" smooth="yes"/>
      <point x="1246" y="633"/>
      <point x="1155" y="740"/>
      <point x="943" y="775" type="curve"/>
      <point x="1112" y="823"/>
      <point x="1183" y="920"/>
      <point x="1183" y="1100" type="curve" smooth="yes"/>
      <point x="1183" y="1345"/>
      <point x="1005" y="1448"/>
      <point x="589" y="1448" type="curve" smooth="yes"/>
      <point x="99" y="1448" type="line"/>
    </contour>
    <contour>
      <point x="358" y="201" type="line"/>
      <point x="358" y="657" type="line"/>
      <point x="633" y="657" type="line" smooth="yes"/>
      <point x="890" y="657"/>
      <point x="1000" y="590"/>
      <point x="1000" y="433" type="curve" smooth="yes"/>
      <point x="1000" y="268"/>
      <point x="895" y="201"/>
      <point x="648" y="201" type="curve" smooth="yes"/>
    </contour>
    <contour>
      <point x="358" y="841" type="line"/>
      <point x="358" y="1248" type="line"/>
      <point x="589" y="1248" type="line" smooth="yes"/>
      <point x="833" y="1248"/>
      <point x="937" y="1195"/>
      <point x="937" y="1062" type="curve" smooth="yes"/>
      <point x="937" y="907"/>
      <point x="837" y="841"/>
      <point x="603" y="841" type="curve" smooth="yes"/>
    </contour>
  </outline>
</glyph>
<glyph name="C" format="1">
  <advance width="1475"/>
  <unicode hex="0043"/>
  <outline>
    <contour>
      <point x="896" y="-22" type="curve" smooth="yes"/>
      <point x="1071" y="-22"/>
      <point x="1278" y="36"/>
      <point x="1387" y="125" type="curve"/>
      <point x="1309" y="327" type="line"/>
      <point x="1210" y="248"/>
      <point x="1056" y="196"/>
      <point x="922" y="196" type="curve" smooth="yes"/>
      <point x="584" y="196"/>
      <point x="396" y="405"/>
      <point x="396" y="719" type="curve" smooth="yes"/>
      <point x="396" y="1032"/>
      <point x="586" y="1252"/>
      <point x="907" y="1252" type="curve" smooth="yes"/>
      <point x="1054" y="1252"/>
      <point x="1209" y="1183"/>
      <point x="1284" y="1122" type="curve"/>
      <point x="1371" y="1314" type="line"/>
      <point x="1248" y="1409"/>
      <point x="1082" y="1470"/>
      <point x="917" y="1470" type="curve" smooth="yes"/>
      <point x="453" y="1470"/>
      <point x="140" y="1172"/>
      <point x="140" y="720" type="curve" smooth="yes"/>
      <point x="140" y="274"/>
      <point x="433" y="-22"/>
    </contour>
  </outline>
</glyph>
<glyph name="D" format="1">
  <advance width="1902"/>
  <unicode hex="0044"/>
  <outline>
    <contour>
      <point x="216" y="1685" type="line"/>
      <point x="216" y="0" type="line"/>
      <point x="742" y="0" type="line" smooth="yes"/>
      <point x="1434" y="0"/>
      <point x="1730" y="257"/>
      <point x="1730" y="858" type="curve" smooth="yes"/>
      <point x="1730" y="1437"/>
      <point x="1413" y="1685"/>
      <point x="674" y="1685" type="curve" smooth="yes"/>
    </contour>
    <contour>
      <point x="713" y="1440" type="line" smooth="yes"/>
      <point x="1207" y="1440"/>
      <point x="1419" y="1265"/>
      <point x="1419" y="855" type="curve" smooth="yes"/>
      <point x="1419" y="428"/>
      <point x="1222" y="245"/>
      <point x="761" y="245" type="curve" smooth="yes"/>
      <point x="526" y="245" type="line"/>
      <point x="526" y="1440" type="line"/>
    </contour>
    <contour>
      <point x="386" y="882" type="move" name="center"/>
    </contour>
    <contour>
      <point x="885" y="1685" type="move" name="top"/>
    </contour>
  </outline>
</glyph>
<glyph name="E" format="1">
  <advance width="1468"/>
  <unicode hex="0045"/>
  <outline>
    <contour>
      <point x="216" y="1685" type="line"/>
      <point x="216" y="0" type="line"/>
      <point x="1329" y="0" type="line"/>
      <point x="1329" y="245" type="line"/>
      <point x="517" y="245" type="line"/>
      <point x="517" y="747" type="line"/>
      <point x="1227" y="747" type="line"/>
      <point x="1227" y="974" type="line"/>
      <point x="517" y="974" type="line"/>
      <point x="517" y="1440" type="line"/>
      <point x="1271" y="1440" type="line"/>
      <point x="1271" y="1685" type="line"/>
    </contour>
    <contour>
      <point x="973" y="0" type="move" name="ogonek"/>
    </contour>
    <contour>
      <point x="785" y="0" type="move" name="bottom"/>
    </contour>
    <contour>
      <point x="777" y="1685" type="move" name="top"/>
    </contour>
  </outline>
</glyph>
<glyph name="F" format="1">
  <advance width="1127"/>
  <unicode hex="0046"/>
  <outline>
    <contour>
      <point x="154" y="0" type="line"/>
      <point x="413" y="0" type="line"/>
      <point x="413" y="664" type="line"/>
      <point x="1009" y="664" type="line"/>
      <point x="1009" y="861" type="line"/>
      <point x="413" y="861" type="line"/>
      <point x="413" y="1238" type="line"/>
      <point x="1042" y="1238" type="line"/>
      <point x="1042" y="1448" type="line"/>
      <point x="154" y="1448" type="line"/>
    </contour>
  </outline>
</glyph>
<glyph name="G" format="1">
  <advance width="1542"/>
  <unicode hex="0047"/>
  <outline>
    <contour>
      <point x="885" y="-26" type="curve" smooth="yes"/>
      <point x="1072" y="-26"/>
      <point x="1283" y="12"/>
      <point x="1415" y="74" type="curve"/>
      <point x="1415" y="773" type="line"/>
      <point x="854" y="773" type="line"/>
      <point x="854" y="595" type="line"/>
      <point x="1188" y="595" type="line"/>
      <point x="1188" y="238" type="line"/>
      <point x="1118" y="209"/>
      <point x="1003" y="191"/>
      <point x="898" y="191" type="curve" smooth="yes"/>
      <point x="581" y="191"/>
      <point x="369" y="391"/>
      <point x="369" y="701" type="curve" smooth="yes"/>
      <point x="369" y="1033"/>
      <point x="594" y="1256"/>
      <point x="930" y="1256" type="curve" smooth="yes"/>
      <point x="1049" y="1256"/>
      <point x="1203" y="1214"/>
      <point x="1319" y="1153" type="curve"/>
      <point x="1401" y="1338" type="line"/>
      <point x="1268" y="1420"/>
      <point x="1068" y="1474"/>
      <point x="902" y="1474" type="curve" smooth="yes"/>
      <point x="419" y="1474"/>
      <point x="96" y="1159"/>
      <point x="96" y="687" type="curve" smooth="yes"/>
      <point x="96" y="256"/>
      <point x="411" y="-26"/>
    </contour>
    <contour>
      <point x="759" y="0" type="move" name="top"/>
    </contour>
    <contour>
      <point x="759" y="0" type="move" name="bottom"/>
    </contour>
  </outline>
</glyph>
<glyph name="H" format="1">
  <advance width="1627"/>
  <unicode hex="0048"/>
  <outline>
    <contour>
      <point x="194" y="0" type="line"/>
      <point x="444" y="0" type="line"/>
      <point x="444" y="635" type="line"/>
      <point x="1185" y="635" type="line"/>
      <point x="1185" y="0" type="line"/>
      <point x="1435" y="0" type="line"/>
      <point x="1435" y="1448" type="line"/>
      <point x="1185" y="1448" type="line"/>
      <point x="1185" y="850" type="line"/>
      <point x="444" y="850" type="line"/>
      <point x="444" y="1448" type="line"/>
      <point x="194" y="1448" type="line"/>
    </contour>
  </outline>
</glyph>
<glyph name="I" format="1">
  <advance width="469"/>
  <unicode hex="0049"/>
  <outline>
    <contour>
      <point x="105" y="0" type="line"/>
      <point x="364" y="0" type="line"/>
      <point x="364" y="1448" type="line"/>
      <point x="105" y="1448" type="line"/>
    </contour>
  </outline>
</glyph>
<glyph name="J" format="1">
  <advance width="1135"/>
  <unicode hex="004A"/>
  <outline>
    <contour>
      <point x="43" y="-114" type="line"/>
      <point x="148" y="-178"/>
      <point x="264" y="-212"/>
      <point x="373" y="-212" type="curve" smooth="yes"/>
      <point x="609" y="-212"/>
      <point x="813" y="-55"/>
      <point x="813" y="293" type="curve" smooth="yes"/>
      <point x="813" y="1238" type="line"/>
      <point x="1083" y="1238" type="line"/>
      <point x="1083" y="1448" type="line"/>
      <point x="174" y="1448" type="line"/>
      <point x="174" y="1238" type="line"/>
      <point x="554" y="1238" type="line"/>
      <point x="554" y="292" type="line" smooth="yes"/>
      <point x="554" y="109"/>
      <point x="478" y="22"/>
      <point x="350" y="22" type="curve" smooth="yes"/>
      <point x="285" y="22"/>
      <point x="205" y="45"/>
      <point x="115" y="90" type="curve"/>
    </contour>
  </outline>
</glyph>
<glyph name="K" format="1">
  <advance width="1287"/>
  <unicode hex="004B"/>
  <outline>
    <contour>
      <point x="154" y="0" type="line"/>
      <point x="413" y="0" type="line"/>
      <point x="413" y="681" type="line"/>
      <point x="978" y="0" type="line"/>
      <point x="1309" y="0" type="line"/>
      <point x="666" y="773" type="line"/>
      <point x="1275" y="1448" type="line"/>
      <point x="964" y="1448" type="line"/>
      <point x="413" y="822" type="line"/>
      <point x="413" y="1448" type="line"/>
      <point x="154" y="1448" type="line"/>
    </contour>
    <contour>
      <point x="711" y="0" type="move" name="top"/>
    </contour>
    <contour>
      <point x="711" y="0" type="move" name="bottom"/>
    </contour>
  </outline>
</glyph>
<glyph name="L" format="1">
  <advance width="1307"/>
  <unicode hex="004C"/>
  <outline>
    <contour>
      <point x="216" y="1685" type="line"/>
      <point x="216" y="0" type="line"/>
      <point x="1268" y="0" type="line"/>
      <point x="1268" y="245" type="line"/>
      <point x="517" y="245" type="line"/>
      <point x="517" y="1685" type="line"/>
    </contour>
    <contour>
      <point x="675" y="1685" type="move" name="top"/>
    </contour>
    <contour>
      <point x="719" y="0" type="move" name="bottom"/>
    </contour>
  </outline>
</glyph>
<glyph name="M" format="1">
  <advance width="2003"/>
  <unicode hex="004D"/>
  <outline>
    <contour>
      <point x="190" y="0" type="line"/>
      <point x="450" y="0" type="line"/>
      <point x="450" y="1094" type="line"/>
      <point x="556" y="875" type="line"/>
      <point x="942" y="229" type="line"/>
      <point x="1067" y="229" type="line"/>
      <point x="1456" y="863" type="line"/>
      <point x="1563" y="1077" type="line"/>
      <point x="1563" y="0" type="line"/>
      <point x="1813" y="0" type="line"/>
      <point x="1813" y="1448" type="line"/>
      <point x="1517" y="1448" type="line"/>
      <point x="1091" y="735" type="line"/>
      <point x="1007" y="569" type="line"/>
      <point x="921" y="733" type="line"/>
      <point x="498" y="1448" type="line"/>
      <point x="190" y="1448" type="line"/>
    </contour>
  </outline>
</glyph>
<glyph name="N" format="1">
  <advance width="1702"/>
  <unicode hex="004E"/>
  <outline>
    <contour>
      <point x="194" y="0" type="line"/>
      <point x="424" y="0" type="line"/>
      <point x="424" y="1111" type="line"/>
      <point x="545" y="949" type="line"/>
      <point x="1241" y="0" type="line"/>
      <point x="1508" y="0" type="line"/>
      <point x="1508" y="1448" type="line"/>
      <point x="1278" y="1448" type="line"/>
      <point x="1278" y="313" type="line"/>
      <point x="1151" y="500" type="line"/>
      <point x="458" y="1448" type="line"/>
      <point x="194" y="1448" type="line"/>
    </contour>
  </outline>
</glyph>
<glyph name="O" format="1">
  <advance width="1717"/>
  <unicode hex="004F"/>
  <outline>
    <contour>
      <point x="858" y="196" type="curve" smooth="yes"/>
      <point x="583" y="196"/>
      <point x="396" y="408"/>
      <point x="396" y="724" type="curve" smooth="yes"/>
      <point x="396" y="1046"/>
      <point x="583" y="1252"/>
      <point x="858" y="1252" type="curve" smooth="yes"/>
      <point x="1133" y="1252"/>
      <point x="1321" y="1046"/>
      <point x="1321" y="724" type="curve" smooth="yes"/>
      <point x="1321" y="408"/>
      <point x="1133" y="196"/>
    </contour>
    <contour>
      <point x="858" y="-22" type="curve" smooth="yes"/>
      <point x="1297" y="-22"/>
      <point x="1577" y="276"/>
      <point x="1577" y="726" type="curve" smooth="yes"/>
      <point x="1577" y="1172"/>
      <point x="1297" y="1470"/>
      <point x="858" y="1470" type="curve" smooth="yes"/>
      <point x="419" y="1470"/>
      <point x="140" y="1172"/>
      <point x="140" y="726" type="curve" smooth="yes"/>
      <point x="140" y="276"/>
      <point x="419" y="-22"/>
    </contour>
  </outline>
</glyph>
<glyph name="P" format="1">
  <advance width="1548"/>
  <unicode hex="0050"/>
  <outline>
    <contour>
      <point x="216" y="1685" type="line"/>
      <point x="216" y="0" type="line"/>
      <point x="526" y="0" type="line"/>
      <point x="526" y="621" type="line"/>
      <point x="774" y="621" type="line" smooth="yes"/>
      <point x="1274" y="621"/>
      <point x="1490" y="785"/>
      <point x="1490" y="1166" type="curve" smooth="yes"/>
      <point x="1490" y="1530"/>
      <point x="1267" y="1685"/>
      <point x="745" y="1685" type="curve" smooth="yes"/>
    </contour>
    <contour>
      <point x="773" y="1455" type="line" smooth="yes"/>
      <point x="1056" y="1455"/>
      <point x="1178" y="1370"/>
      <point x="1178" y="1164" type="curve" smooth="yes"/>
      <point x="1178" y="948"/>
      <point x="1063" y="857"/>
      <point x="796" y="857" type="curve" smooth="yes"/>
      <point x="526" y="857" type="line"/>
      <point x="526" y="1455" type="line"/>
    </contour>
  </outline>
</glyph>
<glyph name="Q" format="1">
  <advance width="2045"/>
  <unicode hex="0051"/>
  <outline>
    <contour>
      <point x="1119" y="-21" type="line"/>
      <point x="1207" y="-209"/>
      <point x="1334" y="-359"/>
      <point x="1468" y="-494" type="curve"/>
      <point x="1679" y="-312" type="line"/>
      <point x="1566" y="-206"/>
      <point x="1464" y="-86"/>
      <point x="1391" y="64" type="curve"/>
    </contour>
    <component base="O"/>
  </outline>
</glyph>
<glyph name="R" format="1">
  <advance width="1337"/>
  <unicode hex="0052"/>
  <outline>
    <contour>
      <point x="154" y="0" type="line"/>
      <point x="413" y="0" type="line"/>
      <point x="413" y="638" type="line"/>
      <point x="611" y="638" type="line" smooth="yes"/>
      <point x="734" y="638"/>
      <point x="809" y="571"/>
      <point x="860" y="417" type="curve"/>
      <point x="1002" y="0" type="line"/>
      <point x="1279" y="0" type="line"/>
      <point x="1136" y="408" type="line" smooth="yes"/>
      <point x="1076" y="582"/>
      <point x="1000" y="672"/>
      <point x="882" y="711" type="curve"/>
      <point x="1112" y="771"/>
      <point x="1211" y="878"/>
      <point x="1211" y="1069" type="curve" smooth="yes"/>
      <point x="1211" y="1335"/>
      <point x="1035" y="1448"/>
      <point x="625" y="1448" type="curve" smooth="yes"/>
      <point x="154" y="1448" type="line"/>
    </contour>
    <contour>
      <point x="413" y="814" type="line"/>
      <point x="413" y="1251" type="line"/>
      <point x="648" y="1251" type="line" smooth="yes"/>
      <point x="866" y="1251"/>
      <point x="960" y="1214"/>
      <point x="960" y="1054" type="curve" smooth="yes"/>
      <point x="960" y="887"/>
      <point x="863" y="814"/>
      <point x="638" y="814" type="curve" smooth="yes"/>
    </contour>
    <contour>
      <point x="700" y="0" type="move" name="top"/>
    </contour>
    <contour>
      <point x="700" y="0" type="move" name="bottom"/>
    </contour>
  </outline>
</glyph>
<glyph name="S" format="1">
  <advance width="1163"/>
  <unicode hex="0053"/>
  <outline>
    <contour>
      <point x="615" y="-26" type="curve" smooth="yes"/>
      <point x="951" y="-26"/>
      <point x="1101" y="164"/>
      <point x="1101" y="391" type="curve" smooth="yes"/>
      <point x="1101" y="594"/>
      <point x="1039" y="731"/>
      <point x="637" y="839" type="curve" smooth="yes"/>
      <point x="359" y="914"/>
      <point x="308" y="981"/>
      <point x="308" y="1070" type="curve" smooth="yes"/>
      <point x="308" y="1184"/>
      <point x="388" y="1270"/>
      <point x="600" y="1270" type="curve" smooth="yes"/>
      <point x="720" y="1270"/>
      <point x="860" y="1238"/>
      <point x="986" y="1171" type="curve"/>
      <point x="1051" y="1350" type="line"/>
      <point x="919" y="1431"/>
      <point x="747" y="1474"/>
      <point x="585" y="1474" type="curve" smooth="yes"/>
      <point x="207" y="1474"/>
      <point x="70" y="1270"/>
      <point x="70" y="1053" type="curve" smooth="yes"/>
      <point x="70" y="880"/>
      <point x="149" y="753"/>
      <point x="484" y="657" type="curve"/>
      <point x="842" y="552"/>
      <point x="871" y="496"/>
      <point x="871" y="395" type="curve" smooth="yes"/>
      <point x="871" y="259"/>
      <point x="761" y="186"/>
      <point x="596" y="186" type="curve" smooth="yes"/>
      <point x="464" y="186"/>
      <point x="293" y="233"/>
      <point x="117" y="331" type="curve"/>
      <point x="78" y="121" type="line"/>
      <point x="217" y="33"/>
      <point x="430" y="-26"/>
    </contour>
    <contour>
      <point x="585" y="0" type="move" name="top"/>
    </contour>
    <contour>
      <point x="585" y="0" type="move" name="bottom"/>
    </contour>
  </outline>
</glyph>
<glyph name="T" format="1">
  <advance width="1311"/>
  <unicode hex="0054"/>
  <outline>
    <contour>
      <point x="526" y="0" type="line"/>
      <point x="784" y="0" type="line"/>
      <point x="784" y="1251" type="line"/>
      <point x="1211" y="1251" type="line"/>
      <point x="1211" y="1448" type="line"/>
      <point x="100" y="1448" type="line"/>
      <point x="100" y="1251" type="line"/>
      <point x="526" y="1251" type="line"/>
    </contour>
  </outline>
</glyph>
<glyph name="U" format="1">
  <advance width="1582"/>
  <unicode hex="0055"/>
  <outline>
    <contour>
      <point x="803" y="-22" type="curve" smooth="yes"/>
      <point x="1173" y="-22"/>
      <point x="1410" y="213"/>
      <point x="1410" y="558" type="curve" smooth="yes"/>
      <point x="1410" y="1448" type="line"/>
      <point x="1160" y="1448" type="line"/>
      <point x="1160" y="545" type="line" smooth="yes"/>
      <point x="1160" y="335"/>
      <point x="1018" y="196"/>
      <point x="802" y="196" type="curve" smooth="yes"/>
      <point x="574" y="196"/>
      <point x="422" y="338"/>
      <point x="422" y="552" type="curve" smooth="yes"/>
      <point x="422" y="1448" type="line"/>
      <point x="172" y="1448" type="line"/>
      <point x="172" y="547" type="line" smooth="yes"/>
      <point x="172" y="208"/>
      <point x="419" y="-22"/>
    </contour>
  </outline>
</glyph>
<glyph name="V" format="1">
  <advance width="1622"/>
  <unicode hex="0056"/>
  <outline>
    <contour>
      <point x="1287" y="1686" type="line"/>
      <point x="940" y="734" type="line"/>
      <point x="815" y="378" type="line"/>
      <point x="681" y="735" type="line"/>
      <point x="323" y="1686" type="line"/>
      <point x="4" y="1686" type="line"/>
      <point x="652" y="2" type="line"/>
      <point x="976" y="2" type="line"/>
      <point x="1618" y="1686" type="line"/>
    </contour>
  </outline>
</glyph>
<glyph name="W" format="1">
  <advance width="2583"/>
  <unicode hex="0057"/>
  <outline>
    <contour>
      <point x="2240" y="1685" type="line"/>
      <point x="1957" y="714" type="line"/>
      <point x="1873" y="449" type="line"/>
      <point x="1779" y="709" type="line"/>
      <point x="1404" y="1685" type="line"/>
      <point x="1195" y="1685" type="line"/>
      <point x="817" y="714" type="line"/>
      <point x="718" y="448" type="line"/>
      <point x="640" y="714" type="line"/>
      <point x="350" y="1685" type="line"/>
      <point x="54" y="1685" type="line"/>
      <point x="579" y="1" type="line"/>
      <point x="836" y="1" type="line"/>
      <point x="1293" y="1223" type="line"/>
      <point x="1748" y="0" type="line"/>
      <point x="2005" y="0" type="line"/>
      <point x="2529" y="1685" type="line"/>
    </contour>
    <contour>
      <point x="1293" y="1685" type="move" name="top"/>
    </contour>
  </outline>
</glyph>
<glyph name="X" format="1">
  <advance width="1403"/>
  <unicode hex="0058"/>
  <outline>
    <contour>
      <point x="-2" y="0" type="line"/>
      <point x="272" y="0" type="line"/>
      <point x="702" y="561" type="line"/>
      <point x="1117" y="0" type="line"/>
      <point x="1388" y="0" type="line"/>
      <point x="865" y="717" type="line"/>
      <point x="1405" y="1448" type="line"/>
      <point x="1132" y="1448" type="line"/>
      <point x="728" y="905" type="line"/>
      <point x="331" y="1448" type="line"/>
      <point x="47" y="1448" type="line"/>
      <point x="565" y="748" type="line"/>
    </contour>
  </outline>
</glyph>
<glyph name="Y" format="1">
  <advance width="1292"/>
  <unicode hex="0059"/>
  <outline>
    <contour>
      <point x="502" y="0" type="line"/>
      <point x="771" y="0" type="line"/>
      <point x="771" y="582" type="line"/>
      <point x="1282" y="1448" type="line"/>
      <point x="1023" y="1448" type="line"/>
      <point x="639" y="788" type="line"/>
      <point x="280" y="1448" type="line"/>
      <point x="10" y="1448" type="line"/>
      <point x="502" y="580" type="line"/>
    </contour>
  </outline>
</glyph>
<glyph name="Z" format="1">
  <advance width="1502"/>
  <unicode hex="005A"/>
  <outline>
    <contour>
      <point x="152" y="1685" type="line"/>
      <point x="152" y="1440" type="line"/>
      <point x="1038" y="1440" type="line"/>
      <point x="116" y="230" type="line"/>
      <point x="116" y="0" type="line"/>
      <point x="1374" y="0" type="line"/>
      <point x="1374" y="245" type="line"/>
      <point x="465" y="245" type="line"/>
      <point x="1384" y="1474" type="line"/>
      <point x="1384" y="1685" type="line"/>
    </contour>
    <contour>
      <point x="797" y="1685" type="move" name="top"/>
    </contour>
  </outline>
</glyph>
<glyph name="bracketleft" format="1">
  <advance width="1286"/>
  <unicode hex="005B"/>
  <outline>
    <contour>
      <point x="193" y="1449" type="line"/>
      <point x="193" y="-530" type="line"/>
      <point x="718" y="-530" type="line"/>
      <point x="718" y="-380" type="line"/>
      <point x="494" y="-380" type="line"/>
      <point x="494" y="1298" type="line"/>
      <point x="717" y="1298" type="line"/>
      <point x="717" y="1449" type="line"/>
    </contour>
  </outline>
</glyph>
<glyph name="backslash" format="1">
  <advance width="1446"/>
  <unicode hex="005C"/>
  <outline>
    <contour>
      <point x="-143" y="1573" type="line"/>
      <point x="571" y="-244" type="line"/>
      <point x="844" y="-244" type="line"/>
      <point x="132" y="1573" type="line"/>
    </contour>
  </outline>
</glyph>
<glyph name="bracketright" format="1">
  <advance width="1286"/>
  <unicode hex="005D"/>
  <outline>
    <contour>
      <point x="194" y="1298" type="line"/>
      <point x="418" y="1298" type="line"/>
      <point x="418" y="-380" type="line"/>
      <point x="193" y="-380" type="line"/>
      <point x="193" y="-530" type="line"/>
      <point x="718" y="-530" type="line"/>
      <point x="718" y="1449" type="line"/>
      <point x="194" y="1449" type="line"/>
    </contour>
  </outline>
</glyph>
<glyph name="asciicircum" format="1">
  <advance width="1256"/>
  <unicode hex="005E"/>
  <outline>
    <contour>
      <point x="95" y="570" type="line"/>
      <point x="301" y="570" type="line"/>
      <point x="622" y="1176" type="line"/>
      <point x="957" y="570" type="line"/>
      <point x="1161" y="570" type="line"/>
      <point x="675" y="1448" type="line"/>
      <point x="574" y="1448" type="line"/>
    </contour>
  </outline>
</glyph>
<glyph name="underscore" format="1">
  <advance width="2042"/>
  <unicode hex="005F"/>
  <outline>
    <contour>
      <point x="-10" y="-411" type="line"/>
      <point x="-10" y="-559" type="line"/>
      <point x="1150" y="-559" type="line"/>
      <point x="1150" y="-411" type="line"/>
    </contour>
  </outline>
</glyph>
<glyph name="grave" format="1">
  <advance width="1214"/>
  <unicode hex="0060"/>
  <outline>
    <contour>
      <point x="-121" y="2770" type="line"/>
      <point x="263" y="2400" type="line"/>
      <point x="482" y="2400" type="line"/>
      <point x="196" y="2770" type="line"/>
    </contour>
    <contour>
      <point x="346" y="2231" type="move" name="_top"/>
    </contour>
  </outline>
</glyph>
<glyph name="a" format="1">
  <advance width="1481"/>
  <unicode hex="0061"/>
  <outline>
    <contour>
      <point x="786" y="1162" type="curve" smooth="yes"/>
      <point x="390" y="1162"/>
      <point x="110" y="876"/>
      <point x="110" y="474" type="curve" smooth="yes"/>
      <point x="110" y="171"/>
      <point x="316" y="-45"/>
      <point x="622" y="-45" type="curve" smooth="yes"/>
      <point x="785" y="-45"/>
      <point x="950" y="44"/>
      <point x="1013" y="166" type="curve"/>
      <point x="1044" y="54"/>
      <point x="1183" y="-24"/>
      <point x="1354" y="-24" type="curve"/>
      <point x="1445" y="210" type="line"/>
      <point x="1336" y="210"/>
      <point x="1250" y="277"/>
      <point x="1250" y="368" type="curve" smooth="yes"/>
      <point x="1250" y="1034" type="line"/>
      <point x="1138" y="1100"/>
      <point x="946" y="1162"/>
    </contour>
    <contour>
      <point x="771" y="931" type="curve" smooth="yes"/>
      <point x="838" y="931"/>
      <point x="921" y="918"/>
      <point x="969" y="892" type="curve"/>
      <point x="969" y="468" type="line" smooth="yes"/>
      <point x="969" y="302"/>
      <point x="835" y="184"/>
      <point x="644" y="184" type="curve" smooth="yes"/>
      <point x="501" y="184"/>
      <point x="399" y="308"/>
      <point x="399" y="485" type="curve" smooth="yes"/>
      <point x="399" y="747"/>
      <point x="553" y="931"/>
    </contour>
    <contour>
      <point x="1284" y="-2" type="move" name="ogonek"/>
    </contour>
    <contour>
      <point x="731" y="1162" type="move" name="top"/>
    </contour>
  </outline>
</glyph>
<glyph name="b" format="1">
  <advance width="1248"/>
  <unicode hex="0062"/>
  <outline>
    <contour>
      <point x="632" y="-22" type="curve" smooth="yes"/>
      <point x="948" y="-22"/>
      <point x="1160" y="198"/>
      <point x="1160" y="528" type="curve" smooth="yes"/>
      <point x="1160" y="821"/>
      <point x="980" y="1016"/>
      <point x="710" y="1016" type="curve" smooth="yes"/>
      <point x="560" y="1016"/>
      <point x="411" y="947"/>
      <point x="344" y="844" type="curve"/>
      <point x="344" y="1550" type="line"/>
      <point x="100" y="1521" type="line"/>
      <point x="100" y="69" type="line"/>
      <point x="101" y="69"/>
      <point x="315" y="-22"/>
    </contour>
    <contour>
      <point x="615" y="174" type="curve" smooth="yes"/>
      <point x="456" y="174"/>
      <point x="344" y="206"/>
      <point x="344" y="206" type="curve"/>
      <point x="344" y="607" type="line"/>
      <point x="418" y="734"/>
      <point x="547" y="820"/>
      <point x="661" y="820" type="curve" smooth="yes"/>
      <point x="811" y="820"/>
      <point x="911" y="699"/>
      <point x="911" y="524" type="curve" smooth="yes"/>
      <point x="911" y="314"/>
      <point x="793" y="174"/>
    </contour>
  </outline>
</glyph>
<glyph name="c" format="1">
  <advance width="1101"/>
  <unicode hex="0063"/>
  <outline>
    <contour>
      <point x="638" y="-22" type="curve" smooth="yes"/>
      <point x="771" y="-22"/>
      <point x="919" y="17"/>
      <point x="1031" y="104" type="curve"/>
      <point x="953" y="290" type="line"/>
      <point x="883" y="229"/>
      <point x="779" y="174"/>
      <point x="656" y="174" type="curve" smooth="yes"/>
      <point x="452" y="174"/>
      <point x="344" y="329"/>
      <point x="344" y="500" type="curve" smooth="yes"/>
      <point x="344" y="672"/>
      <point x="463" y="815"/>
      <point x="657" y="815" type="curve" smooth="yes"/>
      <point x="738" y="815"/>
      <point x="831" y="788"/>
      <point x="930" y="726" type="curve"/>
      <point x="1001" y="906" type="line"/>
      <point x="895" y="985"/>
      <point x="755" y="1016"/>
      <point x="639" y="1016" type="curve" smooth="yes"/>
      <point x="336" y="1016"/>
      <point x="96" y="796"/>
      <point x="96" y="499" type="curve" smooth="yes"/>
      <point x="96" y="239"/>
      <point x="279" y="-22"/>
    </contour>
  </outline>
</glyph>
<glyph name="d" format="1">
  <advance width="1226"/>
  <unicode hex="0064"/>
  <outline>
    <contour>
      <point x="548" y="-22" type="curve" smooth="yes"/>
      <point x="700" y="-22"/>
      <point x="827" y="45"/>
      <point x="880" y="145" type="curve"/>
      <point x="890" y="101"/>
      <point x="918" y="39"/>
      <point x="952" y="-14" type="curve"/>
      <point x="1184" y="29" type="line"/>
      <point x="1137" y="96"/>
      <point x="1108" y="241"/>
      <point x="1108" y="389" type="curve" smooth="yes"/>
      <point x="1108" y="1544" type="line"/>
      <point x="864" y="1531" type="line"/>
      <point x="864" y="929" type="line"/>
      <point x="793" y="982"/>
      <point x="689" y="1016"/>
      <point x="587" y="1016" type="curve" smooth="yes"/>
      <point x="271" y="1016"/>
      <point x="60" y="805"/>
      <point x="60" y="486" type="curve" smooth="yes"/>
      <point x="60" y="182"/>
      <point x="256" y="-22"/>
    </contour>
    <contour>
      <point x="569" y="174" type="curve" smooth="yes"/>
      <point x="413" y="174"/>
      <point x="309" y="301"/>
      <point x="309" y="492" type="curve" smooth="yes"/>
      <point x="309" y="689"/>
      <point x="428" y="820"/>
      <point x="605" y="820" type="curve" smooth="yes"/>
      <point x="709" y="820"/>
      <point x="816" y="778"/>
      <point x="864" y="714" type="curve"/>
      <point x="864" y="518" type="line" smooth="yes"/>
      <point x="864" y="313"/>
      <point x="742" y="174"/>
    </contour>
  </outline>
</glyph>
<glyph name="e" format="1">
  <advance width="1164"/>
  <unicode hex="0065"/>
  <outline>
    <contour>
      <point x="654" y="-22" type="curve" smooth="yes"/>
      <point x="806" y="-22"/>
      <point x="982" y="43"/>
      <point x="1095" y="142" type="curve"/>
      <point x="1007" y="312" type="line"/>
      <point x="919" y="227"/>
      <point x="779" y="174"/>
      <point x="658" y="174" type="curve" smooth="yes"/>
      <point x="524" y="174"/>
      <point x="406" y="241"/>
      <point x="366" y="347" type="curve"/>
      <point x="770" y="349"/>
      <point x="1024" y="502"/>
      <point x="1024" y="729" type="curve" smooth="yes"/>
      <point x="1024" y="901"/>
      <point x="868" y="1016"/>
      <point x="638" y="1016" type="curve" smooth="yes"/>
      <point x="322" y="1016"/>
      <point x="98" y="791"/>
      <point x="98" y="499" type="curve" smooth="yes"/>
      <point x="98" y="185"/>
      <point x="320" y="-22"/>
    </contour>
    <contour>
      <point x="342" y="518" type="curve"/>
      <point x="342" y="527" type="line"/>
      <point x="347" y="709"/>
      <point x="485" y="831"/>
      <point x="644" y="831" type="curve" smooth="yes"/>
      <point x="730" y="831"/>
      <point x="787" y="787"/>
      <point x="787" y="722" type="curve" smooth="yes"/>
      <point x="787" y="608"/>
      <point x="619" y="526"/>
    </contour>
  </outline>
</glyph>
<glyph name="f" format="1">
  <advance width="805"/>
  <unicode hex="0066"/>
  <outline>
    <contour>
      <point x="134" y="-410" type="line"/>
      <point x="410" y="-410"/>
      <point x="535" y="-273"/>
      <point x="535" y="-11" type="curve" smooth="yes"/>
      <point x="535" y="844" type="line"/>
      <point x="747" y="844" type="line"/>
      <point x="747" y="996" type="line"/>
      <point x="535" y="996" type="line"/>
      <point x="535" y="1082" type="line" smooth="yes"/>
      <point x="535" y="1232"/>
      <point x="605" y="1284"/>
      <point x="709" y="1284" type="curve" smooth="yes"/>
      <point x="736" y="1284"/>
      <point x="765" y="1282"/>
      <point x="797" y="1273" type="curve"/>
      <point x="821" y="1437" type="line"/>
      <point x="768" y="1458"/>
      <point x="690" y="1470"/>
      <point x="632" y="1470" type="curve" smooth="yes"/>
      <point x="448" y="1470"/>
      <point x="292" y="1356"/>
      <point x="292" y="1117" type="curve" smooth="yes"/>
      <point x="292" y="996" type="line"/>
      <point x="96" y="996" type="line"/>
      <point x="96" y="844" type="line"/>
      <point x="292" y="844" type="line"/>
      <point x="292" y="-19" type="line" smooth="yes"/>
      <point x="292" y="-155"/>
      <point x="243" y="-213"/>
      <point x="113" y="-213" type="curve"/>
    </contour>
  </outline>
</glyph>
<glyph name="g" format="1">
  <advance width="2091"/>
  <unicode hex="0067"/>
  <outline>
    <contour>
      <point x="852" y="859" type="curve" smooth="yes"/>
      <point x="456" y="859"/>
      <point x="176" y="573"/>
      <point x="176" y="171" type="curve" smooth="yes"/>
      <point x="176" y="-132"/>
      <point x="382" y="-348"/>
      <point x="688" y="-348" type="curve" smooth="yes"/>
      <point x="811" y="-348"/>
      <point x="937" y="-296"/>
      <point x="1017" y="-218" type="curve"/>
      <point x="1017" y="-339" type="line" smooth="yes"/>
      <point x="1017" y="-557"/>
      <point x="855" y="-703"/>
      <point x="611" y="-703" type="curve" smooth="yes"/>
      <point x="508" y="-703"/>
      <point x="377" y="-671"/>
      <point x="283" y="-624" type="curve"/>
      <point x="228" y="-857" type="line"/>
      <point x="347" y="-916"/>
      <point x="521" y="-954"/>
      <point x="662" y="-954" type="curve" smooth="yes"/>
      <point x="1054" y="-954"/>
      <point x="1316" y="-705"/>
      <point x="1316" y="-330" type="curve" smooth="yes"/>
      <point x="1316" y="731" type="line"/>
      <point x="1204" y="797"/>
      <point x="1012" y="859"/>
    </contour>
    <contour>
      <point x="837" y="628" type="curve" smooth="yes"/>
      <point x="904" y="628"/>
      <point x="987" y="615"/>
      <point x="1035" y="589" type="curve"/>
      <point x="1035" y="165" type="line" smooth="yes"/>
      <point x="1035" y="-1"/>
      <point x="901" y="-119"/>
      <point x="710" y="-119" type="curve" smooth="yes"/>
      <point x="567" y="-119"/>
      <point x="465" y="5"/>
      <point x="465" y="182" type="curve" smooth="yes"/>
      <point x="465" y="444"/>
      <point x="619" y="628"/>
    </contour>
    <contour>
      <point x="852" y="859" type="move" name="top"/>
    </contour>
  </outline>
</glyph>
<glyph name="h" format="1">
  <advance width="1306"/>
  <unicode hex="0068"/>
  <outline>
    <contour>
      <point x="1234" y="-16" type="line"/>
      <point x="1268" y="177" type="line"/>
      <point x="1246" y="177" type="line" smooth="yes"/>
      <point x="1139" y="177"/>
      <point x="1110" y="224"/>
      <point x="1110" y="352" type="curve" smooth="yes"/>
      <point x="1110" y="572" type="line" smooth="yes"/>
      <point x="1110" y="839"/>
      <point x="951" y="1016"/>
      <point x="709" y="1016" type="curve" smooth="yes"/>
      <point x="608" y="1016"/>
      <point x="500" y="977"/>
      <point x="414" y="904" type="curve"/>
      <point x="414" y="1542" type="line"/>
      <point x="172" y="1542" type="line"/>
      <point x="172" y="0" type="line"/>
      <point x="414" y="0" type="line"/>
      <point x="414" y="568" type="line" smooth="yes"/>
      <point x="414" y="686"/>
      <point x="482" y="804"/>
      <point x="661" y="804" type="curve" smooth="yes"/>
      <point x="803" y="804"/>
      <point x="868" y="702"/>
      <point x="868" y="549" type="curve" smooth="yes"/>
      <point x="868" y="298" type="line" smooth="yes"/>
      <point x="868" y="88"/>
      <point x="954" y="-16"/>
      <point x="1189" y="-16" type="curve" smooth="yes"/>
    </contour>
  </outline>
</glyph>
<glyph name="i" format="1">
  <advance width="741"/>
  <unicode hex="0069"/>
  <outline>
    <contour>
      <point x="719" y="38" type="curve"/>
      <point x="688" y="222" type="line"/>
      <point x="547" y="173"/>
      <point x="413" y="163"/>
      <point x="413" y="339" type="curve" smooth="yes"/>
      <point x="413" y="996" type="line"/>
      <point x="169" y="996" type="line"/>
      <point x="169" y="277" type="line" smooth="yes"/>
      <point x="169" y="-22"/>
      <point x="489" y="-65"/>
    </contour>
    <contour>
      <point x="295" y="1176" type="curve" smooth="yes"/>
      <point x="394" y="1176"/>
      <point x="464" y="1239"/>
      <point x="464" y="1330" type="curve" smooth="yes"/>
      <point x="464" y="1421"/>
      <point x="394" y="1486"/>
      <point x="297" y="1486" type="curve" smooth="yes"/>
      <point x="197" y="1486"/>
      <point x="128" y="1423"/>
      <point x="128" y="1331" type="curve" smooth="yes"/>
      <point x="128" y="1239"/>
      <point x="197" y="1176"/>
    </contour>
  </outline>
</glyph>
<glyph name="j" format="1">
  <advance width="669"/>
  <unicode hex="006A"/>
  <outline>
    <contour>
      <point x="224" y="-498" type="curve" smooth="yes"/>
      <point x="464" y="-498"/>
      <point x="583" y="-351"/>
      <point x="583" y="-48" type="curve" smooth="yes"/>
      <point x="583" y="996" type="line"/>
      <point x="339" y="996" type="line"/>
      <point x="339" y="-55" type="line" smooth="yes"/>
      <point x="339" y="-216"/>
      <point x="284" y="-294"/>
      <point x="182" y="-294" type="curve" smooth="yes"/>
      <point x="177" y="-294"/>
      <point x="140" y="-290"/>
      <point x="76" y="-281" type="curve"/>
      <point x="43" y="-475" type="line"/>
      <point x="110" y="-490"/>
      <point x="169" y="-498"/>
    </contour>
    <contour>
      <point x="448" y="1169" type="curve" smooth="yes"/>
      <point x="548" y="1169"/>
      <point x="618" y="1233"/>
      <point x="618" y="1323" type="curve" smooth="yes"/>
      <point x="618" y="1416"/>
      <point x="548" y="1481"/>
      <point x="450" y="1481" type="curve" smooth="yes"/>
      <point x="351" y="1481"/>
      <point x="281" y="1416"/>
      <point x="281" y="1324" type="curve" smooth="yes"/>
      <point x="281" y="1234"/>
      <point x="351" y="1169"/>
    </contour>
  </outline>
</glyph>
<glyph name="k" format="1">
  <advance width="1217"/>
  <unicode hex="006B"/>
  <outline>
    <contour>
      <point x="1168" y="-20" type="curve"/>
      <point x="1213" y="184" type="line"/>
      <point x="1099" y="164"/>
      <point x="1043" y="181"/>
      <point x="958" y="299" type="curve" smooth="yes"/>
      <point x="796" y="524" type="line"/>
      <point x="1091" y="939" type="line"/>
      <point x="859" y="987" type="line"/>
      <point x="406" y="389" type="line"/>
      <point x="406" y="1533" type="line"/>
      <point x="164" y="1513" type="line"/>
      <point x="164" y="100" type="line" smooth="yes"/>
      <point x="164" y="-29"/>
      <point x="310" y="-70"/>
      <point x="391" y="33" type="curve" smooth="yes"/>
      <point x="656" y="351" type="line"/>
      <point x="806" y="139" type="line" smooth="yes"/>
      <point x="926" y="-30"/>
      <point x="1006" y="-20"/>
    </contour>
  </outline>
</glyph>
<glyph name="l" format="1">
  <advance width="727"/>
  <unicode hex="006C"/>
  <outline>
    <contour>
      <point x="692" y="218" type="line"/>
      <point x="645" y="203"/>
      <point x="569" y="191"/>
      <point x="524" y="191" type="curve" smooth="yes"/>
      <point x="428" y="191"/>
      <point x="370" y="241"/>
      <point x="370" y="353" type="curve" smooth="yes"/>
      <point x="370" y="1555" type="line"/>
      <point x="126" y="1526" type="line"/>
      <point x="126" y="301" type="line" smooth="yes"/>
      <point x="126" y="83"/>
      <point x="270" y="-11"/>
      <point x="470" y="-11" type="curve" smooth="yes"/>
      <point x="547" y="-11"/>
      <point x="630" y="4"/>
      <point x="717" y="28" type="curve"/>
    </contour>
    <contour>
      <point x="413" y="0" type="move" name="top"/>
    </contour>
    <contour>
      <point x="413" y="0" type="move" name="bottom"/>
    </contour>
    <contour>
      <point x="739" y="0" type="move" name="topright"/>
    </contour>
  </outline>
</glyph>
<glyph name="m" format="1">
  <advance width="1980.0"/>
  <unicode hex="006D"/>
  <outline>
    <contour>
      <point x="1888.0" y="0.0" type="curve"/>
      <point x="1912.0" y="192.0" type="line"/>
      <point x="1789.0" y="174.0"/>
      <point x="1780.0" y="233.0"/>
      <point x="1780.0" y="357.0" type="curve" smooth="yes"/>
      <point x="1780.0" y="572.0" type="line" smooth="yes"/>
      <point x="1780.0" y="839.0"/>
      <point x="1620.0" y="1016.0"/>
      <point x="1378.0" y="1016.0" type="curve" smooth="yes"/>
      <point x="1276.0" y="1016.0"/>
      <point x="1148.0" y="987.0"/>
      <point x="1031.0" y="854.0" type="curve"/>
      <point x="961.0" y="950.0"/>
      <point x="851.0" y="1016.0"/>
      <point x="715.0" y="1016.0" type="curve" smooth="yes"/>
      <point x="608.0" y="1016.0"/>
      <point x="479.0" y="967.0"/>
      <point x="401.0" y="873.0" type="curve"/>
      <point x="388.0" y="922.0"/>
      <point x="360.0" y="966.0"/>
      <point x="332.0" y="993.0" type="curve"/>
      <point x="92.0" y="904.0" type="line"/>
      <point x="153.0" y="828.0"/>
      <point x="193.0" y="711.0"/>
      <point x="193.0" y="610.0" type="curve" smooth="yes"/>
      <point x="193.0" y="0.0" type="line"/>
      <point x="442.0" y="0.0" type="line"/>
      <point x="442.0" y="570.0" type="line" smooth="yes"/>
      <point x="442.0" y="726.0"/>
      <point x="535.0" y="804.0"/>
      <point x="672.0" y="804.0" type="curve" smooth="yes"/>
      <point x="792.0" y="804.0"/>
      <point x="875.0" y="722.0"/>
      <point x="875.0" y="549.0" type="curve" smooth="yes"/>
      <point x="875.0" y="0.0" type="line"/>
      <point x="1117.0" y="0.0" type="line"/>
      <point x="1117.0" y="572.0" type="line" smooth="yes"/>
      <point x="1117.0" y="720.0"/>
      <point x="1220.0" y="804.0"/>
      <point x="1335.0" y="804.0" type="curve" smooth="yes"/>
      <point x="1475.0" y="804.0"/>
      <point x="1538.0" y="702.0"/>
      <point x="1538.0" y="549.0" type="curve" smooth="yes"/>
      <point x="1538.0" y="263.0" type="line" smooth="yes"/>
      <point x="1538.0" y="64.0"/>
      <point x="1622.0" y="-52.0"/>
    </contour>
  </outline>
</glyph>
<glyph name="n" format="1">
  <advance width="1250"/>
  <unicode hex="006E"/>
  <outline>
    <contour>
      <point x="1176" y="0" type="curve"/>
      <point x="1200" y="192" type="line"/>
      <point x="1077" y="174"/>
      <point x="1068" y="233"/>
      <point x="1068" y="357" type="curve" smooth="yes"/>
      <point x="1068" y="572" type="line" smooth="yes"/>
      <point x="1068" y="839"/>
      <point x="908" y="1016"/>
      <point x="666" y="1016" type="curve" smooth="yes"/>
      <point x="559" y="1016"/>
      <point x="440" y="973"/>
      <point x="352" y="893" type="curve"/>
      <point x="335" y="931"/>
      <point x="311" y="966"/>
      <point x="283" y="993" type="curve"/>
      <point x="43" y="904" type="line"/>
      <point x="104" y="828"/>
      <point x="144" y="711"/>
      <point x="144" y="610" type="curve" smooth="yes"/>
      <point x="144" y="0" type="line"/>
      <point x="393" y="0" type="line"/>
      <point x="393" y="630" type="line"/>
      <point x="388" y="686" type="line"/>
      <point x="457" y="757"/>
      <point x="546" y="804"/>
      <point x="623" y="804" type="curve" smooth="yes"/>
      <point x="743" y="804"/>
      <point x="826" y="702"/>
      <point x="826" y="549" type="curve" smooth="yes"/>
      <point x="826" y="263" type="line" smooth="yes"/>
      <point x="826" y="64"/>
      <point x="910" y="-52"/>
    </contour>
  </outline>
</glyph>
<glyph name="o" format="1">
  <advance width="1251"/>
  <unicode hex="006F"/>
  <outline>
    <contour>
      <point x="626" y="174" type="curve" smooth="yes"/>
      <point x="456" y="174"/>
      <point x="342" y="303"/>
      <point x="342" y="496" type="curve" smooth="yes"/>
      <point x="342" y="689"/>
      <point x="455" y="820"/>
      <point x="624" y="820" type="curve" smooth="yes"/>
      <point x="794" y="820"/>
      <point x="907" y="689"/>
      <point x="907" y="496" type="curve" smooth="yes"/>
      <point x="907" y="303"/>
      <point x="795" y="174"/>
    </contour>
    <contour>
      <point x="624" y="-22" type="curve" smooth="yes"/>
      <point x="944" y="-22"/>
      <point x="1157" y="186"/>
      <point x="1157" y="497" type="curve" smooth="yes"/>
      <point x="1157" y="810"/>
      <point x="942" y="1016"/>
      <point x="623" y="1016" type="curve" smooth="yes"/>
      <point x="305" y="1016"/>
      <point x="94" y="808"/>
      <point x="94" y="496" type="curve" smooth="yes"/>
      <point x="94" y="185"/>
      <point x="306" y="-22"/>
    </contour>
  </outline>
</glyph>
<glyph name="p" format="1">
  <advance width="1257"/>
  <unicode hex="0070"/>
  <outline>
    <contour>
      <point x="140" y="-496" type="line"/>
      <point x="389" y="-496" type="line"/>
      <point x="391" y="67" type="line"/>
      <point x="468" y="15"/>
      <point x="592" y="-22"/>
      <point x="692" y="-22" type="curve" smooth="yes"/>
      <point x="991" y="-22"/>
      <point x="1203" y="198"/>
      <point x="1203" y="509" type="curve" smooth="yes"/>
      <point x="1203" y="822"/>
      <point x="997" y="1016"/>
      <point x="717" y="1016" type="curve" smooth="yes"/>
      <point x="592" y="1016"/>
      <point x="439" y="951"/>
      <point x="371" y="824" type="curve"/>
      <point x="359" y="894"/>
      <point x="325" y="951"/>
      <point x="279" y="994" type="curve"/>
      <point x="39" y="906" type="line"/>
      <point x="78" y="855"/>
      <point x="140" y="810"/>
      <point x="140" y="610" type="curve" smooth="yes"/>
    </contour>
    <contour>
      <point x="658" y="174" type="curve" smooth="yes"/>
      <point x="544" y="174"/>
      <point x="432" y="218"/>
      <point x="389" y="282" type="curve"/>
      <point x="389" y="417" type="line" smooth="yes"/>
      <point x="389" y="651"/>
      <point x="515" y="820"/>
      <point x="691" y="820" type="curve" smooth="yes"/>
      <point x="858" y="820"/>
      <point x="954" y="695"/>
      <point x="954" y="503" type="curve" smooth="yes"/>
      <point x="954" y="309"/>
      <point x="833" y="174"/>
    </contour>
  </outline>
</glyph>
<glyph name="q" format="1">
  <advance width="1319"/>
  <unicode hex="0071"/>
  <outline>
    <contour>
      <point x="1149" y="-629" type="curve" smooth="yes"/>
      <point x="1512" y="-439" type="line"/>
      <point x="1419" y="-250" type="line"/>
      <point x="1153" y="-384" type="line"/>
      <point x="1153" y="610" type="line"/>
      <point x="1153" y="952" type="line"/>
      <point x="956" y="970" type="line"/>
      <point x="943" y="903" type="line"/>
      <point x="943" y="903"/>
      <point x="836" y="1016"/>
      <point x="601" y="1016" type="curve" smooth="yes"/>
      <point x="302" y="1016"/>
      <point x="90" y="795"/>
      <point x="90" y="485" type="curve" smooth="yes"/>
      <point x="90" y="171"/>
      <point x="297" y="-22"/>
      <point x="576" y="-22" type="curve" smooth="yes"/>
      <point x="675" y="-22"/>
      <point x="826" y="8"/>
      <point x="904" y="104" type="curve"/>
      <point x="904" y="-496" type="line" smooth="yes"/>
      <point x="904" y="-574"/>
      <point x="982" y="-717"/>
    </contour>
    <contour>
      <point x="602" y="175" type="curve" smooth="yes"/>
      <point x="435" y="175"/>
      <point x="339" y="299"/>
      <point x="339" y="491" type="curve" smooth="yes"/>
      <point x="339" y="685"/>
      <point x="461" y="820"/>
      <point x="636" y="820" type="curve" smooth="yes"/>
      <point x="750" y="820"/>
      <point x="861" y="776"/>
      <point x="904" y="712" type="curve"/>
      <point x="904" y="531" type="line" smooth="yes"/>
      <point x="904" y="277"/>
      <point x="778" y="175"/>
    </contour>
  </outline>
</glyph>
<glyph name="r" format="1">
  <advance width="882"/>
  <unicode hex="0072"/>
  <outline>
    <contour>
      <point x="164" y="0" type="line"/>
      <point x="413" y="0" type="line"/>
      <point x="413" y="525" type="line"/>
      <point x="423" y="606"/>
      <point x="468" y="790"/>
      <point x="668" y="790" type="curve" smooth="yes"/>
      <point x="703" y="790"/>
      <point x="740" y="785"/>
      <point x="784" y="774" type="curve"/>
      <point x="802" y="993" type="line"/>
      <point x="767" y="1002"/>
      <point x="732" y="1012"/>
      <point x="652" y="1012" type="curve" smooth="yes"/>
      <point x="544" y="1012"/>
      <point x="400" y="952"/>
      <point x="389" y="856" type="curve"/>
      <point x="373" y="912"/>
      <point x="342" y="958"/>
      <point x="303" y="996" type="curve"/>
      <point x="63" y="906" type="line"/>
      <point x="102" y="857"/>
      <point x="164" y="810"/>
      <point x="164" y="611" type="curve" smooth="yes"/>
    </contour>
  </outline>
</glyph>
<glyph name="s" format="1">
  <advance width="918"/>
  <unicode hex="0073"/>
  <outline>
    <contour>
      <point x="480" y="-22" type="curve" smooth="yes"/>
      <point x="328" y="-22"/>
      <point x="192" y="34"/>
      <point x="131" y="67" type="curve"/>
      <point x="183" y="242" type="line"/>
      <point x="218" y="224"/>
      <point x="346" y="168"/>
      <point x="480" y="168" type="curve" smooth="yes"/>
      <point x="577" y="168"/>
      <point x="610" y="218"/>
      <point x="610" y="275" type="curve" smooth="yes"/>
      <point x="610" y="352"/>
      <point x="562" y="363"/>
      <point x="405" y="421" type="curve"/>
      <point x="188" y="493"/>
      <point x="120" y="574"/>
      <point x="120" y="718" type="curve" smooth="yes"/>
      <point x="120" y="846"/>
      <point x="210" y="1016"/>
      <point x="467" y="1016" type="curve" smooth="yes"/>
      <point x="648" y="1016"/>
      <point x="766" y="956"/>
      <point x="793" y="941" type="curve"/>
      <point x="737" y="774" type="line"/>
      <point x="650" y="812"/>
      <point x="564" y="832"/>
      <point x="492" y="832" type="curve" smooth="yes"/>
      <point x="409" y="832"/>
      <point x="351" y="803"/>
      <point x="351" y="737" type="curve" smooth="yes"/>
      <point x="351" y="679"/>
      <point x="393" y="648"/>
      <point x="521" y="605" type="curve" smooth="yes"/>
      <point x="745" y="534"/>
      <point x="830" y="469"/>
      <point x="831" y="304" type="curve" smooth="yes"/>
      <point x="831" y="107"/>
      <point x="714" y="-22"/>
    </contour>
  </outline>
</glyph>
<glyph name="t" format="1">
  <advance width="870"/>
  <unicode hex="0074"/>
  <outline>
    <contour>
      <point x="563" y="-16" type="curve" smooth="yes"/>
      <point x="640" y="-16"/>
      <point x="723" y="-1"/>
      <point x="810" y="23" type="curve"/>
      <point x="785" y="213" type="line"/>
      <point x="739" y="198"/>
      <point x="663" y="186"/>
      <point x="617" y="186" type="curve" smooth="yes"/>
      <point x="521" y="186"/>
      <point x="461" y="236"/>
      <point x="461" y="348" type="curve" smooth="yes"/>
      <point x="461" y="820" type="line"/>
      <point x="742" y="820" type="line"/>
      <point x="742" y="996" type="line"/>
      <point x="461" y="996" type="line"/>
      <point x="461" y="1338" type="line"/>
      <point x="219" y="1309" type="line"/>
      <point x="219" y="996" type="line"/>
      <point x="32" y="996" type="line"/>
      <point x="32" y="820" type="line"/>
      <point x="219" y="820" type="line"/>
      <point x="219" y="296" type="line" smooth="yes"/>
      <point x="219" y="78"/>
      <point x="365" y="-16"/>
    </contour>
  </outline>
</glyph>
<glyph name="u" format="1">
  <advance width="2619"/>
  <unicode hex="0075"/>
  <outline>
    <contour>
      <point x="1254" y="1138" type="line"/>
      <point x="1254" y="530" type="line" smooth="yes"/>
      <point x="1254" y="318"/>
      <point x="1118" y="178"/>
      <point x="914" y="178" type="curve" smooth="yes"/>
      <point x="798" y="178"/>
      <point x="726" y="276"/>
      <point x="730" y="423" type="curve" smooth="yes"/>
      <point x="736" y="651" type="line" smooth="yes"/>
      <point x="746" y="1008"/>
      <point x="693" y="1138"/>
      <point x="693" y="1138" type="curve"/>
      <point x="403" y="1107" type="line"/>
      <point x="403" y="1107"/>
      <point x="458" y="962"/>
      <point x="447" y="636" type="curve" smooth="yes"/>
      <point x="442" y="392" type="line" smooth="yes"/>
      <point x="434" y="130"/>
      <point x="611" y="-45"/>
      <point x="885" y="-45" type="curve" smooth="yes"/>
      <point x="1052" y="-45"/>
      <point x="1213" y="38"/>
      <point x="1291" y="164" type="curve"/>
      <point x="1318" y="52"/>
      <point x="1466" y="-24"/>
      <point x="1654" y="-24" type="curve"/>
      <point x="1694" y="226" type="line"/>
      <point x="1602" y="226"/>
      <point x="1542" y="294"/>
      <point x="1542" y="393" type="curve" smooth="yes"/>
      <point x="1542" y="1138" type="line"/>
    </contour>
    <contour>
      <point x="1572" y="-15" type="move" name="ogonek"/>
    </contour>
    <contour>
      <point x="981" y="1138" type="move" name="top"/>
    </contour>
  </outline>
</glyph>
<glyph name="v" format="1">
  <advance width="1109"/>
  <unicode hex="0076"/>
  <outline>
    <contour>
      <point x="462" y="0" type="line"/>
      <point x="664" y="0" type="line"/>
      <point x="1083" y="996" type="line"/>
      <point x="834" y="996" type="line"/>
      <point x="615" y="484" type="line" smooth="yes"/>
      <point x="603" y="456"/>
      <point x="591" y="424"/>
      <point x="560" y="325" type="curve"/>
      <point x="545" y="377"/>
      <point x="525" y="438"/>
      <point x="504" y="484" type="curve" smooth="yes"/>
      <point x="280" y="996" type="line"/>
      <point x="26" y="996" type="line"/>
    </contour>
  </outline>
</glyph>
<glyph name="w" format="1">
  <advance width="1782"/>
  <unicode hex="0077"/>
  <outline>
    <contour>
      <point x="469" y="0" type="line"/>
      <point x="672" y="0" type="line"/>
      <point x="894" y="582" type="line"/>
      <point x="1126" y="0" type="line"/>
      <point x="1329" y="0" type="line"/>
      <point x="1709" y="996" type="line"/>
      <point x="1461" y="996" type="line"/>
      <point x="1280" y="484" type="line"/>
      <point x="1268" y="456"/>
      <point x="1255" y="424"/>
      <point x="1226" y="325" type="curve"/>
      <point x="1210" y="377"/>
      <point x="1185" y="438"/>
      <point x="1169" y="484" type="curve"/>
      <point x="1015" y="895" type="line" smooth="yes"/>
      <point x="965.692" y="1028.13"/>
      <point x="813.498" y="1040.02"/>
      <point x="762" y="890" type="curve" smooth="yes"/>
      <point x="623" y="484" type="line"/>
      <point x="611" y="456"/>
      <point x="598" y="424"/>
      <point x="568" y="325" type="curve"/>
      <point x="553" y="377"/>
      <point x="528" y="438"/>
      <point x="512" y="484" type="curve" smooth="yes"/>
      <point x="327" y="996" type="line"/>
      <point x="73" y="996" type="line"/>
    </contour>
  </outline>
</glyph>
<glyph name="x" format="1">
  <advance width="2226"/>
  <unicode hex="0078"/>
  <outline>
    <contour>
      <point x="979" y="1158" type="line"/>
      <point x="640" y="692" type="line"/>
      <point x="557" y="662" type="line"/>
      <point x="37" y="0" type="line"/>
      <point x="347" y="0" type="line"/>
      <point x="744" y="501" type="line"/>
      <point x="849" y="557" type="line"/>
      <point x="1304" y="1158" type="line"/>
    </contour>
    <contour>
      <point x="429" y="1158" type="line"/>
      <point x="89" y="1158" type="line"/>
      <point x="971" y="0" type="line"/>
      <point x="1323" y="0" type="line"/>
    </contour>
  </outline>
</glyph>
<glyph name="y" format="1">
  <advance width="1303"/>
  <unicode hex="0079"/>
  <outline>
    <contour>
      <point x="565" y="-542" type="curve" smooth="yes"/>
      <point x="858" y="-542"/>
      <point x="1115" y="-401"/>
      <point x="1116" y="-6" type="curve" smooth="yes"/>
      <point x="1117" y="355" type="line"/>
      <point x="1116" y="996" type="line"/>
      <point x="868" y="996" type="line"/>
      <point x="868" y="473" type="line"/>
      <point x="871" y="291"/>
      <point x="751" y="170"/>
      <point x="576" y="170" type="curve" smooth="yes"/>
      <point x="478" y="170"/>
      <point x="414" y="255"/>
      <point x="418" y="381" type="curve"/>
      <point x="422" y="577" type="line"/>
      <point x="432" y="884"/>
      <point x="386" y="996"/>
      <point x="386" y="996" type="curve"/>
      <point x="138" y="969" type="line"/>
      <point x="138" y="969"/>
      <point x="185" y="844"/>
      <point x="175" y="564" type="curve"/>
      <point x="170" y="355" type="line" smooth="yes"/>
      <point x="164" y="130"/>
      <point x="315" y="-22"/>
      <point x="551" y="-22" type="curve" smooth="yes"/>
      <point x="676" y="-22"/>
      <point x="799" y="33"/>
      <point x="874" y="119" type="curve"/>
      <point x="871" y="-44" type="line"/>
      <point x="871" y="-283"/>
      <point x="707" y="-325"/>
      <point x="521" y="-325" type="curve" smooth="yes"/>
      <point x="426" y="-325"/>
      <point x="325" y="-303"/>
      <point x="238" y="-259" type="curve"/>
      <point x="192" y="-459" type="line"/>
      <point x="308" y="-513"/>
      <point x="439" y="-542"/>
    </contour>
  </outline>
</glyph>
<glyph name="z" format="1">
  <advance width="1067"/>
  <unicode hex="007A"/>
  <outline>
    <contour>
      <point x="142" y="0" type="line"/>
      <point x="957" y="0" type="line"/>
      <point x="957" y="185" type="line"/>
      <point x="439" y="185" type="line"/>
      <point x="941" y="843" type="line"/>
      <point x="941" y="996" type="line"/>
      <point x="168" y="996" type="line"/>
      <point x="168" y="825" type="line"/>
      <point x="650" y="825" type="line"/>
      <point x="142" y="155" type="line"/>
    </contour>
  </outline>
</glyph>
<glyph name="braceleft" format="1">
  <advance width="1284"/>
  <unicode hex="007B"/>
  <outline>
    <contour>
      <point x="537" y="1805"/>
      <point x="391" y="1675"/>
      <point x="391" y="1384" type="curve"/>
      <point x="392" y="1327"/>
      <point x="393" y="1268"/>
      <point x="393" y="1211" type="curve" smooth="yes"/>
      <point x="393" y="1153"/>
      <point x="395" y="1096"/>
      <point x="396" y="1039" type="curve"/>
      <point x="396" y="859"/>
      <point x="340" y="734"/>
      <point x="176" y="719" type="curve"/>
      <point x="176" y="553" type="line"/>
      <point x="362" y="533"/>
      <point x="392" y="399"/>
      <point x="392" y="197" type="curve" smooth="yes"/>
      <point x="391" y="-161" type="line" smooth="yes"/>
      <point x="391" y="-427"/>
      <point x="577" y="-519"/>
      <point x="831" y="-530" type="curve"/>
      <point x="831" y="-358" type="line"/>
      <point x="789" y="-358"/>
      <point x="753" y="-353"/>
      <point x="725" y="-343" type="curve" smooth="yes"/>
      <point x="620" y="-307"/>
      <point x="609" y="-179"/>
      <point x="609" y="-31" type="curve" smooth="yes"/>
      <point x="609" y="58"/>
      <point x="611" y="180"/>
      <point x="611" y="267" type="curve" smooth="yes"/>
      <point x="611" y="445"/>
      <point x="550" y="577"/>
      <point x="425" y="636" type="curve"/>
      <point x="538" y="697"/>
      <point x="616" y="829"/>
      <point x="616" y="1009" type="curve" smooth="yes"/>
      <point x="617" y="1403" type="line" smooth="yes"/>
      <point x="617" y="1561"/>
      <point x="679" y="1628"/>
      <point x="831" y="1633" type="curve"/>
      <point x="831" y="1805" type="line"/>
    </contour>
  </outline>
</glyph>
<glyph name="bar" format="1">
  <advance width="881.0"/>
  <unicode hex="007C"/>
  <outline>
    <contour>
      <point x="348.0" y="-409.0" type="line"/>
      <point x="533.0" y="-409.0" type="line"/>
      <point x="533.0" y="1526.0" type="line"/>
      <point x="348.0" y="1526.0" type="line"/>
    </contour>
  </outline>
</glyph>
<glyph name="braceright" format="1">
  <advance width="1284"/>
  <unicode hex="007D"/>
  <outline>
    <contour>
      <point x="135" y="1633" type="line"/>
      <point x="288" y="1628"/>
      <point x="350" y="1561"/>
      <point x="350" y="1403" type="curve"/>
      <point x="351" y="1009" type="line"/>
      <point x="351" y="828"/>
      <point x="426" y="696"/>
      <point x="542" y="636" type="curve"/>
      <point x="416" y="577"/>
      <point x="355" y="445"/>
      <point x="355" y="267" type="curve" smooth="yes"/>
      <point x="355" y="178"/>
      <point x="358" y="58"/>
      <point x="358" y="-31" type="curve" smooth="yes"/>
      <point x="358" y="-95"/>
      <point x="354" y="-148"/>
      <point x="347" y="-190" type="curve" smooth="yes"/>
      <point x="326" y="-308"/>
      <point x="272" y="-358"/>
      <point x="135" y="-358" type="curve"/>
      <point x="135" y="-530" type="line"/>
      <point x="389" y="-519"/>
      <point x="576" y="-427"/>
      <point x="576" y="-161" type="curve" smooth="yes"/>
      <point x="575" y="197" type="line" smooth="yes"/>
      <point x="575" y="240"/>
      <point x="575" y="279"/>
      <point x="578" y="320" type="curve" smooth="yes"/>
      <point x="586" y="459"/>
      <point x="652" y="539"/>
      <point x="790" y="553" type="curve"/>
      <point x="792" y="719" type="line"/>
      <point x="628" y="734"/>
      <point x="570" y="859"/>
      <point x="570" y="1039" type="curve" smooth="yes"/>
      <point x="572" y="1096"/>
      <point x="574" y="1153"/>
      <point x="574" y="1211" type="curve" smooth="yes"/>
      <point x="574" y="1268"/>
      <point x="575" y="1327"/>
      <point x="576" y="1384" type="curve" smooth="yes"/>
      <point x="576" y="1675"/>
      <point x="428" y="1805"/>
      <point x="135" y="1805" type="curve"/>
    </contour>
  </outline>
</glyph>
<glyph name="asciitilde" format="1">
  <advance width="2986"/>
  <unicode hex="007E"/>
  <outline>
    <contour>
      <point x="1647" y="1138"/>
      <point x="1572" y="1007"/>
      <point x="1436" y="1007" type="curve" smooth="yes"/>
      <point x="1414" y="1007"/>
      <point x="1388" y="1012"/>
      <point x="1358" y="1023" type="curve" smooth="yes"/>
      <point x="1247" y="1064"/>
      <point x="1138" y="1125"/>
      <point x="1028" y="1169" type="curve" smooth="yes"/>
      <point x="960" y="1195"/>
      <point x="882" y="1225"/>
      <point x="800" y="1225" type="curve" smooth="yes"/>
      <point x="742" y="1225"/>
      <point x="690" y="1216"/>
      <point x="644" y="1195" type="curve" smooth="yes"/>
      <point x="511" y="1138"/>
      <point x="420" y="1018"/>
      <point x="387" y="863" type="curve"/>
      <point x="544" y="788" type="line"/>
      <point x="573" y="911"/>
      <point x="653" y="1042"/>
      <point x="804" y="1042" type="curve" smooth="yes"/>
      <point x="832" y="1042"/>
      <point x="864" y="1037"/>
      <point x="899" y="1026" type="curve" smooth="yes"/>
      <point x="1016" y="989"/>
      <point x="1127" y="927"/>
      <point x="1235" y="880" type="curve" smooth="yes"/>
      <point x="1292" y="854"/>
      <point x="1363" y="823"/>
      <point x="1434" y="823" type="curve" smooth="yes"/>
      <point x="1489" y="823"/>
      <point x="1538" y="831"/>
      <point x="1583" y="850" type="curve" smooth="yes"/>
      <point x="1722" y="909"/>
      <point x="1806" y="1035"/>
      <point x="1844" y="1197" type="curve"/>
      <point x="1673" y="1250" type="line"/>
    </contour>
  </outline>
</glyph>
<glyph name="exclamdown" format="1">
  <advance width="1509"/>
  <unicode hex="00A1"/>
  <outline>
    <contour>
      <point x="532" y="685" type="line"/>
      <point x="532" y="-786" type="line"/>
      <point x="759" y="-786" type="line"/>
      <point x="759" y="685" type="line"/>
    </contour>
    <contour>
      <point x="532" y="1226" type="line"/>
      <point x="532" y="945" type="line"/>
      <point x="825" y="945" type="line"/>
      <point x="825" y="1226" type="line"/>
    </contour>
  </outline>
</glyph>
<glyph name="cent" format="1">
  <advance width="1110"/>
  <unicode hex="00A2"/>
  <outline>
    <contour>
      <point x="585" y="-414" type="line"/>
      <point x="718" y="-414" type="line"/>
      <point x="718" y="1366" type="line"/>
      <point x="585" y="1366" type="line"/>
    </contour>
    <component base="c"/>
  </outline>
</glyph>
<glyph name="sterling" format="1">
  <advance width="2435"/>
  <unicode hex="00A3"/>
  <outline>
    <contour>
      <point x="596" y="1977"/>
      <point x="479" y="1653"/>
      <point x="479" y="1175" type="curve" smooth="yes"/>
      <point x="479" y="1162"/>
      <point x="480" y="1149"/>
      <point x="482" y="1136" type="curve"/>
      <point x="233" y="1136" type="line"/>
      <point x="233" y="942" type="line"/>
      <point x="483" y="942" type="line"/>
      <point x="483" y="601" type="line" smooth="yes"/>
      <point x="483" y="371"/>
      <point x="375" y="272"/>
      <point x="233" y="189" type="curve"/>
      <point x="235" y="0" type="line"/>
      <point x="1554" y="0" type="line"/>
      <point x="1554" y="193" type="line"/>
      <point x="583" y="193" type="line"/>
      <point x="605" y="210"/>
      <point x="624" y="233"/>
      <point x="639" y="265" type="curve" smooth="yes"/>
      <point x="714" y="417"/>
      <point x="716" y="650"/>
      <point x="716" y="875" type="curve" smooth="yes"/>
      <point x="716" y="942" type="line"/>
      <point x="1167" y="942" type="line"/>
      <point x="1167" y="1136" type="line"/>
      <point x="714" y="1136" type="line"/>
      <point x="710" y="1293" type="line" smooth="yes"/>
      <point x="710" y="1578"/>
      <point x="798" y="1785"/>
      <point x="1082" y="1785" type="curve" smooth="yes"/>
      <point x="1234" y="1785"/>
      <point x="1361" y="1747"/>
      <point x="1456" y="1689" type="curve"/>
      <point x="1528" y="1853" type="line"/>
      <point x="1422" y="1936"/>
      <point x="1274" y="1977"/>
      <point x="1078" y="1977" type="curve" smooth="yes"/>
    </contour>
  </outline>
</glyph>
<glyph name="currency" format="1">
  <advance width="2535"/>
  <unicode hex="00A4"/>
  <outline>
    <contour>
      <point x="568" y="1571"/>
      <point x="311" y="1326"/>
      <point x="311" y="1036" type="curve" smooth="yes"/>
      <point x="311" y="745"/>
      <point x="554" y="507"/>
      <point x="845" y="507" type="curve" smooth="yes"/>
      <point x="1136" y="507"/>
      <point x="1372" y="732"/>
      <point x="1379" y="1022" type="curve" smooth="yes"/>
      <point x="1386" y="1312"/>
      <point x="1150" y="1557"/>
      <point x="859" y="1564" type="curve" smooth="yes"/>
    </contour>
    <contour>
      <point x="238" y="450" type="line"/>
      <point x="287" y="399" type="line"/>
      <point x="542" y="664" type="line"/>
      <point x="497" y="719" type="line"/>
    </contour>
    <contour>
      <point x="217" y="1587" type="line"/>
      <point x="483" y="1330" type="line"/>
      <point x="539" y="1380" type="line"/>
      <point x="270" y="1640" type="line"/>
    </contour>
    <contour>
      <point x="1083" y="1445"/>
      <point x="1259" y="1252"/>
      <point x="1254" y="1022" type="curve" smooth="yes"/>
      <point x="1248" y="791"/>
      <point x="1073" y="612"/>
      <point x="842" y="612" type="curve" smooth="yes"/>
      <point x="612" y="612"/>
      <point x="432" y="800"/>
      <point x="432" y="1032" type="curve" smooth="yes"/>
      <point x="432" y="1262"/>
      <point x="622" y="1456"/>
      <point x="853" y="1450" type="curve" smooth="yes"/>
    </contour>
    <contour>
      <point x="1164" y="675" type="line"/>
      <point x="1430" y="420" type="line"/>
      <point x="1480" y="469" type="line"/>
      <point x="1214" y="726" type="line"/>
    </contour>
    <contour>
      <point x="1148" y="1394" type="line"/>
      <point x="1203" y="1344" type="line"/>
      <point x="1460" y="1609" type="line"/>
      <point x="1405" y="1662" type="line"/>
    </contour>
  </outline>
</glyph>
<glyph name="yen" format="1">
  <advance width="2094"/>
  <unicode hex="00A5"/>
  <outline>
    <contour>
      <point x="611" y="0" type="line"/>
      <point x="814" y="0" type="line"/>
      <point x="814" y="333" type="line"/>
      <point x="1273" y="333" type="line"/>
      <point x="1273" y="496" type="line"/>
      <point x="810" y="496" type="line"/>
      <point x="810" y="674" type="line"/>
      <point x="1269" y="674" type="line"/>
      <point x="1269" y="840" type="line"/>
      <point x="842" y="840" type="line"/>
      <point x="1376" y="1668" type="line"/>
      <point x="1158" y="1668" type="line"/>
      <point x="1013" y="1424"/>
      <point x="869" y="1177"/>
      <point x="721" y="935" type="curve"/>
      <point x="580" y="1183"/>
      <point x="430" y="1424"/>
      <point x="286" y="1668" type="curve"/>
      <point x="46" y="1668" type="line"/>
      <point x="568" y="840" type="line"/>
      <point x="136" y="840" type="line"/>
      <point x="136" y="674" type="line"/>
      <point x="609" y="674" type="line"/>
      <point x="609" y="496" type="line"/>
      <point x="131" y="496" type="line"/>
      <point x="143" y="333" type="line"/>
      <point x="611" y="333" type="line"/>
    </contour>
  </outline>
</glyph>
<glyph name="brokenbar" format="1">
  <advance width="1024"/>
  <unicode hex="00A6"/>
  <outline>
    <contour>
      <point x="344" y="201" type="line"/>
      <point x="344" y="-1006" type="line"/>
      <point x="559" y="-1006" type="line"/>
      <point x="559" y="201" type="line"/>
    </contour>
    <contour>
      <point x="344" y="1774" type="line"/>
      <point x="344" y="589" type="line"/>
      <point x="559" y="589" type="line"/>
      <point x="559" y="1774" type="line"/>
    </contour>
  </outline>
</glyph>
<glyph name="section" format="1">
  <advance width="2247"/>
  <unicode hex="00A7"/>
  <outline>
    <contour>
      <point x="676" y="2006"/>
      <point x="428" y="1901"/>
      <point x="428" y="1629" type="curve" smooth="yes"/>
      <point x="428" y="1455"/>
      <point x="521" y="1369"/>
      <point x="637" y="1299" type="curve"/>
      <point x="517" y="1239"/>
      <point x="379" y="1140"/>
      <point x="379" y="963" type="curve" smooth="yes"/>
      <point x="379" y="919"/>
      <point x="387" y="878"/>
      <point x="402" y="841" type="curve" smooth="yes"/>
      <point x="454" y="714"/>
      <point x="573" y="642"/>
      <point x="701" y="587" type="curve" smooth="yes"/>
      <point x="816" y="538" type="line" smooth="yes"/>
      <point x="861" y="519"/>
      <point x="902" y="501"/>
      <point x="938" y="485" type="curve" smooth="yes"/>
      <point x="1016" y="448"/>
      <point x="1102" y="407"/>
      <point x="1102" y="299" type="curve" smooth="yes"/>
      <point x="1102" y="269"/>
      <point x="1096" y="242"/>
      <point x="1081" y="216" type="curve" smooth="yes"/>
      <point x="1032" y="130"/>
      <point x="916" y="89"/>
      <point x="778" y="89" type="curve" smooth="yes"/>
      <point x="636" y="89"/>
      <point x="526" y="126"/>
      <point x="413" y="176" type="curve"/>
      <point x="416" y="-27" type="line"/>
      <point x="520" y="-69"/>
      <point x="645" y="-98"/>
      <point x="784" y="-98" type="curve" smooth="yes"/>
      <point x="939" y="-98"/>
      <point x="1076" y="-57"/>
      <point x="1171" y="8" type="curve" smooth="yes"/>
      <point x="1261" y="71"/>
      <point x="1339" y="167"/>
      <point x="1339" y="311" type="curve" smooth="yes"/>
      <point x="1339" y="483"/>
      <point x="1232" y="564"/>
      <point x="1116" y="623" type="curve"/>
      <point x="1230" y="692"/>
      <point x="1370" y="795"/>
      <point x="1370" y="973" type="curve" smooth="yes"/>
      <point x="1370" y="1021"/>
      <point x="1358" y="1065"/>
      <point x="1336" y="1103" type="curve" smooth="yes"/>
      <point x="1235" y="1274"/>
      <point x="995" y="1334"/>
      <point x="817" y="1431" type="curve" smooth="yes"/>
      <point x="738" y="1475"/>
      <point x="663" y="1524"/>
      <point x="663" y="1635" type="curve" smooth="yes"/>
      <point x="663" y="1781"/>
      <point x="808" y="1819"/>
      <point x="956" y="1819" type="curve" smooth="yes"/>
      <point x="1071" y="1819"/>
      <point x="1183" y="1786"/>
      <point x="1265" y="1748" type="curve"/>
      <point x="1262" y="1950" type="line"/>
      <point x="1160" y="1981"/>
      <point x="1076" y="2006"/>
      <point x="950" y="2006" type="curve" smooth="yes"/>
    </contour>
    <contour>
      <point x="912" y="1153"/>
      <point x="1127" y="1123"/>
      <point x="1127" y="955" type="curve" smooth="yes"/>
      <point x="1127" y="927"/>
      <point x="1122" y="903"/>
      <point x="1110" y="879" type="curve" smooth="yes"/>
      <point x="1072" y="807"/>
      <point x="1000" y="757"/>
      <point x="933" y="714" type="curve"/>
      <point x="887" y="733"/>
      <point x="844" y="751"/>
      <point x="806" y="769" type="curve" smooth="yes"/>
      <point x="719" y="809"/>
      <point x="620" y="859"/>
      <point x="620" y="979" type="curve" smooth="yes"/>
      <point x="620" y="1102"/>
      <point x="720" y="1169"/>
      <point x="802" y="1213" type="curve"/>
    </contour>
  </outline>
</glyph>
<glyph name="dieresis" format="1">
  <advance width="1308"/>
  <unicode hex="00A8"/>
  <outline>
    <contour>
      <point x="300" y="1187" type="line"/>
      <point x="563" y="1187" type="line"/>
      <point x="563" y="1448" type="line"/>
      <point x="300" y="1448" type="line"/>
    </contour>
    <contour>
      <point x="745" y="1187" type="line"/>
      <point x="1008" y="1187" type="line"/>
      <point x="1008" y="1448" type="line"/>
      <point x="745" y="1448" type="line"/>
    </contour>
  </outline>
</glyph>
<glyph name="copyright" format="1">
  <advance width="3746"/>
  <unicode hex="00A9"/>
  <outline>
    <contour>
      <point x="970" y="2003"/>
      <point x="718" y="1869"/>
      <point x="536" y="1698" type="curve" smooth="yes"/>
      <point x="361" y="1533"/>
      <point x="211" y="1298"/>
      <point x="211" y="969" type="curve" smooth="yes"/>
      <point x="211" y="875"/>
      <point x="224" y="783"/>
      <point x="250" y="696" type="curve" smooth="yes"/>
      <point x="306" y="512"/>
      <point x="406" y="360"/>
      <point x="534" y="240" type="curve" smooth="yes"/>
      <point x="716" y="69"/>
      <point x="974" y="-66"/>
      <point x="1318" y="-66" type="curve" smooth="yes"/>
      <point x="1658" y="-66"/>
      <point x="1911" y="69"/>
      <point x="2091" y="240" type="curve" smooth="yes"/>
      <point x="2266" y="405"/>
      <point x="2414" y="640"/>
      <point x="2414" y="968" type="curve" smooth="yes"/>
      <point x="2414" y="1062"/>
      <point x="2401" y="1152"/>
      <point x="2375" y="1239" type="curve" smooth="yes"/>
      <point x="2319" y="1424"/>
      <point x="2218" y="1575"/>
      <point x="2091" y="1695" type="curve" smooth="yes"/>
      <point x="1910" y="1866"/>
      <point x="1654" y="2003"/>
      <point x="1310" y="2003" type="curve" smooth="yes"/>
    </contour>
    <contour>
      <point x="1268" y="1627"/>
      <point x="1176" y="1611"/>
      <point x="1094" y="1578" type="curve" smooth="yes"/>
      <point x="866" y="1488"/>
      <point x="698" y="1287"/>
      <point x="698" y="973" type="curve" smooth="yes"/>
      <point x="698" y="882"/>
      <point x="715" y="797"/>
      <point x="748" y="718" type="curve" smooth="yes"/>
      <point x="839" y="494"/>
      <point x="1044" y="318"/>
      <point x="1354" y="318" type="curve" smooth="yes"/>
      <point x="1518" y="318"/>
      <point x="1658" y="359"/>
      <point x="1776" y="441" type="curve"/>
      <point x="1722" y="606" type="line"/>
      <point x="1640" y="539"/>
      <point x="1536" y="497"/>
      <point x="1398" y="497" type="curve" smooth="yes"/>
      <point x="1317" y="497"/>
      <point x="1246" y="511"/>
      <point x="1184" y="535" type="curve" smooth="yes"/>
      <point x="1019" y="603"/>
      <point x="907" y="751"/>
      <point x="907" y="979" type="curve" smooth="yes"/>
      <point x="907" y="1044"/>
      <point x="918" y="1106"/>
      <point x="939" y="1163" type="curve" smooth="yes"/>
      <point x="999" y="1328"/>
      <point x="1138" y="1453"/>
      <point x="1359" y="1453" type="curve" smooth="yes"/>
      <point x="1505" y="1453"/>
      <point x="1628" y="1409"/>
      <point x="1728" y="1323" type="curve"/>
      <point x="1770" y="1487" type="line"/>
      <point x="1660" y="1581"/>
      <point x="1526" y="1627"/>
      <point x="1369" y="1627" type="curve" smooth="yes"/>
    </contour>
    <contour>
      <point x="1594" y="1843"/>
      <point x="1822" y="1733"/>
      <point x="1974" y="1589" type="curve" smooth="yes"/>
      <point x="2122" y="1449"/>
      <point x="2241" y="1239"/>
      <point x="2241" y="967" type="curve" smooth="yes"/>
      <point x="2241" y="695"/>
      <point x="2122" y="486"/>
      <point x="1975" y="347" type="curve" smooth="yes"/>
      <point x="1824" y="203"/>
      <point x="1600" y="94"/>
      <point x="1317" y="94" type="curve" smooth="yes"/>
      <point x="1033" y="94"/>
      <point x="805" y="202"/>
      <point x="652" y="347" type="curve" smooth="yes"/>
      <point x="503" y="487"/>
      <point x="384" y="697"/>
      <point x="384" y="971" type="curve" smooth="yes"/>
      <point x="384" y="1242"/>
      <point x="503" y="1453"/>
      <point x="652" y="1592" type="curve" smooth="yes"/>
      <point x="804" y="1734"/>
      <point x="1030" y="1843"/>
      <point x="1312" y="1843" type="curve" smooth="yes"/>
    </contour>
  </outline>
</glyph>
<glyph name="ordfeminine" format="1">
  <advance width="1034"/>
  <unicode hex="00AA"/>
  <outline>
    <contour>
      <point x="448" y="636" type="curve" smooth="yes"/>
      <point x="565" y="636"/>
      <point x="654" y="679"/>
      <point x="706" y="743" type="curve"/>
      <point x="713" y="657" type="line"/>
      <point x="867" y="657" type="line"/>
      <point x="861" y="728"/>
      <point x="859" y="755"/>
      <point x="859" y="807" type="curve" smooth="yes"/>
      <point x="861" y="1184" type="line"/>
      <point x="861" y="1378"/>
      <point x="731" y="1468"/>
      <point x="538" y="1468" type="curve" smooth="yes"/>
      <point x="383" y="1468"/>
      <point x="266" y="1420"/>
      <point x="206" y="1319" type="curve"/>
      <point x="285" y="1231" type="line"/>
      <point x="337" y="1308"/>
      <point x="415" y="1342"/>
      <point x="531" y="1342" type="curve" smooth="yes"/>
      <point x="660" y="1342"/>
      <point x="705" y="1295"/>
      <point x="705" y="1166" type="curve" smooth="yes"/>
      <point x="705" y="1156" type="line"/>
      <point x="618" y="1144"/>
      <point x="526" y="1146"/>
      <point x="439" y="1134" type="curve"/>
      <point x="298" y="1112"/>
      <point x="153" y="1039"/>
      <point x="153" y="879" type="curve" smooth="yes"/>
      <point x="153" y="842"/>
      <point x="160" y="809"/>
      <point x="175" y="779" type="curve" smooth="yes"/>
      <point x="219" y="690"/>
      <point x="316" y="636"/>
    </contour>
    <contour>
      <point x="472" y="757" type="curve" smooth="yes"/>
      <point x="381" y="757"/>
      <point x="313" y="790"/>
      <point x="313" y="881" type="curve" smooth="yes"/>
      <point x="313" y="1044"/>
      <point x="573" y="1011"/>
      <point x="705" y="1037" type="curve"/>
      <point x="705" y="1008" type="line"/>
      <point x="697" y="864"/>
      <point x="625" y="757"/>
    </contour>
  </outline>
</glyph>
<glyph name="guillemotleft" format="1">
  <advance width="2367"/>
  <unicode hex="00AB"/>
  <outline>
    <contour>
      <point x="879" y="1365" type="line"/>
      <point x="504" y="855" type="line"/>
      <point x="871" y="350" type="line"/>
      <point x="1085" y="350" type="line"/>
      <point x="736" y="855" type="line"/>
      <point x="1098" y="1365" type="line"/>
    </contour>
    <contour>
      <point x="1383" y="1365" type="line"/>
      <point x="1009" y="855" type="line"/>
      <point x="1376" y="350" type="line"/>
      <point x="1591" y="350" type="line"/>
      <point x="1241" y="855" type="line"/>
      <point x="1600" y="1365" type="line"/>
    </contour>
  </outline>
</glyph>
<glyph name="logicalnot" format="1">
  <advance width="2567"/>
  <unicode hex="00AC"/>
  <outline>
    <contour>
      <point x="1407" y="419" type="line"/>
      <point x="1583" y="419" type="line"/>
      <point x="1583" y="1077" type="line"/>
      <point x="353" y="1077" type="line"/>
      <point x="353" y="913" type="line"/>
      <point x="1407" y="913" type="line"/>
    </contour>
  </outline>
</glyph>
<glyph name="registered" format="1">
  <advance width="2183"/>
  <unicode hex="00AE"/>
  <outline>
    <contour>
      <point x="725" y="221" type="line"/>
      <point x="899" y="221" type="line"/>
      <point x="899" y="680" type="line"/>
      <point x="1059" y="680" type="line"/>
      <point x="1131" y="634"/>
      <point x="1182" y="554"/>
      <point x="1231" y="469" type="curve" smooth="yes"/>
      <point x="1376" y="221" type="line"/>
      <point x="1573" y="221" type="line"/>
      <point x="1535" y="285"/>
      <point x="1501" y="340"/>
      <point x="1469" y="391" type="curve" smooth="yes"/>
      <point x="1398" y="505"/>
      <point x="1330" y="615"/>
      <point x="1240" y="700" type="curve"/>
      <point x="1411" y="722"/>
      <point x="1551" y="810"/>
      <point x="1551" y="998" type="curve" smooth="yes"/>
      <point x="1551" y="1095"/>
      <point x="1510" y="1170"/>
      <point x="1427" y="1222" type="curve" smooth="yes"/>
      <point x="1344" y="1274"/>
      <point x="1217" y="1299"/>
      <point x="1045" y="1299" type="curve" smooth="yes"/>
      <point x="725" y="1299" type="line"/>
    </contour>
    <contour>
      <point x="1096" y="-138" type="curve" smooth="yes"/>
      <point x="1388" y="-138"/>
      <point x="1606" y="-22"/>
      <point x="1761" y="125" type="curve" smooth="yes"/>
      <point x="1911" y="267"/>
      <point x="2039" y="469"/>
      <point x="2039" y="751" type="curve" smooth="yes"/>
      <point x="2039" y="832"/>
      <point x="2027" y="910"/>
      <point x="2005" y="985" type="curve" smooth="yes"/>
      <point x="1957" y="1144"/>
      <point x="1870" y="1274"/>
      <point x="1761" y="1377" type="curve" smooth="yes"/>
      <point x="1605" y="1524"/>
      <point x="1386" y="1642"/>
      <point x="1090" y="1642" type="curve" smooth="yes"/>
      <point x="798" y="1642"/>
      <point x="581" y="1526"/>
      <point x="424" y="1379" type="curve"/>
      <point x="274" y="1237"/>
      <point x="144" y="1035"/>
      <point x="144" y="752" type="curve" smooth="yes"/>
      <point x="144" y="671"/>
      <point x="156" y="593"/>
      <point x="178" y="518" type="curve" smooth="yes"/>
      <point x="226" y="360"/>
      <point x="312" y="228"/>
      <point x="422" y="125" type="curve" smooth="yes"/>
      <point x="579" y="-22"/>
      <point x="800" y="-138"/>
    </contour>
    <contour>
      <point x="1096" y="0" type="curve" smooth="yes"/>
      <point x="852" y="0"/>
      <point x="656" y="92"/>
      <point x="524" y="217" type="curve" smooth="yes"/>
      <point x="396" y="337"/>
      <point x="293" y="518"/>
      <point x="293" y="754" type="curve" smooth="yes"/>
      <point x="293" y="987"/>
      <point x="396" y="1167"/>
      <point x="524" y="1288" type="curve" smooth="yes"/>
      <point x="655" y="1411"/>
      <point x="848" y="1504"/>
      <point x="1091" y="1504" type="curve" smooth="yes"/>
      <point x="1334" y="1504"/>
      <point x="1530" y="1410"/>
      <point x="1661" y="1286" type="curve" smooth="yes"/>
      <point x="1788" y="1166"/>
      <point x="1890" y="985"/>
      <point x="1890" y="751" type="curve" smooth="yes"/>
      <point x="1890" y="510"/>
      <point x="1790" y="337"/>
      <point x="1662" y="217" type="curve" smooth="yes"/>
      <point x="1531" y="93"/>
      <point x="1346" y="0"/>
    </contour>
    <contour>
      <point x="896" y="819" type="line"/>
      <point x="895" y="1158" type="line"/>
      <point x="1041" y="1158" type="line" smooth="yes"/>
      <point x="1221" y="1158"/>
      <point x="1369" y="1157"/>
      <point x="1369" y="980" type="curve" smooth="yes"/>
      <point x="1369" y="821"/>
      <point x="1205" y="819"/>
      <point x="1043" y="819" type="curve" smooth="yes"/>
    </contour>
  </outline>
</glyph>
<glyph name="macron" format="1">
  <advance width="1282"/>
  <unicode hex="00AF"/>
  <outline>
    <contour>
      <point x="139" y="2084" type="line"/>
      <point x="811" y="2084" type="line"/>
      <point x="811" y="2241" type="line"/>
      <point x="139" y="2241" type="line"/>
    </contour>
    <contour>
      <point x="475" y="0" type="move" name="_top"/>
    </contour>
  </outline>
</glyph>
<glyph name="degree" format="1">
  <advance width="1460"/>
  <unicode hex="00B0"/>
  <outline>
    <contour>
      <point x="530" y="915" type="curve" smooth="yes"/>
      <point x="425" y="915"/>
      <point x="315" y="985"/>
      <point x="315" y="1125" type="curve" smooth="yes"/>
      <point x="315" y="1235"/>
      <point x="406" y="1333"/>
      <point x="530" y="1333" type="curve" smooth="yes"/>
      <point x="636" y="1333"/>
      <point x="745" y="1262"/>
      <point x="745" y="1125" type="curve" smooth="yes"/>
      <point x="745" y="1017"/>
      <point x="657" y="915"/>
    </contour>
    <contour>
      <point x="530" y="778" type="curve" smooth="yes"/>
      <point x="702" y="778"/>
      <point x="892" y="901"/>
      <point x="892" y="1126" type="curve" smooth="yes"/>
      <point x="892" y="1303"/>
      <point x="744" y="1469"/>
      <point x="530" y="1469" type="curve" smooth="yes"/>
      <point x="358" y="1469"/>
      <point x="168" y="1347"/>
      <point x="168" y="1126" type="curve" smooth="yes"/>
      <point x="168" y="946"/>
      <point x="318" y="778"/>
    </contour>
  </outline>
</glyph>
<glyph name="plusminus" format="1">
  <advance width="2986"/>
  <unicode hex="00B1"/>
  <outline>
    <contour>
      <point x="1009" y="1511" type="line"/>
      <point x="1009" y="1001" type="line"/>
      <point x="385" y="1001" type="line"/>
      <point x="402" y="813" type="line"/>
      <point x="1012" y="813" type="line"/>
      <point x="1012" y="305" type="line"/>
      <point x="1218" y="305" type="line"/>
      <point x="1218" y="813" type="line"/>
      <point x="1828" y="813" type="line"/>
      <point x="1828" y="1001" type="line"/>
      <point x="1212" y="1001" type="line"/>
      <point x="1212" y="1511" type="line"/>
    </contour>
    <contour>
      <point x="402" y="189" type="line"/>
      <point x="402" y="0" type="line"/>
      <point x="1834" y="0" type="line"/>
      <point x="1834" y="189" type="line"/>
    </contour>
  </outline>
</glyph>
<glyph name="uni00B2" format="1">
  <advance width="2437"/>
  <unicode hex="00B2"/>
  <outline>
    <contour>
      <point x="779" y="2378"/>
      <point x="649" y="2283"/>
      <point x="591" y="2146" type="curve"/>
      <point x="707" y="2040" type="line"/>
      <point x="752" y="2136"/>
      <point x="829" y="2219"/>
      <point x="959" y="2219" type="curve" smooth="yes"/>
      <point x="1067" y="2219"/>
      <point x="1151" y="2168"/>
      <point x="1151" y="2066" type="curve" smooth="yes"/>
      <point x="1151" y="2028"/>
      <point x="1137" y="1985"/>
      <point x="1108" y="1939" type="curve" smooth="yes"/>
      <point x="1079" y="1892"/>
      <point x="1041" y="1842"/>
      <point x="991" y="1786" type="curve" smooth="yes"/>
      <point x="869" y="1652"/>
      <point x="725" y="1521"/>
      <point x="580" y="1388" type="curve"/>
      <point x="580" y="1237" type="line"/>
      <point x="1325" y="1237" type="line"/>
      <point x="1325" y="1398" type="line"/>
      <point x="828" y="1398" type="line"/>
      <point x="954" y="1507"/>
      <point x="1081" y="1612"/>
      <point x="1182" y="1734" type="curve" smooth="yes"/>
      <point x="1255" y="1823"/>
      <point x="1327" y="1925"/>
      <point x="1327" y="2068" type="curve" smooth="yes"/>
      <point x="1327" y="2116"/>
      <point x="1317" y="2158"/>
      <point x="1299" y="2197" type="curve" smooth="yes"/>
      <point x="1246" y="2308"/>
      <point x="1129" y="2378"/>
      <point x="967" y="2378" type="curve" smooth="yes"/>
    </contour>
  </outline>
</glyph>
<glyph name="uni00B3" format="1">
  <advance width="2437"/>
  <unicode hex="00B3"/>
  <outline>
    <contour>
      <point x="683" y="2367"/>
      <point x="556" y="2303"/>
      <point x="481" y="2229" type="curve"/>
      <point x="560" y="2099" type="line"/>
      <point x="627" y="2153"/>
      <point x="710" y="2205"/>
      <point x="822" y="2205" type="curve" smooth="yes"/>
      <point x="933" y="2205"/>
      <point x="1015" y="2163"/>
      <point x="1015" y="2052" type="curve" smooth="yes"/>
      <point x="1015" y="1915"/>
      <point x="884" y="1887"/>
      <point x="746" y="1887" type="curve" smooth="yes"/>
      <point x="679" y="1887" type="line"/>
      <point x="679" y="1725" type="line"/>
      <point x="714" y="1725" type="line" smooth="yes"/>
      <point x="727" y="1725"/>
      <point x="746" y="1726"/>
      <point x="756" y="1726" type="curve" smooth="yes"/>
      <point x="910" y="1726"/>
      <point x="1049" y="1695"/>
      <point x="1049" y="1543" type="curve" smooth="yes"/>
      <point x="1049" y="1417"/>
      <point x="938" y="1357"/>
      <point x="810" y="1357" type="curve" smooth="yes"/>
      <point x="722" y="1357"/>
      <point x="640" y="1393"/>
      <point x="563" y="1463" type="curve"/>
      <point x="481" y="1333" type="line"/>
      <point x="559" y="1255"/>
      <point x="671" y="1200"/>
      <point x="817" y="1200" type="curve" smooth="yes"/>
      <point x="872" y="1200"/>
      <point x="925" y="1208"/>
      <point x="974" y="1223" type="curve" smooth="yes"/>
      <point x="1108" y="1265"/>
      <point x="1225" y="1367"/>
      <point x="1225" y="1539" type="curve" smooth="yes"/>
      <point x="1225" y="1679"/>
      <point x="1152" y="1764"/>
      <point x="1050" y="1809" type="curve"/>
      <point x="1135" y="1854"/>
      <point x="1196" y="1935"/>
      <point x="1196" y="2056" type="curve" smooth="yes"/>
      <point x="1196" y="2107"/>
      <point x="1186" y="2151"/>
      <point x="1165" y="2189" type="curve" smooth="yes"/>
      <point x="1108" y="2295"/>
      <point x="988" y="2367"/>
      <point x="825" y="2367" type="curve" smooth="yes"/>
    </contour>
  </outline>
</glyph>
<glyph name="uni00B3" format="1">
  <advance width="2095"/>
  <unicode hex="00B3"/>
  <outline>
    <contour>
      <point x="703" y="1032" type="curve" smooth="yes"/>
      <point x="750" y="1032"/>
      <point x="796" y="1039"/>
      <point x="838" y="1052" type="curve" smooth="yes"/>
      <point x="953" y="1088"/>
      <point x="1054" y="1176"/>
      <point x="1054" y="1324" type="curve" smooth="yes"/>
      <point x="1054" y="1444"/>
      <point x="991" y="1517"/>
      <point x="903" y="1556" type="curve"/>
      <point x="976" y="1595"/>
      <point x="1029" y="1664"/>
      <point x="1029" y="1768" type="curve" smooth="yes"/>
      <point x="1029" y="1812"/>
      <point x="1020" y="1850"/>
      <point x="1002" y="1883" type="curve" smooth="yes"/>
      <point x="953" y="1974"/>
      <point x="850" y="2036"/>
      <point x="710" y="2036" type="curve" smooth="yes"/>
      <point x="588" y="2036"/>
      <point x="478" y="1981"/>
      <point x="414" y="1917" type="curve"/>
      <point x="482" y="1805" type="line"/>
      <point x="540" y="1851"/>
      <point x="611" y="1896"/>
      <point x="707" y="1896" type="curve" smooth="yes"/>
      <point x="802" y="1896"/>
      <point x="873" y="1860"/>
      <point x="873" y="1765" type="curve" smooth="yes"/>
      <point x="873" y="1647"/>
      <point x="761" y="1623"/>
      <point x="642" y="1623" type="curve" smooth="yes"/>
      <point x="584" y="1623" type="line"/>
      <point x="584" y="1484" type="line"/>
      <point x="614" y="1484" type="line"/>
      <point x="650" y="1484" type="line" smooth="yes"/>
      <point x="782" y="1484"/>
      <point x="902" y="1458"/>
      <point x="902" y="1327" type="curve" smooth="yes"/>
      <point x="902" y="1219"/>
      <point x="807" y="1167"/>
      <point x="697" y="1167" type="curve" smooth="yes"/>
      <point x="621" y="1167"/>
      <point x="550" y="1198"/>
      <point x="484" y="1258" type="curve"/>
      <point x="414" y="1146" type="line"/>
      <point x="481" y="1079"/>
      <point x="577" y="1032"/>
    </contour>
  </outline>
</glyph>
<glyph name="acute" format="1">
  <advance width="1243"/>
  <unicode hex="00B4"/>
  <outline>
    <contour>
      <point x="667" y="2837" type="line"/>
      <point x="358" y="2400" type="line"/>
      <point x="618" y="2400" type="line"/>
      <point x="1038" y="2837" type="line"/>
    </contour>
    <contour>
      <point x="501" y="2201" type="move" name="_top"/>
    </contour>
  </outline>
</glyph>
<glyph name="paragraph" format="1">
  <advance width="2486"/>
  <unicode hex="00B6"/>
  <outline>
    <contour>
      <point x="924" y="1880" type="line" smooth="yes"/>
      <point x="563" y="1880"/>
      <point x="219" y="1802"/>
      <point x="219" y="1442" type="curve" smooth="yes"/>
      <point x="219" y="1372"/>
      <point x="232" y="1308"/>
      <point x="256" y="1251" type="curve" smooth="yes"/>
      <point x="322" y="1096"/>
      <point x="464" y="975"/>
      <point x="676" y="972" type="curve"/>
      <point x="676" y="-303" type="line"/>
      <point x="872" y="-303" type="line"/>
      <point x="872" y="1711" type="line"/>
      <point x="1156" y="1711" type="line"/>
      <point x="1156" y="-303" type="line"/>
      <point x="1332" y="-303" type="line"/>
      <point x="1332" y="1711" type="line"/>
      <point x="1450" y="1711" type="line"/>
      <point x="1450" y="1880" type="line"/>
    </contour>
  </outline>
</glyph>
<glyph name="periodcentered" format="1">
  <advance width="909"/>
  <unicode hex="00B7"/>
  <outline>
    <contour>
      <point x="156" y="1338" type="line"/>
      <point x="156" y="1051" type="line"/>
      <point x="452" y="1051" type="line"/>
      <point x="452" y="1338" type="line"/>
    </contour>
  </outline>
</glyph>
<glyph name="cedilla" format="1">
  <advance width="1083"/>
  <unicode hex="00B8"/>
  <outline>
    <contour>
      <point x="281" y="-247" type="line"/>
      <point x="236" y="-506" type="line"/>
      <point x="280" y="-504" type="line" smooth="yes"/>
      <point x="295" y="-502"/>
      <point x="318" y="-500"/>
      <point x="330" y="-500" type="curve" smooth="yes"/>
      <point x="412" y="-500"/>
      <point x="479" y="-519"/>
      <point x="479" y="-600" type="curve" smooth="yes"/>
      <point x="479" y="-676"/>
      <point x="413" y="-698"/>
      <point x="323" y="-698" type="curve" smooth="yes"/>
      <point x="250" y="-698"/>
      <point x="185" y="-681"/>
      <point x="117" y="-665" type="curve"/>
      <point x="106" y="-781" type="line"/>
      <point x="180" y="-796"/>
      <point x="263" y="-811"/>
      <point x="345" y="-811" type="curve" smooth="yes"/>
      <point x="511" y="-811"/>
      <point x="674" y="-760"/>
      <point x="674" y="-596" type="curve" smooth="yes"/>
      <point x="674" y="-449"/>
      <point x="543" y="-400"/>
      <point x="401" y="-393" type="curve"/>
      <point x="389" y="-393" type="line"/>
      <point x="413" y="-247" type="line"/>
    </contour>
    <contour>
      <point x="348" y="-270" type="move" name="_bottom"/>
    </contour>
  </outline>
</glyph>
<glyph name="uni00B9" format="1">
  <advance width="2437"/>
  <unicode hex="00B9"/>
  <outline>
    <contour>
      <point x="720" y="2340" type="line"/>
      <point x="649" y="2298"/>
      <point x="582" y="2261"/>
      <point x="491" y="2232" type="curve"/>
      <point x="489" y="2055" type="line"/>
      <point x="558" y="2081"/>
      <point x="637" y="2116"/>
      <point x="697" y="2148" type="curve"/>
      <point x="697" y="2007" type="line" smooth="yes"/>
      <point x="697" y="1936"/>
      <point x="698" y="1869"/>
      <point x="698" y="1788" type="curve" smooth="yes"/>
      <point x="698" y="1400" type="line"/>
      <point x="532" y="1400" type="line"/>
      <point x="532" y="1237" type="line"/>
      <point x="1030" y="1237" type="line"/>
      <point x="1030" y="1396" type="line"/>
      <point x="864" y="1396" type="line"/>
      <point x="864" y="2360" type="line"/>
    </contour>
  </outline>
</glyph>
<glyph name="ordmasculine" format="1">
  <advance width="1688"/>
  <unicode hex="00BA"/>
  <outline>
    <contour>
      <point x="524" y="2539"/>
      <point x="454" y="2525"/>
      <point x="393" y="2501" type="curve" smooth="yes"/>
      <point x="228" y="2432"/>
      <point x="109" y="2286"/>
      <point x="109" y="2058" type="curve" smooth="yes"/>
      <point x="109" y="1754"/>
      <point x="297" y="1571"/>
      <point x="604" y="1571" type="curve" smooth="yes"/>
      <point x="684" y="1571"/>
      <point x="754" y="1583"/>
      <point x="814" y="1609" type="curve" smooth="yes"/>
      <point x="978" y="1678"/>
      <point x="1093" y="1826"/>
      <point x="1093" y="2054" type="curve" smooth="yes"/>
      <point x="1093" y="2122"/>
      <point x="1082" y="2185"/>
      <point x="1062" y="2244" type="curve" smooth="yes"/>
      <point x="999" y="2422"/>
      <point x="843" y="2539"/>
      <point x="603" y="2539" type="curve" smooth="yes"/>
    </contour>
    <contour>
      <point x="798" y="2393"/>
      <point x="905" y="2250"/>
      <point x="905" y="2052" type="curve" smooth="yes"/>
      <point x="905" y="1860"/>
      <point x="797" y="1718"/>
      <point x="604" y="1718" type="curve" smooth="yes"/>
      <point x="404" y="1718"/>
      <point x="300" y="1858"/>
      <point x="300" y="2057" type="curve" smooth="yes"/>
      <point x="300" y="2250"/>
      <point x="406" y="2393"/>
      <point x="600" y="2393" type="curve" smooth="yes"/>
    </contour>
  </outline>
</glyph>
<glyph name="guillemotright" format="1">
  <advance width="2367"/>
  <unicode hex="00BB"/>
  <outline>
    <contour>
      <point x="347" y="1365" type="line"/>
      <point x="700" y="857" type="line"/>
      <point x="338" y="350" type="line"/>
      <point x="557" y="350" type="line"/>
      <point x="932" y="857" type="line"/>
      <point x="563" y="1365" type="line"/>
    </contour>
    <contour>
      <point x="891" y="1365" type="line"/>
      <point x="1238" y="857" type="line"/>
      <point x="881" y="350" type="line"/>
      <point x="1096" y="350" type="line"/>
      <point x="1473" y="857" type="line"/>
      <point x="1104" y="1365" type="line"/>
    </contour>
  </outline>
</glyph>
<glyph name="onequarter" format="1">
  <advance width="4324"/>
  <unicode hex="00BC"/>
  <outline>
    <contour>
      <point x="-593" y="0" type="line"/>
      <point x="-416" y="0" type="line"/>
      <point x="515" y="1482" type="line"/>
      <point x="515" y="1413" type="line"/>
      <point x="573" y="1435"/>
      <point x="641" y="1465"/>
      <point x="693" y="1492" type="curve"/>
      <point x="693" y="1372" type="line" smooth="yes"/>
      <point x="693" y="1311"/>
      <point x="694" y="1253"/>
      <point x="694" y="1183" type="curve" smooth="yes"/>
      <point x="694" y="849" type="line"/>
      <point x="551" y="849" type="line"/>
      <point x="551" y="710" type="line"/>
      <point x="980" y="710" type="line"/>
      <point x="980" y="845" type="line"/>
      <point x="837" y="845" type="line"/>
      <point x="837" y="1675" type="line"/>
      <point x="713" y="1658" type="line"/>
      <point x="672" y="1632"/>
      <point x="631" y="1610"/>
      <point x="584" y="1590" type="curve"/>
      <point x="644" y="1686" type="line"/>
      <point x="469" y="1686" type="line"/>
    </contour>
    <contour>
      <point x="2049" y="722" type="line"/>
      <point x="2190" y="722" type="line"/>
      <point x="2190" y="943" type="line"/>
      <point x="2332" y="943" type="line"/>
      <point x="2321" y="1069" type="line"/>
      <point x="2193" y="1069" type="line"/>
      <point x="2193" y="1658" type="line"/>
      <point x="2036" y="1658" type="line"/>
      <point x="1606" y="1050" type="line"/>
      <point x="1606" y="943" type="line"/>
      <point x="2049" y="943" type="line"/>
    </contour>
    <contour>
      <point x="1769" y="1069" type="line"/>
      <point x="2049" y="1461" type="line"/>
      <point x="2049" y="1069" type="line"/>
    </contour>
  </outline>
</glyph>
<glyph name="onehalf" format="1">
  <advance width="5628"/>
  <unicode hex="00BD"/>
  <outline>
    <contour>
      <point x="545" y="1961" type="line"/>
      <point x="-690" y="0" type="line"/>
      <point x="-484" y="0" type="line"/>
      <point x="749" y="1961" type="line"/>
    </contour>
    <contour>
      <point x="858" y="1966"/>
      <point x="729" y="1871"/>
      <point x="670" y="1734" type="curve"/>
      <point x="786" y="1627" type="line"/>
      <point x="831" y="1723"/>
      <point x="909" y="1807"/>
      <point x="1039" y="1807" type="curve" smooth="yes"/>
      <point x="1146" y="1807"/>
      <point x="1229" y="1756"/>
      <point x="1229" y="1653" type="curve" smooth="yes"/>
      <point x="1229" y="1615"/>
      <point x="1216" y="1573"/>
      <point x="1187" y="1527" type="curve" smooth="yes"/>
      <point x="1159" y="1480"/>
      <point x="1120" y="1429"/>
      <point x="1070" y="1373" type="curve" smooth="yes"/>
      <point x="948" y="1240"/>
      <point x="803" y="1109"/>
      <point x="659" y="976" type="curve"/>
      <point x="659" y="825" type="line"/>
      <point x="1404" y="825" type="line"/>
      <point x="1404" y="986" type="line"/>
      <point x="907" y="986" type="line"/>
      <point x="1033" y="1095"/>
      <point x="1160" y="1200"/>
      <point x="1261" y="1321" type="curve" smooth="yes"/>
      <point x="1335" y="1411"/>
      <point x="1406" y="1513"/>
      <point x="1406" y="1656" type="curve" smooth="yes"/>
      <point x="1406" y="1704"/>
      <point x="1396" y="1746"/>
      <point x="1379" y="1785" type="curve" smooth="yes"/>
      <point x="1325" y="1895"/>
      <point x="1208" y="1966"/>
      <point x="1047" y="1966" type="curve" smooth="yes"/>
    </contour>
    <contour>
      <point x="2454" y="1928" type="line"/>
      <point x="2383" y="1885"/>
      <point x="2317" y="1849"/>
      <point x="2225" y="1820" type="curve"/>
      <point x="2223" y="1643" type="line"/>
      <point x="2292" y="1669"/>
      <point x="2371" y="1704"/>
      <point x="2431" y="1735" type="curve"/>
      <point x="2431" y="1595" type="line" smooth="yes"/>
      <point x="2431" y="1524"/>
      <point x="2433" y="1457"/>
      <point x="2433" y="1376" type="curve" smooth="yes"/>
      <point x="2433" y="987" type="line"/>
      <point x="2266" y="987" type="line"/>
      <point x="2266" y="825" type="line"/>
      <point x="2764" y="825" type="line"/>
      <point x="2764" y="983" type="line"/>
      <point x="2597" y="983" type="line"/>
      <point x="2597" y="1948" type="line"/>
    </contour>
  </outline>
</glyph>
<glyph name="threequarters" format="1">
  <advance width="5028"/>
  <unicode hex="00BE"/>
  <outline>
    <contour>
      <point x="545" y="1961" type="line"/>
      <point x="-690" y="0" type="line"/>
      <point x="-484" y="0" type="line"/>
      <point x="749" y="1961" type="line"/>
    </contour>
    <contour>
      <point x="795" y="1967"/>
      <point x="669" y="1903"/>
      <point x="593" y="1829" type="curve"/>
      <point x="673" y="1699" type="line"/>
      <point x="739" y="1753"/>
      <point x="823" y="1805"/>
      <point x="935" y="1805" type="curve" smooth="yes"/>
      <point x="1045" y="1805"/>
      <point x="1127" y="1763"/>
      <point x="1127" y="1652" type="curve" smooth="yes"/>
      <point x="1127" y="1515"/>
      <point x="996" y="1487"/>
      <point x="858" y="1487" type="curve" smooth="yes"/>
      <point x="791" y="1487" type="line"/>
      <point x="791" y="1325" type="line"/>
      <point x="827" y="1325" type="line" smooth="yes"/>
      <point x="839" y="1325"/>
      <point x="858" y="1326"/>
      <point x="868" y="1326" type="curve" smooth="yes"/>
      <point x="1022" y="1326"/>
      <point x="1161" y="1295"/>
      <point x="1161" y="1143" type="curve" smooth="yes"/>
      <point x="1161" y="1017"/>
      <point x="1051" y="957"/>
      <point x="923" y="957" type="curve" smooth="yes"/>
      <point x="833" y="957"/>
      <point x="752" y="993"/>
      <point x="675" y="1063" type="curve"/>
      <point x="593" y="933" type="line"/>
      <point x="671" y="855"/>
      <point x="783" y="800"/>
      <point x="929" y="800" type="curve" smooth="yes"/>
      <point x="984" y="800"/>
      <point x="1037" y="808"/>
      <point x="1086" y="823" type="curve" smooth="yes"/>
      <point x="1220" y="865"/>
      <point x="1337" y="967"/>
      <point x="1337" y="1139" type="curve" smooth="yes"/>
      <point x="1337" y="1279"/>
      <point x="1264" y="1364"/>
      <point x="1163" y="1409" type="curve"/>
      <point x="1247" y="1454"/>
      <point x="1309" y="1535"/>
      <point x="1309" y="1656" type="curve" smooth="yes"/>
      <point x="1309" y="1707"/>
      <point x="1298" y="1751"/>
      <point x="1277" y="1789" type="curve" smooth="yes"/>
      <point x="1220" y="1895"/>
      <point x="1100" y="1967"/>
      <point x="937" y="1967" type="curve" smooth="yes"/>
    </contour>
    <contour>
      <point x="2367" y="1928" type="line"/>
      <point x="1867" y="1221" type="line"/>
      <point x="1867" y="1097" type="line"/>
      <point x="2383" y="1097" type="line"/>
      <point x="2383" y="840" type="line"/>
      <point x="2547" y="840" type="line"/>
      <point x="2547" y="1097" type="line"/>
      <point x="2712" y="1097" type="line"/>
      <point x="2699" y="1243" type="line"/>
      <point x="2550" y="1243" type="line"/>
      <point x="2550" y="1928" type="line"/>
    </contour>
    <contour>
      <point x="2383" y="1243" type="line"/>
      <point x="2057" y="1243" type="line"/>
      <point x="2383" y="1699" type="line"/>
    </contour>
  </outline>
</glyph>
<glyph name="questiondown" format="1">
  <advance width="1818"/>
  <unicode hex="00BF"/>
  <outline>
    <contour>
      <point x="833" y="-20" type="curve" smooth="yes"/>
      <point x="958" y="-20"/>
      <point x="1069" y="11"/>
      <point x="1163" y="57" type="curve"/>
      <point x="1163" y="229" type="line"/>
      <point x="1080" y="182"/>
      <point x="979" y="147"/>
      <point x="857" y="147" type="curve" smooth="yes"/>
      <point x="677" y="147"/>
      <point x="521" y="215"/>
      <point x="521" y="395" type="curve" smooth="yes"/>
      <point x="521" y="442"/>
      <point x="532" y="485"/>
      <point x="554" y="525" type="curve" smooth="yes"/>
      <point x="626" y="654"/>
      <point x="755" y="741"/>
      <point x="855" y="848" type="curve" smooth="yes"/>
      <point x="911" y="909"/>
      <point x="972" y="986"/>
      <point x="972" y="1094" type="curve" smooth="yes"/>
      <point x="972" y="1152"/>
      <point x="966" y="1227"/>
      <point x="960" y="1284" type="curve"/>
      <point x="767" y="1284" type="line"/>
      <point x="777" y="1225" type="line"/>
      <point x="784" y="1195"/>
      <point x="788" y="1150"/>
      <point x="788" y="1114" type="curve" smooth="yes"/>
      <point x="788" y="1077"/>
      <point x="776" y="1040"/>
      <point x="753" y="1003" type="curve" smooth="yes"/>
      <point x="672" y="874"/>
      <point x="540" y="774"/>
      <point x="444" y="657" type="curve" smooth="yes"/>
      <point x="386" y="586"/>
      <point x="322" y="502"/>
      <point x="322" y="385" type="curve" smooth="yes"/>
      <point x="322" y="317"/>
      <point x="335" y="259"/>
      <point x="361" y="208" type="curve" smooth="yes"/>
      <point x="438" y="59"/>
      <point x="607" y="-20"/>
    </contour>
    <contour>
      <point x="737" y="1483" type="line"/>
      <point x="992" y="1483" type="line"/>
      <point x="992" y="1729" type="line"/>
      <point x="737" y="1729" type="line"/>
    </contour>
  </outline>
</glyph>
<glyph name="Agrave" format="1">
  <advance width="1425"/>
  <unicode hex="00C0"/>
  <outline>
    <contour>
      <point x="13" y="0" type="line"/>
      <point x="199" y="0" type="line"/>
      <point x="355" y="397" type="line"/>
      <point x="1053" y="397" type="line"/>
      <point x="1216" y="0" type="line"/>
      <point x="1407" y="0" type="line"/>
      <point x="802" y="1456" type="line"/>
      <point x="617" y="1456" type="line"/>
    </contour>
    <contour>
      <point x="410" y="545" type="line"/>
      <point x="655" y="1149" type="line"/>
      <point x="670" y="1191"/>
      <point x="692" y="1252"/>
      <point x="707" y="1298" type="curve"/>
      <point x="721" y="1252"/>
      <point x="742" y="1192"/>
      <point x="760" y="1150" type="curve"/>
      <point x="993.999" y="545" type="line"/>
    </contour>
    <contour>
      <point x="678" y="1602" type="line"/>
      <point x="807" y="1602" type="line"/>
      <point x="560" y="1922" type="line"/>
      <point x="346" y="1922" type="line"/>
    </contour>
  </outline>
</glyph>
<glyph name="Aacute" format="1">
  <advance width="1425"/>
  <unicode hex="00C1"/>
  <outline>
    <contour>
      <point x="13" y="0" type="line"/>
      <point x="199" y="0" type="line"/>
      <point x="355" y="397" type="line"/>
      <point x="1053" y="397" type="line"/>
      <point x="1216" y="0" type="line"/>
      <point x="1407" y="0" type="line"/>
      <point x="802" y="1456" type="line"/>
      <point x="617" y="1456" type="line"/>
    </contour>
    <contour>
      <point x="410" y="545" type="line"/>
      <point x="655" y="1149" type="line"/>
      <point x="670" y="1191"/>
      <point x="692" y="1252"/>
      <point x="707" y="1298" type="curve"/>
      <point x="721" y="1252"/>
      <point x="742" y="1192"/>
      <point x="760" y="1150" type="curve"/>
      <point x="993.999" y="545" type="line"/>
    </contour>
    <contour>
      <point x="632" y="1602" type="line"/>
      <point x="762" y="1602" type="line"/>
      <point x="1070" y="1922" type="line"/>
      <point x="858" y="1922" type="line"/>
    </contour>
  </outline>
</glyph>
<glyph name="AE" format="1">
  <advance width="4153"/>
  <unicode hex="00C6"/>
  <outline>
    <contour>
      <point x="10" y="0" type="line"/>
      <point x="278" y="0" type="line"/>
      <point x="586" y="543" type="line"/>
      <point x="1469" y="543" type="line"/>
      <point x="1511" y="0" type="line"/>
      <point x="2599" y="0" type="line"/>
      <point x="2599" y="202" type="line"/>
      <point x="1719" y="202" type="line"/>
      <point x="1663" y="917" type="line"/>
      <point x="2511" y="917" type="line"/>
      <point x="2511" y="1119" type="line"/>
      <point x="1637" y="1119" type="line"/>
      <point x="1586" y="1786" type="line"/>
      <point x="2567" y="1786" type="line"/>
      <point x="2567" y="1988" type="line"/>
      <point x="1145" y="1988" type="line"/>
    </contour>
    <contour>
      <point x="694" y="745" type="line"/>
      <point x="1292" y="1786" type="line"/>
      <point x="1361" y="1786" type="line"/>
      <point x="1443" y="745" type="line"/>
    </contour>
    <contour>
      <point x="1388" y="0" type="move" name="top"/>
    </contour>
  </outline>
</glyph>
<glyph name="Eacute" format="1">
  <advance width="1213"/>
  <unicode hex="00C9"/>
  <outline>
    <contour>
      <point x="200" y="0" type="line"/>
      <point x="1117" y="0" type="line"/>
      <point x="1117" y="148" type="line"/>
      <point x="372" y="148" type="line"/>
      <point x="372" y="672" type="line"/>
      <point x="1029" y="672" type="line"/>
      <point x="1029" y="820" type="line"/>
      <point x="372" y="820" type="line"/>
      <point x="372" y="1308" type="line"/>
      <point x="1067" y="1308" type="line"/>
      <point x="1067" y="1456" type="line"/>
      <point x="200" y="1456" type="line"/>
    </contour>
    <contour>
      <point x="588" y="1602" type="line"/>
      <point x="718" y="1602" type="line"/>
      <point x="1026" y="1922" type="line"/>
      <point x="814" y="1922" type="line"/>
    </contour>
  </outline>
</glyph>
<glyph name="Ecircumflex" format="1">
  <advance width="1213"/>
  <unicode hex="00CA"/>
  <outline>
    <contour>
      <point x="200" y="0" type="line"/>
      <point x="1117" y="0" type="line"/>
      <point x="1117" y="148" type="line"/>
      <point x="372" y="148" type="line"/>
      <point x="372" y="672" type="line"/>
      <point x="1029" y="672" type="line"/>
      <point x="1029" y="820" type="line"/>
      <point x="372" y="820" type="line"/>
      <point x="372" y="1308" type="line"/>
      <point x="1067" y="1308" type="line"/>
      <point x="1067" y="1456" type="line"/>
      <point x="200" y="1456" type="line"/>
    </contour>
    <contour>
      <point x="362" y="1600" type="line"/>
      <point x="488" y="1600" type="line"/>
      <point x="666" y="1816" type="line"/>
      <point x="844" y="1600" type="line"/>
      <point x="975.999" y="1600" type="line"/>
      <point x="747" y="1924" type="line"/>
      <point x="590" y="1924" type="line"/>
    </contour>
  </outline>
</glyph>
<glyph name="Igrave" format="1">
  <advance width="591"/>
  <unicode hex="00CC"/>
  <outline>
    <contour>
      <point x="261" y="1602" type="line"/>
      <point x="390" y="1602" type="line"/>
      <point x="143" y="1922" type="line"/>
      <point x="-71" y="1922" type="line"/>
    </contour>
    <contour>
      <point x="210" y="0" type="line"/>
      <point x="382" y="0" type="line"/>
      <point x="382" y="1456" type="line"/>
      <point x="210" y="1456" type="line"/>
    </contour>
  </outline>
</glyph>
<glyph name="Iacute" format="1">
  <advance width="591"/>
  <unicode hex="00CD"/>
  <outline>
    <contour>
      <point x="210" y="0" type="line"/>
      <point x="382" y="0" type="line"/>
      <point x="382" y="1456" type="line"/>
      <point x="210" y="1456" type="line"/>
    </contour>
    <contour>
      <point x="215" y="1602" type="line"/>
      <point x="345" y="1602" type="line"/>
      <point x="653" y="1922" type="line"/>
      <point x="441" y="1922" type="line"/>
    </contour>
  </outline>
</glyph>
<glyph name="Idieresis" format="1">
  <advance width="591"/>
  <unicode hex="00CF"/>
  <outline>
    <contour>
      <point x="48" y="1613" type="line"/>
      <point x="212" y="1613" type="line"/>
      <point x="212" y="1776" type="line"/>
      <point x="48" y="1776" type="line"/>
    </contour>
    <contour>
      <point x="210" y="0" type="line"/>
      <point x="382" y="0" type="line"/>
      <point x="382" y="1456" type="line"/>
      <point x="210" y="1456" type="line"/>
    </contour>
    <contour>
      <point x="380" y="1613" type="line"/>
      <point x="544" y="1613" type="line"/>
      <point x="544" y="1776" type="line"/>
      <point x="380" y="1776" type="line"/>
    </contour>
  </outline>
</glyph>
<glyph name="Ocircumflex" format="1">
  <advance width="1662"/>
  <unicode hex="00D4"/>
  <outline>
    <contour>
      <point x="524" y="1600" type="line"/>
      <point x="650" y="1600" type="line"/>
      <point x="828" y="1816" type="line"/>
      <point x="1006" y="1600" type="line"/>
      <point x="1138" y="1600" type="line"/>
      <point x="909" y="1924" type="line"/>
      <point x="752" y="1924" type="line"/>
    </contour>
    <contour>
      <point x="834" y="123" type="curve" smooth="yes"/>
      <point x="471" y="123"/>
      <point x="300" y="390"/>
      <point x="300" y="729" type="curve" smooth="yes"/>
      <point x="300" y="1128"/>
      <point x="556" y="1334"/>
      <point x="834" y="1334" type="curve" smooth="yes"/>
      <point x="1190" y="1334"/>
      <point x="1358" y="1068"/>
      <point x="1358" y="729" type="curve" smooth="yes"/>
      <point x="1358" y="330"/>
      <point x="1106" y="123"/>
    </contour>
    <contour>
      <point x="834" y="-22" type="curve" smooth="yes"/>
      <point x="1304" y="-22"/>
      <point x="1546" y="338"/>
      <point x="1546" y="730" type="curve" smooth="yes"/>
      <point x="1546" y="1242"/>
      <point x="1233" y="1483"/>
      <point x="834" y="1483" type="curve" smooth="yes"/>
      <point x="360" y="1483"/>
      <point x="116" y="1122"/>
      <point x="116" y="730" type="curve" smooth="yes"/>
      <point x="116" y="218"/>
      <point x="432" y="-22"/>
    </contour>
  </outline>
</glyph>
<glyph name="multiply" format="1">
  <advance width="2986"/>
  <unicode hex="00D7"/>
  <outline>
    <contour>
      <point x="1206" y="1002" type="line"/>
      <point x="800" y="1408" type="line"/>
      <point x="659" y="1267" type="line"/>
      <point x="1064" y="862" type="line"/>
      <point x="659" y="456" type="line"/>
      <point x="800" y="315" type="line"/>
      <point x="1206" y="720" type="line"/>
      <point x="1610" y="315" type="line"/>
      <point x="1752" y="457" type="line"/>
      <point x="1346" y="862" type="line"/>
      <point x="1752" y="1266" type="line"/>
      <point x="1610" y="1408" type="line"/>
    </contour>
  </outline>
</glyph>
<glyph name="Oslash" format="1">
  <advance width="3406"/>
  <unicode hex="00D8"/>
  <outline>
    <contour>
      <point x="571" y="1912"/>
      <point x="238" y="1419"/>
      <point x="238" y="884" type="curve" smooth="yes"/>
      <point x="238" y="185"/>
      <point x="669" y="-143"/>
      <point x="1218" y="-143" type="curve" smooth="yes"/>
      <point x="1860" y="-143"/>
      <point x="2190" y="349"/>
      <point x="2190" y="884" type="curve" smooth="yes"/>
      <point x="2190" y="1583"/>
      <point x="1763" y="1912"/>
      <point x="1218" y="1912" type="curve" smooth="yes"/>
    </contour>
    <contour>
      <point x="1704" y="1709"/>
      <point x="1933" y="1345"/>
      <point x="1933" y="883" type="curve" smooth="yes"/>
      <point x="1933" y="338"/>
      <point x="1589" y="55"/>
      <point x="1218" y="55" type="curve" smooth="yes"/>
      <point x="723" y="55"/>
      <point x="489" y="420"/>
      <point x="489" y="883" type="curve" smooth="yes"/>
      <point x="489" y="1427"/>
      <point x="839" y="1709"/>
      <point x="1218" y="1709" type="curve" smooth="yes"/>
    </contour>
    <contour>
      <point x="625" y="-278" type="line"/>
      <point x="791" y="-338" type="line"/>
      <point x="1803" y="2046" type="line"/>
      <point x="1632" y="2106" type="line"/>
    </contour>
    <contour>
      <point x="1215" y="-113" type="move" name="top"/>
    </contour>
  </outline>
</glyph>
<glyph name="Ucircumflex" format="1">
  <advance width="1532"/>
  <unicode hex="00DB"/>
  <outline>
    <contour>
      <point x="776" y="-22" type="curve" smooth="yes"/>
      <point x="1138" y="-22"/>
      <point x="1334" y="191"/>
      <point x="1336" y="551" type="curve" smooth="yes"/>
      <point x="1336" y="1456" type="line"/>
      <point x="1165" y="1456" type="line"/>
      <point x="1165" y="539" type="line" smooth="yes"/>
      <point x="1165" y="279"/>
      <point x="1026" y="123"/>
      <point x="774" y="123" type="curve" smooth="yes"/>
      <point x="502" y="123"/>
      <point x="363" y="260"/>
      <point x="363" y="546" type="curve" smooth="yes"/>
      <point x="363" y="1456" type="line"/>
      <point x="191" y="1456" type="line"/>
      <point x="191" y="541" type="line" smooth="yes"/>
      <point x="191" y="157"/>
      <point x="392" y="-22"/>
    </contour>
    <contour>
      <point x="459" y="1600" type="line"/>
      <point x="585" y="1600" type="line"/>
      <point x="763" y="1816" type="line"/>
      <point x="941" y="1600" type="line"/>
      <point x="1073" y="1600" type="line"/>
      <point x="844" y="1924" type="line"/>
      <point x="687" y="1924" type="line"/>
    </contour>
  </outline>
</glyph>
<glyph name="Yacute" format="1">
  <advance width="1266"/>
  <unicode hex="00DD"/>
  <outline>
    <contour>
      <point x="543" y="0" type="line"/>
      <point x="715" y="0" type="line"/>
      <point x="715" y="585" type="line"/>
      <point x="1258" y="1456" type="line"/>
      <point x="1067" y="1456" type="line"/>
      <point x="632" y="727" type="line"/>
      <point x="201" y="1456" type="line"/>
      <point x="9.99999" y="1456" type="line"/>
      <point x="543" y="582" type="line"/>
    </contour>
    <contour>
      <point x="552" y="1602" type="line"/>
      <point x="682" y="1602" type="line"/>
      <point x="989.999" y="1922" type="line"/>
      <point x="778" y="1922" type="line"/>
    </contour>
  </outline>
</glyph>
<glyph name="Thorn" format="1">
  <advance width="2609"/>
  <unicode hex="00DE"/>
  <outline>
    <contour>
      <point x="416" y="0" type="line"/>
      <point x="651" y="0" type="line"/>
      <point x="651" y="605" type="line"/>
      <point x="954" y="605" type="line" smooth="yes"/>
      <point x="1182" y="605"/>
      <point x="1385" y="655"/>
      <point x="1529" y="745" type="curve" smooth="yes"/>
      <point x="1669" y="834"/>
      <point x="1777" y="975"/>
      <point x="1777" y="1196" type="curve" smooth="yes"/>
      <point x="1777" y="1681"/>
      <point x="1366" y="1791"/>
      <point x="881" y="1791" type="curve" smooth="yes"/>
      <point x="651" y="1791" type="line"/>
      <point x="651" y="1988" type="line"/>
      <point x="416" y="1988" type="line"/>
    </contour>
    <contour>
      <point x="651" y="808" type="line"/>
      <point x="651" y="1589" type="line"/>
      <point x="941" y="1589" type="line" smooth="yes"/>
      <point x="1269" y="1589"/>
      <point x="1526" y="1521"/>
      <point x="1526" y="1193" type="curve" smooth="yes"/>
      <point x="1526" y="1127"/>
      <point x="1513" y="1068"/>
      <point x="1487" y="1020" type="curve" smooth="yes"/>
      <point x="1409" y="873"/>
      <point x="1233" y="808"/>
      <point x="1007" y="808" type="curve" smooth="yes"/>
    </contour>
  </outline>
</glyph>
<glyph name="germandbls" format="1">
  <advance width="2213"/>
  <unicode hex="00DF"/>
  <outline>
    <contour>
      <point x="1032" y="-40" type="curve" smooth="yes"/>
      <point x="1090" y="-40"/>
      <point x="1145" y="-30"/>
      <point x="1199" y="-10" type="curve" smooth="yes"/>
      <point x="1351" y="48"/>
      <point x="1479" y="179"/>
      <point x="1479" y="387" type="curve" smooth="yes"/>
      <point x="1479" y="464"/>
      <point x="1465" y="532"/>
      <point x="1432" y="590" type="curve"/>
      <point x="1340" y="763"/>
      <point x="1154" y="864"/>
      <point x="950" y="924" type="curve" smooth="yes"/>
      <point x="928" y="931"/>
      <point x="916" y="937"/>
      <point x="916" y="944" type="curve" smooth="yes"/>
      <point x="916" y="958"/>
      <point x="936" y="966"/>
      <point x="947" y="970" type="curve" smooth="yes"/>
      <point x="1028" y="1006"/>
      <point x="1103" y="1062"/>
      <point x="1162" y="1123" type="curve"/>
      <point x="1224" y="1184"/>
      <point x="1289" y="1269"/>
      <point x="1289" y="1386" type="curve" smooth="yes"/>
      <point x="1289" y="1438"/>
      <point x="1279" y="1486"/>
      <point x="1257" y="1532" type="curve" smooth="yes"/>
      <point x="1187" y="1677"/>
      <point x="1028" y="1761"/>
      <point x="811" y="1761" type="curve" smooth="yes"/>
      <point x="730" y="1761"/>
      <point x="659" y="1749"/>
      <point x="595" y="1724" type="curve" smooth="yes"/>
      <point x="415" y="1653"/>
      <point x="306" y="1493"/>
      <point x="306" y="1244" type="curve" smooth="yes"/>
      <point x="309" y="-14" type="line"/>
      <point x="502" y="-14" type="line"/>
      <point x="502" y="105"/>
      <point x="501" y="241"/>
      <point x="501" y="370" type="curve" smooth="yes"/>
      <point x="501" y="515"/>
      <point x="499" y="676"/>
      <point x="499" y="821" type="curve" smooth="yes"/>
      <point x="499" y="949"/>
      <point x="498" y="1087"/>
      <point x="498" y="1206" type="curve" smooth="yes"/>
      <point x="498" y="1429"/>
      <point x="587" y="1609"/>
      <point x="810" y="1609" type="curve" smooth="yes"/>
      <point x="960" y="1609"/>
      <point x="1069" y="1535"/>
      <point x="1069" y="1385" type="curve" smooth="yes"/>
      <point x="1069" y="1345"/>
      <point x="1062" y="1307"/>
      <point x="1047" y="1273" type="curve" smooth="yes"/>
      <point x="999" y="1162"/>
      <point x="902" y="1084"/>
      <point x="792" y="1034" type="curve"/>
      <point x="773" y="874" type="line"/>
      <point x="891" y="808"/>
      <point x="1014" y="739"/>
      <point x="1109" y="655" type="curve" smooth="yes"/>
      <point x="1186" y="588"/>
      <point x="1260" y="500"/>
      <point x="1260" y="365" type="curve" smooth="yes"/>
      <point x="1260" y="218"/>
      <point x="1172" y="114"/>
      <point x="1028" y="114" type="curve" smooth="yes"/>
      <point x="900" y="114"/>
      <point x="803" y="189"/>
      <point x="732" y="272" type="curve"/>
      <point x="655" y="149" type="line"/>
      <point x="739" y="41"/>
      <point x="863" y="-40"/>
    </contour>
  </outline>
</glyph>
<glyph name="atilde" format="1">
  <advance width="1218"/>
  <unicode hex="00E3"/>
  <outline>
    <contour>
      <point x="321" y="1203" type="curve"/>
      <point x="426" y="1203" type="line"/>
      <point x="433" y="1260"/>
      <point x="463" y="1288"/>
      <point x="517" y="1288" type="curve" smooth="yes"/>
      <point x="612" y="1288"/>
      <point x="674" y="1220"/>
      <point x="770" y="1220" type="curve" smooth="yes"/>
      <point x="894" y="1220"/>
      <point x="952" y="1322"/>
      <point x="965" y="1435" type="curve"/>
      <point x="857" y="1435" type="line"/>
      <point x="850" y="1384"/>
      <point x="823" y="1345"/>
      <point x="770" y="1345" type="curve" smooth="yes"/>
      <point x="751" y="1345"/>
      <point x="731" y="1349"/>
      <point x="711" y="1356" type="curve" smooth="yes"/>
      <point x="653" y="1377"/>
      <point x="596" y="1413"/>
      <point x="520" y="1413" type="curve" smooth="yes"/>
      <point x="396" y="1413"/>
      <point x="331" y="1319"/>
    </contour>
    <contour>
      <point x="519" y="-22" type="curve" smooth="yes"/>
      <point x="641" y="-22"/>
      <point x="788" y="13"/>
      <point x="881" y="166" type="curve"/>
      <point x="908" y="46"/>
      <point x="1026" y="-4"/>
      <point x="1113" y="-4" type="curve"/>
      <point x="1147" y="139" type="line"/>
      <point x="1095" y="139"/>
      <point x="1022" y="170"/>
      <point x="1022" y="286" type="curve" smooth="yes"/>
      <point x="1022" y="962" type="line"/>
      <point x="918" y="1024"/>
      <point x="795" y="1048"/>
      <point x="671" y="1048" type="curve" smooth="yes"/>
      <point x="339" y="1048"/>
      <point x="114" y="806"/>
      <point x="114" y="438" type="curve" smooth="yes"/>
      <point x="114" y="161"/>
      <point x="278" y="-22"/>
    </contour>
    <contour>
      <point x="544" y="116" type="curve" smooth="yes"/>
      <point x="388" y="116"/>
      <point x="284" y="249"/>
      <point x="284" y="448" type="curve" smooth="yes"/>
      <point x="284" y="725"/>
      <point x="438" y="907"/>
      <point x="668" y="907" type="curve" smooth="yes"/>
      <point x="724" y="907"/>
      <point x="803" y="899"/>
      <point x="858" y="872" type="curve"/>
      <point x="858" y="403" type="line" smooth="yes"/>
      <point x="858" y="226"/>
      <point x="702" y="116"/>
    </contour>
  </outline>
</glyph>
<glyph name="adieresis" format="1">
  <advance width="1218"/>
  <unicode hex="00E4"/>
  <outline>
    <contour>
      <point x="519" y="-22" type="curve" smooth="yes"/>
      <point x="641" y="-22"/>
      <point x="788" y="13"/>
      <point x="881" y="166" type="curve"/>
      <point x="908" y="46"/>
      <point x="1026" y="-4"/>
      <point x="1113" y="-4" type="curve"/>
      <point x="1147" y="139" type="line"/>
      <point x="1095" y="139"/>
      <point x="1022" y="170"/>
      <point x="1022" y="286" type="curve" smooth="yes"/>
      <point x="1022" y="962" type="line"/>
      <point x="918" y="1024"/>
      <point x="795" y="1048"/>
      <point x="671" y="1048" type="curve" smooth="yes"/>
      <point x="339" y="1048"/>
      <point x="114" y="806"/>
      <point x="114" y="438" type="curve" smooth="yes"/>
      <point x="114" y="161"/>
      <point x="278" y="-22"/>
    </contour>
    <contour>
      <point x="544" y="116" type="curve" smooth="yes"/>
      <point x="388" y="116"/>
      <point x="284" y="249"/>
      <point x="284" y="448" type="curve" smooth="yes"/>
      <point x="284" y="725"/>
      <point x="438" y="907"/>
      <point x="668" y="907" type="curve" smooth="yes"/>
      <point x="724" y="907"/>
      <point x="803" y="899"/>
      <point x="858" y="872" type="curve"/>
      <point x="858" y="403" type="line" smooth="yes"/>
      <point x="858" y="226"/>
      <point x="702" y="116"/>
    </contour>
    <contour>
      <point x="395" y="1183" type="line"/>
      <point x="559" y="1183" type="line"/>
      <point x="559" y="1346" type="line"/>
      <point x="395" y="1346" type="line"/>
    </contour>
    <contour>
      <point x="727" y="1183" type="line"/>
      <point x="891" y="1183" type="line"/>
      <point x="891" y="1346" type="line"/>
      <point x="727" y="1346" type="line"/>
    </contour>
  </outline>
</glyph>
<glyph name="aring" format="1">
  <advance width="1218"/>
  <unicode hex="00E5"/>
  <outline>
    <contour>
      <point x="519" y="-22" type="curve" smooth="yes"/>
      <point x="641" y="-22"/>
      <point x="788" y="13"/>
      <point x="881" y="166" type="curve"/>
      <point x="908" y="46"/>
      <point x="1026" y="-4"/>
      <point x="1113" y="-4" type="curve"/>
      <point x="1147" y="139" type="line"/>
      <point x="1095" y="139"/>
      <point x="1022" y="170"/>
      <point x="1022" y="286" type="curve" smooth="yes"/>
      <point x="1022" y="962" type="line"/>
      <point x="918" y="1024"/>
      <point x="795" y="1048"/>
      <point x="671" y="1048" type="curve" smooth="yes"/>
      <point x="339" y="1048"/>
      <point x="114" y="806"/>
      <point x="114" y="438" type="curve" smooth="yes"/>
      <point x="114" y="161"/>
      <point x="278" y="-22"/>
    </contour>
    <contour>
      <point x="644" y="1149" type="curve" smooth="yes"/>
      <point x="672" y="1149"/>
      <point x="699" y="1154"/>
      <point x="724" y="1164" type="curve" smooth="yes"/>
      <point x="791" y="1190"/>
      <point x="853" y="1249"/>
      <point x="853" y="1340" type="curve" smooth="yes"/>
      <point x="853" y="1366"/>
      <point x="848" y="1391"/>
      <point x="837" y="1414" type="curve" smooth="yes"/>
      <point x="807" y="1480"/>
      <point x="738" y="1530"/>
      <point x="643" y="1530" type="curve" smooth="yes"/>
      <point x="614" y="1530"/>
      <point x="586" y="1526"/>
      <point x="561" y="1516" type="curve" smooth="yes"/>
      <point x="493" y="1490"/>
      <point x="433" y="1431"/>
      <point x="433" y="1339" type="curve" smooth="yes"/>
      <point x="433" y="1312"/>
      <point x="438" y="1287"/>
      <point x="449" y="1264" type="curve" smooth="yes"/>
      <point x="480" y="1199"/>
      <point x="549" y="1149"/>
    </contour>
    <contour>
      <point x="544" y="116" type="curve" smooth="yes"/>
      <point x="388" y="116"/>
      <point x="284" y="249"/>
      <point x="284" y="448" type="curve" smooth="yes"/>
      <point x="284" y="725"/>
      <point x="438" y="907"/>
      <point x="668" y="907" type="curve" smooth="yes"/>
      <point x="724" y="907"/>
      <point x="803" y="899"/>
      <point x="858" y="872" type="curve"/>
      <point x="858" y="403" type="line" smooth="yes"/>
      <point x="858" y="226"/>
      <point x="702" y="116"/>
    </contour>
    <contour>
      <point x="642" y="1235" type="curve" smooth="yes"/>
      <point x="577" y="1235"/>
      <point x="532" y="1276"/>
      <point x="532" y="1340" type="curve" smooth="yes"/>
      <point x="532" y="1400"/>
      <point x="582" y="1445"/>
      <point x="642" y="1445" type="curve" smooth="yes"/>
      <point x="704" y="1445"/>
      <point x="753" y="1402"/>
      <point x="753" y="1340" type="curve" smooth="yes"/>
      <point x="753" y="1280"/>
      <point x="702" y="1235"/>
    </contour>
  </outline>
</glyph>
<glyph name="ae" format="1">
  <advance width="3701"/>
  <unicode hex="00E6"/>
  <outline>
    <contour>
      <point x="1508" y="1419"/>
      <point x="1344" y="1307"/>
      <point x="1254" y="1150" type="curve"/>
      <point x="1242" y="1196"/>
      <point x="1221" y="1236"/>
      <point x="1189" y="1270" type="curve" smooth="yes"/>
      <point x="1105" y="1356"/>
      <point x="969" y="1419"/>
      <point x="806" y="1419" type="curve" smooth="yes"/>
      <point x="537" y="1419"/>
      <point x="351" y="1326"/>
      <point x="257" y="1150" type="curve"/>
      <point x="380" y="1023" type="line"/>
      <point x="462" y="1160"/>
      <point x="589" y="1233"/>
      <point x="793" y="1233" type="curve" smooth="yes"/>
      <point x="1019" y="1233"/>
      <point x="1108" y="1064"/>
      <point x="1108" y="838" type="curve" smooth="yes"/>
      <point x="1108" y="821" type="line"/>
      <point x="660" y="821"/>
      <point x="166" y="815"/>
      <point x="166" y="366" type="curve" smooth="yes"/>
      <point x="166" y="300"/>
      <point x="178" y="240"/>
      <point x="203" y="188" type="curve" smooth="yes"/>
      <point x="274" y="34"/>
      <point x="433" y="-57"/>
      <point x="657" y="-57" type="curve" smooth="yes"/>
      <point x="931" y="-57"/>
      <point x="1115" y="79"/>
      <point x="1221" y="250" type="curve"/>
      <point x="1310" y="78"/>
      <point x="1481" y="-53"/>
      <point x="1737" y="-53" type="curve" smooth="yes"/>
      <point x="2029" y="-53"/>
      <point x="2215" y="70"/>
      <point x="2327" y="262" type="curve"/>
      <point x="2209" y="380" type="line"/>
      <point x="2119" y="244"/>
      <point x="1963" y="135"/>
      <point x="1751" y="135" type="curve" smooth="yes"/>
      <point x="1460" y="135"/>
      <point x="1340" y="326"/>
      <point x="1340" y="613" type="curve" smooth="yes"/>
      <point x="1340" y="620"/>
      <point x="1341" y="630"/>
      <point x="1341" y="635" type="curve"/>
      <point x="2372" y="635" type="line"/>
      <point x="2372" y="696" type="line" smooth="yes"/>
      <point x="2372" y="1135"/>
      <point x="2176" y="1419"/>
      <point x="1736" y="1419" type="curve" smooth="yes"/>
    </contour>
    <contour>
      <point x="1111" y="339"/>
      <point x="1003" y="130"/>
      <point x="703" y="130" type="curve" smooth="yes"/>
      <point x="529" y="130"/>
      <point x="397" y="204"/>
      <point x="397" y="377" type="curve" smooth="yes"/>
      <point x="397" y="433"/>
      <point x="412" y="476"/>
      <point x="441" y="510" type="curve" smooth="yes"/>
      <point x="532" y="613"/>
      <point x="719" y="626"/>
      <point x="911" y="631" type="curve" smooth="yes"/>
      <point x="1111" y="635" type="line"/>
    </contour>
    <contour>
      <point x="2021" y="1233"/>
      <point x="2113" y="1060"/>
      <point x="2136" y="822" type="curve"/>
      <point x="1343" y="822" type="line"/>
      <point x="1347" y="876"/>
      <point x="1361" y="928"/>
      <point x="1381" y="978" type="curve" smooth="yes"/>
      <point x="1441" y="1118"/>
      <point x="1564" y="1233"/>
      <point x="1762" y="1233" type="curve" smooth="yes"/>
    </contour>
    <contour>
      <point x="1289" y="-19" type="move" name="top"/>
    </contour>
  </outline>
</glyph>
<glyph name="eth" format="1">
  <advance width="2437"/>
  <unicode hex="00F0"/>
  <outline>
    <contour>
      <point x="844" y="1904" type="line"/>
      <point x="994" y="1820"/>
      <point x="1106" y="1720"/>
      <point x="1188" y="1572" type="curve"/>
      <point x="907" y="1572" type="line"/>
      <point x="907" y="1385" type="line"/>
      <point x="1264" y="1385" type="line"/>
      <point x="1297" y="1264"/>
      <point x="1312" y="1141"/>
      <point x="1313" y="985" type="curve"/>
      <point x="1313" y="972" type="line"/>
      <point x="1215" y="1128"/>
      <point x="1050" y="1209"/>
      <point x="804" y="1209" type="curve" smooth="yes"/>
      <point x="709" y="1209"/>
      <point x="623" y="1194"/>
      <point x="546" y="1164" type="curve" smooth="yes"/>
      <point x="332" y="1079"/>
      <point x="180" y="888"/>
      <point x="180" y="593" type="curve" smooth="yes"/>
      <point x="180" y="503"/>
      <point x="195" y="418"/>
      <point x="227" y="341" type="curve" smooth="yes"/>
      <point x="318" y="111"/>
      <point x="534" y="-47"/>
      <point x="853" y="-47" type="curve" smooth="yes"/>
      <point x="964" y="-47"/>
      <point x="1062" y="-26"/>
      <point x="1149" y="14" type="curve" smooth="yes"/>
      <point x="1433" y="150"/>
      <point x="1552" y="477"/>
      <point x="1552" y="902" type="curve" smooth="yes"/>
      <point x="1552" y="1084"/>
      <point x="1528" y="1242"/>
      <point x="1487" y="1385" type="curve"/>
      <point x="1685" y="1385" type="line"/>
      <point x="1685" y="1572" type="line"/>
      <point x="1416" y="1572" type="line"/>
      <point x="1316" y="1780"/>
      <point x="1169" y="1934"/>
      <point x="951" y="2019" type="curve"/>
    </contour>
    <contour>
      <point x="1073" y="1018"/>
      <point x="1233" y="891"/>
      <point x="1293" y="716" type="curve"/>
      <point x="1293" y="684" type="line" smooth="yes"/>
      <point x="1293" y="380"/>
      <point x="1149" y="146"/>
      <point x="843" y="146" type="curve" smooth="yes"/>
      <point x="778" y="146"/>
      <point x="721" y="156"/>
      <point x="669" y="178" type="curve" smooth="yes"/>
      <point x="523" y="241"/>
      <point x="421" y="382"/>
      <point x="421" y="586" type="curve" smooth="yes"/>
      <point x="421" y="856"/>
      <point x="569" y="1018"/>
      <point x="841" y="1018" type="curve" smooth="yes"/>
    </contour>
  </outline>
</glyph>
<glyph name="ntilde" format="1">
  <advance width="1246"/>
  <unicode hex="00F1"/>
  <outline>
    <contour>
      <point x="1163" y="-39" type="curve"/>
      <point x="1189" y="92" type="line"/>
      <point x="1085" y="113"/>
      <point x="1052" y="195"/>
      <point x="1053" y="343" type="curve" smooth="yes"/>
      <point x="1055" y="565" type="line" smooth="yes"/>
      <point x="1058" y="856"/>
      <point x="961" y="1048"/>
      <point x="688" y="1048" type="curve" smooth="yes"/>
      <point x="538" y="1048"/>
      <point x="397" y="981.999"/>
      <point x="328" y="866" type="curve"/>
      <point x="339" y="532" type="line"/>
      <point x="339" y="811"/>
      <point x="512" y="907"/>
      <point x="650" y="907" type="curve" smooth="yes"/>
      <point x="861" y="907"/>
      <point x="890" y="767"/>
      <point x="890" y="562" type="curve" smooth="yes"/>
      <point x="888" y="338" type="line"/>
      <point x="888" y="332" type="line" smooth="yes"/>
      <point x="888" y="89"/>
      <point x="966" y="-36"/>
    </contour>
    <contour>
      <point x="352" y="1203" type="curve"/>
      <point x="457" y="1203" type="line"/>
      <point x="464" y="1260"/>
      <point x="494" y="1288"/>
      <point x="548" y="1288" type="curve" smooth="yes"/>
      <point x="643" y="1288"/>
      <point x="705" y="1220"/>
      <point x="801" y="1220" type="curve" smooth="yes"/>
      <point x="925" y="1220"/>
      <point x="982.999" y="1322"/>
      <point x="995.999" y="1435" type="curve"/>
      <point x="888" y="1435" type="line"/>
      <point x="881" y="1384"/>
      <point x="854" y="1345"/>
      <point x="801" y="1345" type="curve" smooth="yes"/>
      <point x="782" y="1345"/>
      <point x="762" y="1349"/>
      <point x="742" y="1356" type="curve" smooth="yes"/>
      <point x="684" y="1377"/>
      <point x="627" y="1413"/>
      <point x="551" y="1413" type="curve" smooth="yes"/>
      <point x="427" y="1413"/>
      <point x="362" y="1319"/>
    </contour>
    <contour>
      <point x="176" y="0" type="line"/>
      <point x="340" y="0" type="line"/>
      <point x="340" y="652" type="line"/>
      <point x="328" y="865" type="line"/>
      <point x="328" y="902"/>
      <point x="307" y="1001"/>
      <point x="296" y="1026" type="curve"/>
      <point x="141" y="993.999" type="line"/>
      <point x="161" y="923"/>
      <point x="176" y="824"/>
      <point x="176" y="699" type="curve" smooth="yes"/>
    </contour>
  </outline>
</glyph>
<glyph name="divide" format="1">
  <advance width="2986"/>
  <unicode hex="00F7"/>
  <outline>
    <contour>
      <point x="406" y="866" type="line"/>
      <point x="406" y="676" type="line"/>
      <point x="1837" y="676" type="line"/>
      <point x="1837" y="866" type="line"/>
    </contour>
    <contour>
      <point x="981" y="330" type="line"/>
      <point x="981" y="43" type="line"/>
      <point x="1277" y="43" type="line"/>
      <point x="1277" y="330" type="line"/>
    </contour>
    <contour>
      <point x="981" y="1493" type="line"/>
      <point x="981" y="1206" type="line"/>
      <point x="1277" y="1206" type="line"/>
      <point x="1277" y="1493" type="line"/>
    </contour>
  </outline>
</glyph>
<glyph name="oslash" format="1">
  <advance width="2180"/>
  <unicode hex="00F8"/>
  <outline>
    <contour>
      <point x="467" y="-460" type="line"/>
      <point x="1220" y="1309" type="line"/>
      <point x="1099" y="1346" type="line"/>
      <point x="351" y="-422" type="line"/>
    </contour>
    <component base="o"/>
    <contour>
      <point x="1090" y="0" type="move" name="top"/>
    </contour>
  </outline>
</glyph>
<glyph name="ugrave" format="1">
  <advance width="1201"/>
  <unicode hex="00F9"/>
  <outline>
    <contour>
      <point x="527" y="-22" type="curve" smooth="yes"/>
      <point x="685" y="-22"/>
      <point x="809" y="40"/>
      <point x="886" y="164" type="curve"/>
      <point x="913" y="53"/>
      <point x="1021" y="-4"/>
      <point x="1118" y="-4" type="curve"/>
      <point x="1153" y="139" type="line"/>
      <point x="1101" y="139"/>
      <point x="1019" y="170"/>
      <point x="1019" y="286" type="curve" smooth="yes"/>
      <point x="1019" y="1026" type="line"/>
      <point x="855" y="1026" type="line"/>
      <point x="855" y="427" type="line" smooth="yes"/>
      <point x="855" y="231"/>
      <point x="717" y="116"/>
      <point x="552" y="116" type="curve" smooth="yes"/>
      <point x="431" y="116"/>
      <point x="310" y="169"/>
      <point x="315" y="365" type="curve" smooth="yes"/>
      <point x="321" y="595" type="line" smooth="yes"/>
      <point x="330" y="911"/>
      <point x="282" y="1026"/>
      <point x="282" y="1026" type="curve"/>
      <point x="117" y="999.999" type="line"/>
      <point x="117" y="999.999"/>
      <point x="165" y="871"/>
      <point x="156" y="582" type="curve" smooth="yes"/>
      <point x="150" y="365" type="line" smooth="yes"/>
      <point x="142" y="80"/>
      <point x="333" y="-22"/>
    </contour>
    <contour>
      <point x="526" y="1173" type="line"/>
      <point x="655" y="1173" type="line"/>
      <point x="408" y="1493" type="line"/>
      <point x="194" y="1493" type="line"/>
    </contour>
  </outline>
</glyph>
<glyph name="thorn" format="1">
  <advance width="2537"/>
  <unicode hex="00FE"/>
  <outline>
    <contour>
      <point x="324" y="1695" type="line"/>
      <point x="324" y="-874" type="line"/>
      <point x="549" y="-874" type="line"/>
      <point x="549" y="-107" type="line"/>
      <point x="667" y="-251"/>
      <point x="823" y="-323"/>
      <point x="1020" y="-323" type="curve" smooth="yes"/>
      <point x="1128" y="-323"/>
      <point x="1221" y="-302"/>
      <point x="1301" y="-261" type="curve" smooth="yes"/>
      <point x="1524" y="-147"/>
      <point x="1663" y="97"/>
      <point x="1663" y="428" type="curve" smooth="yes"/>
      <point x="1663" y="525"/>
      <point x="1649" y="615"/>
      <point x="1623" y="703" type="curve" smooth="yes"/>
      <point x="1547" y="959"/>
      <point x="1353" y="1143"/>
      <point x="1020" y="1143" type="curve" smooth="yes"/>
      <point x="800" y="1143"/>
      <point x="653" y="1049"/>
      <point x="552" y="913" type="curve"/>
      <point x="552" y="1695" type="line"/>
    </contour>
    <contour>
      <point x="1303" y="961"/>
      <point x="1423" y="726"/>
      <point x="1423" y="420" type="curve" smooth="yes"/>
      <point x="1423" y="113"/>
      <point x="1296" y="-143"/>
      <point x="987" y="-143" type="curve" smooth="yes"/>
      <point x="916" y="-143"/>
      <point x="853" y="-129"/>
      <point x="799" y="-103" type="curve" smooth="yes"/>
      <point x="639" y="-25"/>
      <point x="549" y="147"/>
      <point x="549" y="383" type="curve" smooth="yes"/>
      <point x="549" y="708"/>
      <point x="669" y="961"/>
      <point x="995" y="961" type="curve" smooth="yes"/>
    </contour>
  </outline>
</glyph>
<glyph name="Abreve" format="1">
  <advance width="1425"/>
  <unicode hex="0102"/>
  <outline>
    <contour>
      <point x="13" y="0" type="line"/>
      <point x="199" y="0" type="line"/>
      <point x="355" y="397" type="line"/>
      <point x="1053" y="397" type="line"/>
      <point x="1216" y="0" type="line"/>
      <point x="1407" y="0" type="line"/>
      <point x="802" y="1456" type="line"/>
      <point x="617" y="1456" type="line"/>
    </contour>
    <contour>
      <point x="715" y="1648" type="curve" smooth="yes"/>
      <point x="881" y="1648"/>
      <point x="981.999" y="1730"/>
      <point x="994.999" y="1884" type="curve"/>
      <point x="909" y="1884" type="line"/>
      <point x="889" y="1800"/>
      <point x="810" y="1755"/>
      <point x="708" y="1755" type="curve" smooth="yes"/>
      <point x="606" y="1755"/>
      <point x="533" y="1796"/>
      <point x="518" y="1884" type="curve"/>
      <point x="431" y="1884" type="line"/>
      <point x="444" y="1724"/>
      <point x="544" y="1648"/>
    </contour>
    <contour>
      <point x="410" y="545" type="line"/>
      <point x="655" y="1149" type="line"/>
      <point x="670" y="1191"/>
      <point x="692" y="1252"/>
      <point x="707" y="1298" type="curve"/>
      <point x="721" y="1252"/>
      <point x="742" y="1192"/>
      <point x="760" y="1150" type="curve"/>
      <point x="993.999" y="545" type="line"/>
    </contour>
  </outline>
</glyph>
<glyph name="ccaron" format="1">
  <advance width="1025"/>
  <unicode hex="010D"/>
  <outline>
    <contour>
      <point x="612" y="-22" type="curve" smooth="yes"/>
      <point x="750" y="-22"/>
      <point x="864" y="20"/>
      <point x="988.999" y="117" type="curve"/>
      <point x="928" y="238" type="line"/>
      <point x="817" y="157"/>
      <point x="724" y="116"/>
      <point x="616" y="116" type="curve" smooth="yes"/>
      <point x="427" y="116"/>
      <point x="260" y="259"/>
      <point x="260" y="508" type="curve" smooth="yes"/>
      <point x="260" y="762"/>
      <point x="437" y="907"/>
      <point x="608" y="907" type="curve" smooth="yes"/>
      <point x="713" y="907"/>
      <point x="796" y="879"/>
      <point x="886" y="802" type="curve"/>
      <point x="956" y="912" type="line"/>
      <point x="856" y="1008"/>
      <point x="752" y="1048"/>
      <point x="608" y="1048" type="curve" smooth="yes"/>
      <point x="351" y="1048"/>
      <point x="90" y="846"/>
      <point x="90" y="503" type="curve" smooth="yes"/>
      <point x="90" y="222"/>
      <point x="274" y="-22"/>
    </contour>
    <contour>
      <point x="539" y="1170" type="line"/>
      <point x="695" y="1170" type="line"/>
      <point x="933" y="1493" type="line"/>
      <point x="779" y="1493" type="line"/>
      <point x="611" y="1278" type="line"/>
      <point x="447" y="1493" type="line"/>
      <point x="300" y="1493" type="line"/>
    </contour>
  </outline>
</glyph>
<glyph name="Eogonek" format="1">
  <advance width="1213"/>
  <unicode hex="0118"/>
  <outline>
    <contour>
      <point x="200" y="0" type="line"/>
      <point x="1117" y="0" type="line"/>
      <point x="1117" y="148" type="line"/>
      <point x="372" y="148" type="line"/>
      <point x="372" y="672" type="line"/>
      <point x="1029" y="672" type="line"/>
      <point x="1029" y="820" type="line"/>
      <point x="372" y="820" type="line"/>
      <point x="372" y="1308" type="line"/>
      <point x="1067" y="1308" type="line"/>
      <point x="1067" y="1456" type="line"/>
      <point x="200" y="1456" type="line"/>
    </contour>
    <contour>
      <point x="1026" y="-390" type="curve" smooth="yes"/>
      <point x="1090" y="-390"/>
      <point x="1157" y="-380"/>
      <point x="1203" y="-361" type="curve"/>
      <point x="1203" y="-250" type="line"/>
      <point x="1157" y="-268"/>
      <point x="1113" y="-281"/>
      <point x="1049" y="-281" type="curve" smooth="yes"/>
      <point x="997.999" y="-281"/>
      <point x="949" y="-250"/>
      <point x="949" y="-199" type="curve" smooth="yes"/>
      <point x="949" y="-183"/>
      <point x="954" y="-167"/>
      <point x="964" y="-151" type="curve" smooth="yes"/>
      <point x="1006" y="-86"/>
      <point x="1083" y="-42"/>
      <point x="1152" y="0" type="curve"/>
      <point x="1023" y="12" type="line"/>
      <point x="968.999" y="-14"/>
      <point x="915" y="-49"/>
      <point x="875" y="-89" type="curve" smooth="yes"/>
      <point x="842" y="-122"/>
      <point x="808" y="-167"/>
      <point x="808" y="-225" type="curve" smooth="yes"/>
      <point x="808" y="-252"/>
      <point x="814" y="-276"/>
      <point x="825" y="-296" type="curve" smooth="yes"/>
      <point x="859" y="-357"/>
      <point x="932" y="-390"/>
    </contour>
  </outline>
</glyph>
<glyph name="hbar" format="1">
  <advance width="2507"/>
  <unicode hex="0127"/>
  <outline>
    <contour>
      <point x="808" y="1414"/>
      <point x="628" y="1326"/>
      <point x="534" y="1168" type="curve"/>
      <point x="535" y="757" type="line"/>
      <point x="535" y="1037"/>
      <point x="759" y="1223"/>
      <point x="961" y="1223" type="curve" smooth="yes"/>
      <point x="1249" y="1223"/>
      <point x="1289" y="1030"/>
      <point x="1289" y="750" type="curve" smooth="yes"/>
      <point x="1286" y="464" type="line"/>
      <point x="1286" y="456" type="line" smooth="yes"/>
      <point x="1286" y="124"/>
      <point x="1392" y="-47"/>
      <point x="1662" y="-51" type="curve"/>
      <point x="1697" y="128" type="line"/>
      <point x="1555" y="156"/>
      <point x="1510" y="268"/>
      <point x="1511" y="470" type="curve" smooth="yes"/>
      <point x="1514" y="754" type="line" smooth="yes"/>
      <point x="1518" y="1152"/>
      <point x="1386" y="1414"/>
      <point x="1013" y="1414" type="curve" smooth="yes"/>
    </contour>
    <contour>
      <point x="311" y="2039" type="line"/>
      <point x="311" y="-17" type="line"/>
      <point x="535" y="-17" type="line"/>
      <point x="535" y="2066" type="line"/>
    </contour>
    <contour>
      <point x="556" y="2383" type="line"/>
      <point x="556" y="2200" type="line"/>
      <point x="1336" y="2200" type="line"/>
      <point x="1336" y="2383" type="line"/>
    </contour>
  </outline>
</glyph>
<glyph name="Itilde" format="1">
  <advance width="591"/>
  <unicode hex="0128"/>
  <outline>
    <contour>
      <point x="-26" y="1633" type="curve"/>
      <point x="79" y="1633" type="line"/>
      <point x="86" y="1690"/>
      <point x="116" y="1718"/>
      <point x="170" y="1718" type="curve" smooth="yes"/>
      <point x="265" y="1718"/>
      <point x="327" y="1650"/>
      <point x="423" y="1650" type="curve" smooth="yes"/>
      <point x="547" y="1650"/>
      <point x="605" y="1752"/>
      <point x="618" y="1865" type="curve"/>
      <point x="510" y="1865" type="line"/>
      <point x="503" y="1814"/>
      <point x="476" y="1775"/>
      <point x="423" y="1775" type="curve" smooth="yes"/>
      <point x="404" y="1775"/>
      <point x="384" y="1779"/>
      <point x="364" y="1786" type="curve" smooth="yes"/>
      <point x="306" y="1807"/>
      <point x="249" y="1843"/>
      <point x="173" y="1843" type="curve" smooth="yes"/>
      <point x="49" y="1843"/>
      <point x="-16" y="1749"/>
    </contour>
    <contour>
      <point x="210" y="0" type="line"/>
      <point x="382" y="0" type="line"/>
      <point x="382" y="1456" type="line"/>
      <point x="210" y="1456" type="line"/>
    </contour>
  </outline>
</glyph>
<glyph name="itilde" format="1">
  <advance width="503"/>
  <unicode hex="0129"/>
  <outline>
    <contour>
      <point x="-70" y="1203" type="curve"/>
      <point x="35" y="1203" type="line"/>
      <point x="42" y="1260"/>
      <point x="72" y="1288"/>
      <point x="126" y="1288" type="curve" smooth="yes"/>
      <point x="221" y="1288"/>
      <point x="283" y="1220"/>
      <point x="379" y="1220" type="curve" smooth="yes"/>
      <point x="503" y="1220"/>
      <point x="561" y="1322"/>
      <point x="574" y="1435" type="curve"/>
      <point x="466" y="1435" type="line"/>
      <point x="459" y="1384"/>
      <point x="432" y="1345"/>
      <point x="379" y="1345" type="curve" smooth="yes"/>
      <point x="360" y="1345"/>
      <point x="340" y="1349"/>
      <point x="320" y="1356" type="curve" smooth="yes"/>
      <point x="262" y="1377"/>
      <point x="205" y="1413"/>
      <point x="129" y="1413" type="curve" smooth="yes"/>
      <point x="5" y="1413"/>
      <point x="-60" y="1319"/>
    </contour>
    <contour>
      <point x="434" y="-5" type="curve" smooth="yes"/>
      <point x="481" y="-5"/>
      <point x="550" y="9.99999"/>
      <point x="600" y="30" type="curve"/>
      <point x="580" y="141" type="line"/>
      <point x="545" y="128"/>
      <point x="487" y="118"/>
      <point x="457" y="118" type="curve" smooth="yes"/>
      <point x="389" y="118"/>
      <point x="332" y="143"/>
      <point x="332" y="283" type="curve" smooth="yes"/>
      <point x="332" y="1026" type="line"/>
      <point x="167" y="1026" type="line"/>
      <point x="167" y="278" type="line" smooth="yes"/>
      <point x="167" y="67"/>
      <point x="292" y="-5"/>
    </contour>
  </outline>
</glyph>
<glyph name="Imacron" format="1">
  <advance width="591"/>
  <unicode hex="012A"/>
  <outline>
    <contour>
      <point x="210" y="0" type="line"/>
      <point x="382" y="0" type="line"/>
      <point x="382" y="1456" type="line"/>
      <point x="210" y="1456" type="line"/>
    </contour>
    <contour>
      <point x="9.99999" y="1613" type="line"/>
      <point x="582" y="1613" type="line"/>
      <point x="582" y="1747" type="line"/>
      <point x="9.99999" y="1747" type="line"/>
    </contour>
  </outline>
</glyph>
<glyph name="imacron" format="1">
  <advance width="503"/>
  <unicode hex="012B"/>
  <outline>
    <contour>
      <point x="434" y="-5" type="curve" smooth="yes"/>
      <point x="481" y="-5"/>
      <point x="550" y="9.99999"/>
      <point x="600" y="30" type="curve"/>
      <point x="580" y="141" type="line"/>
      <point x="545" y="128"/>
      <point x="487" y="118"/>
      <point x="457" y="118" type="curve" smooth="yes"/>
      <point x="389" y="118"/>
      <point x="332" y="143"/>
      <point x="332" y="283" type="curve" smooth="yes"/>
      <point x="332" y="1026" type="line"/>
      <point x="167" y="1026" type="line"/>
      <point x="167" y="278" type="line" smooth="yes"/>
      <point x="167" y="67"/>
      <point x="292" y="-5"/>
    </contour>
    <contour>
      <point x="-34" y="1183" type="line"/>
      <point x="538" y="1183" type="line"/>
      <point x="538" y="1317" type="line"/>
      <point x="-34" y="1317" type="line"/>
    </contour>
  </outline>
</glyph>
<glyph name="Iogonek" format="1">
  <advance width="591"/>
  <unicode hex="012E"/>
  <outline>
    <contour>
      <point x="268" y="-390" type="curve" smooth="yes"/>
      <point x="332" y="-390"/>
      <point x="399" y="-380"/>
      <point x="445" y="-361" type="curve"/>
      <point x="445" y="-250" type="line"/>
      <point x="399" y="-268"/>
      <point x="355" y="-281"/>
      <point x="291" y="-281" type="curve" smooth="yes"/>
      <point x="240" y="-281"/>
      <point x="191" y="-250"/>
      <point x="191" y="-199" type="curve" smooth="yes"/>
      <point x="191" y="-183"/>
      <point x="196" y="-167"/>
      <point x="206" y="-151" type="curve" smooth="yes"/>
      <point x="248" y="-86"/>
      <point x="325" y="-42"/>
      <point x="394" y="0" type="curve"/>
      <point x="265" y="12" type="line"/>
      <point x="211" y="-14"/>
      <point x="157" y="-49"/>
      <point x="117" y="-89" type="curve" smooth="yes"/>
      <point x="84" y="-122"/>
      <point x="50" y="-167"/>
      <point x="50" y="-225" type="curve" smooth="yes"/>
      <point x="50" y="-252"/>
      <point x="56" y="-276"/>
      <point x="67" y="-296" type="curve" smooth="yes"/>
      <point x="101" y="-357"/>
      <point x="174" y="-390"/>
    </contour>
    <contour>
      <point x="210" y="0" type="line"/>
      <point x="382" y="0" type="line"/>
      <point x="382" y="1456" type="line"/>
      <point x="210" y="1456" type="line"/>
    </contour>
  </outline>
</glyph>
<glyph name="dotlessi" format="1">
  <advance width="1062"/>
  <unicode hex="0131"/>
  <outline>
    <contour>
      <point x="583" y="-9" type="curve" smooth="yes"/>
      <point x="641" y="-9"/>
      <point x="713" y="6"/>
      <point x="777" y="32" type="curve"/>
      <point x="754" y="243" type="line"/>
      <point x="708" y="226"/>
      <point x="660" y="216"/>
      <point x="626" y="216" type="curve" smooth="yes"/>
      <point x="538" y="216"/>
      <point x="485" y="288"/>
      <point x="485" y="410" type="curve" smooth="yes"/>
      <point x="485" y="1201" type="line"/>
      <point x="185" y="1201" type="line"/>
      <point x="185" y="323" type="line" smooth="yes"/>
      <point x="185" y="114"/>
      <point x="333" y="-9"/>
    </contour>
  </outline>
</glyph>
<glyph name="IJ" format="1">
  <advance width="1530"/>
  <unicode hex="0132"/>
  <outline>
    <contour>
      <point x="943" y="-212" type="curve" smooth="yes"/>
      <point x="1209" y="-212"/>
      <point x="1346" y="-39"/>
      <point x="1346" y="296" type="curve" smooth="yes"/>
      <point x="1346" y="1314" type="line"/>
      <point x="1618" y="1314" type="line"/>
      <point x="1618" y="1456" type="line"/>
      <point x="755" y="1456" type="line"/>
      <point x="755" y="1314" type="line"/>
      <point x="1174" y="1314" type="line"/>
      <point x="1174" y="294" type="line" smooth="yes"/>
      <point x="1174" y="68"/>
      <point x="1090" y="-49"/>
      <point x="927" y="-49" type="curve" smooth="yes"/>
      <point x="870" y="-49"/>
      <point x="780" y="-26"/>
      <point x="684" y="22" type="curve"/>
      <point x="632" y="-114" type="line"/>
      <point x="722" y="-169"/>
      <point x="841" y="-212"/>
    </contour>
    <contour>
      <point x="210" y="0" type="line"/>
      <point x="382" y="0" type="line"/>
      <point x="382" y="1456" type="line"/>
      <point x="210" y="1456" type="line"/>
    </contour>
  </outline>
</glyph>
<glyph name="kgreenlandic" format="1">
  <advance width="2216"/>
  <unicode hex="0138"/>
  <outline>
    <contour>
      <point x="1226" y="1401" type="line"/>
      <point x="590" y="761" type="line"/>
      <point x="590" y="1401" type="line"/>
      <point x="365" y="1401" type="line"/>
      <point x="365" y="0" type="line"/>
      <point x="590" y="0" type="line"/>
      <point x="590" y="643" type="line"/>
      <point x="1286" y="0" type="line"/>
      <point x="1585" y="0" type="line"/>
      <point x="1324" y="237"/>
      <point x="1070" y="461"/>
      <point x="810" y="699" type="curve"/>
      <point x="1534" y="1401" type="line"/>
    </contour>
  </outline>
</glyph>
<glyph name="Ldot" format="1">
  <advance width="1118"/>
  <unicode hex="013F"/>
  <outline>
    <contour>
      <point x="200" y="0" type="line"/>
      <point x="1071" y="0" type="line"/>
      <point x="1071" y="148" type="line"/>
      <point x="372" y="148" type="line"/>
      <point x="372" y="1456" type="line"/>
      <point x="200" y="1456" type="line"/>
    </contour>
    <contour>
      <point x="666" y="1132" type="line"/>
      <point x="883" y="1132" type="line"/>
      <point x="883" y="1342" type="line"/>
      <point x="666" y="1342" type="line"/>
    </contour>
  </outline>
</glyph>
